<svg width="20" height="20" viewBox="0 0 20 20" fill="none" xmlns="http://www.w3.org/2000/svg">
<path d="M11.1666 14.5167H9.07489C7.70822 14.5167 6.59989 13.3667 6.59989 11.9501C6.59989 11.6084 6.88322 11.3251 7.22489 11.3251C7.56655 11.3251 7.84989 11.6084 7.84989 11.9501C7.84989 12.6751 8.39989 13.2667 9.07489 13.2667H11.1666C11.7082 13.2667 12.1582 12.7834 12.1582 12.2001C12.1582 11.4751 11.8999 11.3334 11.4749 11.1834L8.11655 10.0001C7.46655 9.77507 6.59155 9.29173 6.59155 7.80007C6.59155 6.51673 7.59989 5.4834 8.83322 5.4834H10.9249C12.2916 5.4834 13.3999 6.6334 13.3999 8.05007C13.3999 8.39173 13.1166 8.67507 12.7749 8.67507C12.4332 8.67507 12.1499 8.39173 12.1499 8.05007C12.1499 7.32507 11.5999 6.7334 10.9249 6.7334H8.83322C8.29155 6.7334 7.84155 7.21673 7.84155 7.80007C7.84155 8.52506 8.09989 8.66673 8.52489 8.81673L11.8832 10.0001C12.5332 10.2251 13.4082 10.7084 13.4082 12.2001C13.3999 13.4751 12.3999 14.5167 11.1666 14.5167Z" fill="#121212"/>
<path d="M10 15.625C9.65833 15.625 9.375 15.3417 9.375 15V5C9.375 4.65833 9.65833 4.375 10 4.375C10.3417 4.375 10.625 4.65833 10.625 5V15C10.625 15.3417 10.3417 15.625 10 15.625Z" fill="#121212"/>
<path d="M10.0001 18.9584C5.05841 18.9584 1.04175 14.9417 1.04175 10.0001C1.04175 5.05841 5.05841 1.04175 10.0001 1.04175C14.9417 1.04175 18.9584 5.05841 18.9584 10.0001C18.9584 14.9417 14.9417 18.9584 10.0001 18.9584ZM10.0001 2.29175C5.75008 2.29175 2.29175 5.75008 2.29175 10.0001C2.29175 14.2501 5.75008 17.7084 10.0001 17.7084C14.2501 17.7084 17.7084 14.2501 17.7084 10.0001C17.7084 5.75008 14.2501 2.29175 10.0001 2.29175Z" fill="#121212"/>
</svg>
