<svg width="20" height="20" viewBox="0 0 20 20" fill="none" xmlns="http://www.w3.org/2000/svg">
<path d="M9.99991 11.0834C9.89157 11.0834 9.78324 11.0584 9.68324 11L2.32491 6.74171C2.03324 6.56671 1.92491 6.18338 2.09991 5.88338C2.27491 5.58338 2.65824 5.48338 2.95824 5.65838L9.99991 9.73338L16.9999 5.68338C17.2999 5.50838 17.6832 5.61671 17.8582 5.90838C18.0332 6.20838 17.9249 6.59171 17.6332 6.76671L10.3249 11C10.2166 11.05 10.1082 11.0834 9.99991 11.0834Z" fill="#121212"/>
<path d="M10 18.6333C9.65833 18.6333 9.375 18.35 9.375 18.0083V10.45C9.375 10.1083 9.65833 9.82495 10 9.82495C10.3417 9.82495 10.625 10.1083 10.625 10.45V18.0083C10.625 18.35 10.3417 18.6333 10 18.6333Z" fill="#121212"/>
<path d="M10 18.9584C9.2667 18.9584 8.5417 18.8001 7.9667 18.4834L3.5167 16.0084C2.30837 15.3417 1.3667 13.7334 1.3667 12.3501V7.64175C1.3667 6.25842 2.30837 4.65842 3.5167 3.98342L7.9667 1.51675C9.10837 0.883415 10.8917 0.883415 12.0334 1.51675L16.4834 3.99175C17.6917 4.65841 18.6334 6.26675 18.6334 7.65008V12.3584C18.6334 13.7417 17.6917 15.3417 16.4834 16.0167L12.0334 18.4834C11.4584 18.8001 10.7334 18.9584 10 18.9584ZM10 2.29175C9.47503 2.29175 8.95837 2.40008 8.57503 2.60841L4.12503 5.08342C3.32503 5.52508 2.6167 6.72508 2.6167 7.64175V12.3501C2.6167 13.2667 3.32503 14.4667 4.12503 14.9167L8.57503 17.3918C9.33337 17.8167 10.6667 17.8167 11.425 17.3918L15.875 14.9167C16.675 14.4667 17.3834 13.2751 17.3834 12.3501V7.64175C17.3834 6.72508 16.675 5.52508 15.875 5.07508L11.425 2.60008C11.0417 2.40008 10.525 2.29175 10 2.29175Z" fill="#121212"/>
</svg>
