<svg width="20" height="18" viewBox="0 0 20 18" fill="none" xmlns="http://www.w3.org/2000/svg">
<path d="M16.875 0.25H3.125C2.2965 0.250992 1.50222 0.580551 0.916387 1.16639C0.330551 1.75222 0.000992411 2.5465 0 3.375L0 14.625C0.000992411 15.4535 0.330551 16.2478 0.916387 16.8336C1.50222 17.4194 2.2965 17.749 3.125 17.75H16.875C17.7035 17.749 18.4978 17.4194 19.0836 16.8336C19.6694 16.2478 19.999 15.4535 20 14.625V3.375C19.999 2.5465 19.6694 1.75222 19.0836 1.16639C18.4978 0.580551 17.7035 0.250992 16.875 0.25ZM7.5625 9.5625C7.6241 8.97041 7.85668 8.40904 8.23187 7.94687C8.36024 7.82647 8.52963 7.75947 8.70562 7.75947C8.88162 7.75947 9.05101 7.82647 9.17937 7.94687C9.30452 8.07266 9.37477 8.24288 9.37477 8.42031C9.37477 8.59775 9.30452 8.76797 9.17937 8.89375C8.71701 9.26932 8.15507 9.50174 7.5625 9.5625ZM9.17937 12.555C9.0534 12.68 8.88311 12.7502 8.70562 12.7502C8.52814 12.7502 8.35785 12.68 8.23187 12.555C7.85647 12.0922 7.62389 11.5302 7.5625 10.9375C8.15509 10.9986 8.71699 11.2312 9.17937 11.6069C9.30471 11.7327 9.37509 11.903 9.37509 12.0806C9.37509 12.2582 9.30471 12.4286 9.17937 12.5544V12.555ZM6.1875 10.9375C6.12588 11.5298 5.89331 12.0913 5.51813 12.5538C5.45658 12.6187 5.38264 12.6707 5.30068 12.7066C5.21871 12.7425 5.13039 12.7616 5.04091 12.7629C4.95143 12.7641 4.86261 12.7474 4.7797 12.7137C4.69679 12.68 4.62146 12.6301 4.55817 12.5668C4.49487 12.5036 4.44489 12.4283 4.41116 12.3454C4.37744 12.2625 4.36067 12.1737 4.36183 12.0842C4.36299 11.9948 4.38206 11.9064 4.41792 11.8244C4.45379 11.7424 4.50571 11.6685 4.57063 11.6069C5.03291 11.2311 5.59486 10.9984 6.1875 10.9375ZM4.57063 7.94562C4.69745 7.82223 4.86742 7.75319 5.04437 7.75319C5.22133 7.75319 5.3913 7.82223 5.51813 7.94562C5.89342 8.40821 6.126 8.97001 6.1875 9.5625C5.59491 9.50139 5.03301 9.26876 4.57063 8.89313C4.44529 8.76731 4.37491 8.59696 4.37491 8.41938C4.37491 8.24179 4.44529 8.07143 4.57063 7.94562ZM3.125 1.5H6.25V6.9375C5.88392 6.63441 5.41794 6.4788 4.9432 6.50109C4.46846 6.52338 4.01911 6.72199 3.68305 7.05805C3.34699 7.39411 3.14838 7.84346 3.12609 8.3182C3.10379 8.79294 3.25941 9.25892 3.5625 9.625H1.25V3.375C1.25 2.87772 1.44754 2.40081 1.79917 2.04917C2.15081 1.69754 2.62772 1.5 3.125 1.5ZM1.25 14.625V10.875H3.5625C3.25747 11.2408 3.10025 11.7074 3.12175 12.1832C3.14325 12.659 3.34191 13.1095 3.67868 13.4463C4.01546 13.7831 4.46601 13.9818 4.9418 14.0032C5.41759 14.0247 5.88422 13.8675 6.25 13.5625V16.5H3.125C2.62772 16.5 2.15081 16.3025 1.79917 15.9508C1.44754 15.5992 1.25 15.1223 1.25 14.625ZM18.75 14.625C18.75 15.1223 18.5525 15.5992 18.2008 15.9508C17.8492 16.3025 17.3723 16.5 16.875 16.5H7.5V13.5625C7.86608 13.8656 8.33206 14.0212 8.8068 13.9989C9.28154 13.9766 9.73089 13.778 10.067 13.442C10.403 13.1059 10.6016 12.6565 10.6239 12.1818C10.6462 11.7071 10.4906 11.2411 10.1875 10.875H16.875C17.0408 10.875 17.1997 10.8092 17.3169 10.6919C17.4342 10.5747 17.5 10.4158 17.5 10.25C17.5 10.0842 17.4342 9.92527 17.3169 9.80806C17.1997 9.69085 17.0408 9.625 16.875 9.625H10.1875C10.4906 9.25892 10.6462 8.79294 10.6239 8.3182C10.6016 7.84346 10.403 7.39411 10.067 7.05805C9.73089 6.72199 9.28154 6.52338 8.8068 6.50109C8.33206 6.4788 7.86608 6.63441 7.5 6.9375V1.5H16.875C17.3723 1.5 17.8492 1.69754 18.2008 2.04917C18.5525 2.40081 18.75 2.87772 18.75 3.375V14.625Z" fill="#121212"/>
</svg>
