<svg width="40" height="40" viewBox="0 0 40 40" fill="none" xmlns="http://www.w3.org/2000/svg">
<rect width="40" height="40" rx="8" fill="#A02F2F" fill-opacity="0.12"/>
<path d="M20.0001 18.2353C17.6251 18.2353 15.6924 20.0827 15.6924 22.353C15.6924 24.6232 17.6251 26.4706 20.0001 26.4706C22.375 26.4706 24.3077 24.6232 24.3077 22.353C24.3077 20.0827 22.375 18.2353 20.0001 18.2353ZM20.6155 22.3529C20.6155 22.6781 20.3402 22.9411 20.0001 22.9411C19.6599 22.9411 19.3847 22.678 19.3847 22.3529V20C19.3847 19.6748 19.6599 19.4118 20.0001 19.4118C20.3402 19.4118 20.6155 19.6749 20.6155 20V22.3529ZM25.5384 16.8503V15.2941C25.5384 14.969 25.2632 14.7059 24.923 14.7059H23.0769V13.5294H24.923C26.6195 13.5294 27.9999 12.2099 27.9999 10.5882C27.9999 10.263 27.7247 10 27.3845 10C27.0444 10 26.7691 10.2631 26.7691 10.5882C26.7691 11.5613 25.941 12.3529 24.923 12.3529H15.077C14.059 12.3529 13.2309 11.5613 13.2309 10.5882C13.2309 10.263 12.9556 10 12.6155 10C12.2753 10 12.0001 10.2631 12.0001 10.5882C12.0001 12.2099 13.3805 13.5294 15.077 13.5294H16.9231V14.7059H15.077C14.7368 14.7059 14.4616 14.969 14.4616 15.2941V16.8503C12.8936 18.2927 12 20.2826 12 22.353C12 24.4233 12.8936 26.4132 14.4616 27.8556V29.4118C14.4616 29.737 14.7368 30 15.077 30H24.923C25.2632 30 25.5384 29.7369 25.5384 29.4118V27.8556C27.1064 26.4132 28 24.4233 28 22.353C28 20.2826 27.1064 18.2927 25.5384 16.8503ZM18.1539 13.5294H21.8462V14.7058H18.1539V13.5294ZM20.0001 27.6471C16.946 27.6471 14.4617 25.2723 14.4617 22.353C14.4617 19.4336 16.946 17.0588 20.0001 17.0588C23.0541 17.0588 25.5384 19.4336 25.5384 22.353C25.5384 25.2723 23.0541 27.6471 20.0001 27.6471Z" fill="url(#paint0_linear_1038_4009)"/>
<defs>
<linearGradient id="paint0_linear_1038_4009" x1="20" y1="10" x2="20" y2="30" gradientUnits="userSpaceOnUse">
<stop stop-color="#CA5353"/>
<stop offset="1" stop-color="#6A0000"/>
</linearGradient>
</defs>
</svg>
