<svg width="40" height="40" viewBox="0 0 40 40" fill="none" xmlns="http://www.w3.org/2000/svg">
<circle cx="20" cy="20" r="20" fill="#E7C92E"/>
<path d="M19.9993 23.9584C19.666 23.9584 19.3327 23.9334 19.016 23.8751C17.2493 23.6167 15.641 22.6001 14.6243 21.0917C13.916 20.0251 13.541 18.7834 13.541 17.5001C13.541 13.9417 16.441 11.0417 19.9993 11.0417C23.5577 11.0417 26.4577 13.9417 26.4577 17.5001C26.4577 18.7834 26.0827 20.0251 25.3744 21.0917C24.3494 22.6084 22.741 23.6168 20.9577 23.8834C20.666 23.9334 20.3327 23.9584 19.9993 23.9584ZM19.9993 12.2917C17.1243 12.2917 14.791 14.6251 14.791 17.5001C14.791 18.5417 15.091 19.5417 15.6577 20.3917C16.4827 21.6084 17.7743 22.4251 19.2077 22.6334C19.741 22.7251 20.266 22.7251 20.7577 22.6334C22.216 22.4251 23.5077 21.6001 24.3327 20.3834C24.8994 19.5334 25.1994 18.5334 25.1994 17.4917C25.2077 14.6251 22.8744 12.2917 19.9993 12.2917Z" fill="white"/>
<path d="M15.3921 28.8249C15.2754 28.8249 15.1671 28.8082 15.0504 28.7832C14.5088 28.6582 14.0921 28.2416 13.9671 27.6999L13.6754 26.4749C13.6588 26.3999 13.6004 26.3415 13.5171 26.3165L12.1421 25.9916C11.6254 25.8666 11.2171 25.4832 11.0754 24.9749C10.9338 24.4666 11.0754 23.9166 11.4504 23.5416L14.7004 20.2916C14.8338 20.1582 15.0171 20.0916 15.2004 20.1082C15.3838 20.1249 15.5504 20.2249 15.6588 20.3832C16.4838 21.5999 17.7754 22.4249 19.2171 22.6332C19.7504 22.7249 20.2754 22.7249 20.7671 22.6332C22.2254 22.4249 23.5171 21.5999 24.3421 20.3832C24.4421 20.2249 24.6171 20.1249 24.8004 20.1082C24.9838 20.0916 25.1671 20.1582 25.3004 20.2916L28.5504 23.5416C28.9254 23.9166 29.0671 24.4666 28.9254 24.9749C28.7838 25.4832 28.3671 25.8749 27.8588 25.9916L26.4838 26.3165C26.4088 26.3332 26.3504 26.3916 26.3254 26.4749L26.0338 27.6999C25.9088 28.2416 25.4921 28.6582 24.9504 28.7832C24.4088 28.9166 23.8504 28.7249 23.5004 28.2999L20.0004 24.2749L16.5004 28.3082C16.2171 28.6416 15.8171 28.8249 15.3921 28.8249ZM15.0754 21.6916L12.3338 24.4332C12.2588 24.5082 12.2671 24.5916 12.2838 24.6416C12.2921 24.6832 12.3338 24.7666 12.4338 24.7832L13.8088 25.1082C14.3504 25.2332 14.7671 25.6499 14.8921 26.1916L15.1838 27.4166C15.2088 27.5249 15.2921 27.5582 15.3421 27.5749C15.3921 27.5832 15.4754 27.5916 15.5504 27.5082L18.7421 23.8332C17.3254 23.5582 16.0254 22.7999 15.0754 21.6916ZM21.2588 23.8249L24.4504 27.4916C24.5254 27.5832 24.6171 27.5832 24.6671 27.5665C24.7171 27.5582 24.7921 27.5166 24.8254 27.4082L25.1171 26.1832C25.2421 25.6416 25.6588 25.2249 26.2004 25.0999L27.5754 24.7749C27.6754 24.7499 27.7171 24.6749 27.7254 24.6332C27.7421 24.5916 27.7504 24.4999 27.6754 24.4249L24.9338 21.6832C23.9754 22.7916 22.6838 23.5499 21.2588 23.8249Z" fill="white"/>
<path d="M21.5753 20.7416C21.3586 20.7416 21.1003 20.6833 20.7919 20.5L20.0003 20.025L19.2086 20.4916C18.4836 20.925 18.0086 20.675 17.8336 20.55C17.6586 20.425 17.2836 20.05 17.4753 19.225L17.6753 18.3666L17.0086 17.7499C16.6419 17.3833 16.5086 16.9416 16.6336 16.5416C16.7586 16.1416 17.1253 15.8583 17.6419 15.775L18.5336 15.625L18.9586 14.6916C19.2003 14.2166 19.5753 13.95 20.0003 13.95C20.4253 13.95 20.8086 14.225 21.0419 14.7L21.5336 15.6833L22.3586 15.7833C22.8669 15.8666 23.2336 16.1499 23.3669 16.5499C23.4919 16.9499 23.3586 17.3916 22.9919 17.7583L22.3003 18.45L22.5169 19.225C22.7086 20.05 22.3336 20.425 22.1586 20.55C22.0669 20.625 21.8669 20.7416 21.5753 20.7416ZM18.0086 16.9916L18.5836 17.5666C18.8503 17.8333 18.9836 18.2833 18.9003 18.65L18.7419 19.3166L19.4086 18.925C19.7669 18.7166 20.2503 18.7166 20.6003 18.925L21.2669 19.3166L21.1169 18.65C21.0336 18.275 21.1586 17.8333 21.4253 17.5666L22.0003 16.9916L21.2753 16.8666C20.9253 16.8083 20.5753 16.55 20.4169 16.2333L20.0003 15.4166L19.5836 16.25C19.4336 16.5583 19.0836 16.825 18.7336 16.8833L18.0086 16.9916Z" fill="white"/>
</svg>
