<svg width="72" height="72" viewBox="0 0 72 72" fill="none" xmlns="http://www.w3.org/2000/svg">
<path d="M25.9937 50.9314C26.5262 50.9318 27.0573 50.8758 27.578 50.7645C28.4828 51.5593 29.6459 51.9977 30.8502 51.9979H43.2796C46.0309 51.995 48.2606 49.7654 48.2635 47.014C48.2692 45.8555 47.8656 44.7322 47.1239 43.8422C45.4046 41.8 43.1007 40.334 40.5226 39.6416L42.6956 37.4691C43.3477 36.8719 43.6354 35.9743 43.4518 35.1094C43.6377 35.0938 43.8194 35.0453 43.9883 34.966C44.8715 34.5512 45.2512 33.499 44.8365 32.6158C44.7994 32.5369 44.7566 32.4608 44.7082 32.3882L43.4107 30.4311L46.7042 27.1248C47.1927 27.3516 47.7249 27.4686 48.2634 27.4677C50.325 27.4697 51.9979 25.8001 52 23.7385C52.002 21.6769 50.3324 20.004 48.2707 20.002C47.2644 20.001 46.3004 20.4063 45.5971 21.1261L37.6125 29.4722L20.3736 46.7895C19.8756 47.2873 19.8754 48.0947 20.3733 48.5927C20.3734 48.5928 20.3735 48.5929 20.3736 48.593C21.8573 50.095 23.8824 50.9376 25.9937 50.9314ZM46.3111 44.5322C46.8892 45.2295 47.2029 46.1083 47.1969 47.014C47.1945 49.1765 45.442 50.929 43.2795 50.9314H30.8501C28.6876 50.929 26.9351 49.1765 26.9327 47.014C26.9275 46.1079 27.2421 45.2291 27.8212 44.5322C30.1091 41.799 33.5006 40.2337 37.0648 40.266C40.6291 40.2337 44.0206 41.799 46.3085 44.5322H46.3111ZM46.3645 21.8683C47.3953 20.8167 49.0835 20.7999 50.1351 21.8307C51.1867 22.8615 51.2036 24.5496 50.1728 25.6013C49.67 26.1141 48.9817 26.4025 48.2634 26.4012C47.7772 26.4028 47.3002 26.2681 46.8865 26.0124C46.6756 25.8812 46.402 25.9131 46.2269 26.0892L42.7212 29.6088L40.8014 27.681L46.3645 21.8683ZM40.0639 28.4526L42.3143 30.7126L43.8192 32.9768C43.9319 33.1467 43.9657 33.3571 43.912 33.5538C43.8101 33.9229 43.4283 34.1395 43.0593 34.0377C42.931 34.0023 42.8157 33.9308 42.727 33.8317L38.7429 29.8322L40.0639 28.4526ZM21.1298 47.543L37.9986 30.5969L38.8785 31.48L41.9709 34.5819C42.5533 35.089 42.6144 35.9722 42.1073 36.5546C42.0569 36.6125 42.0018 36.6662 41.9427 36.715L39.2763 39.3814C38.5452 39.2616 37.8057 39.2008 37.0648 39.1995C33.1863 39.1648 29.4957 40.8681 27.0058 43.8422C25.593 45.5537 25.4842 47.9939 26.7392 49.8243C24.6642 50.051 22.599 49.32 21.1287 47.8385C21.0893 47.7998 21.067 47.747 21.0668 47.6918C21.0671 47.6358 21.0898 47.5822 21.1298 47.543Z" fill="#570C10"/>
<path d="M48.2639 25.3346C49.1474 25.3346 49.8637 24.6183 49.8637 23.7348C49.8637 22.8513 49.1474 22.135 48.2639 22.135C47.3803 22.135 46.6641 22.8513 46.6641 23.7348C46.6641 24.6183 47.3803 25.3346 48.2639 25.3346ZM48.2639 23.2016C48.5584 23.2016 48.7971 23.4403 48.7971 23.7348C48.7971 24.0293 48.5584 24.2681 48.2639 24.2681C47.9693 24.2681 47.7306 24.0293 47.7306 23.7348C47.7306 23.4403 47.9693 23.2016 48.2639 23.2016Z" fill="#570C10"/>
<path d="M28.6363 45.2179C28.2196 45.7232 27.9944 46.3591 28.0001 47.0139C28.0019 48.5877 29.2772 49.863 30.8509 49.8648H43.2803C44.8541 49.863 46.1294 48.5877 46.1312 47.0139C46.137 46.3591 45.9117 45.7231 45.495 45.2179C43.4076 42.7274 40.3151 41.302 37.0657 41.3325C33.8161 41.3018 30.7235 42.7272 28.6363 45.2179ZM43.0408 44.3647C42.152 44.6187 41.3204 45.0421 40.5921 45.6115C39.8402 43.7744 37.136 42.9836 34.8174 42.6455C35.5555 42.4813 36.3094 42.3987 37.0657 42.3991C39.2196 42.3754 41.3209 43.0659 43.0409 44.3626V44.3647H43.0408ZM37.1653 46.6652C38.0415 46.695 38.911 46.8302 39.7549 47.0678C39.7849 47.676 39.9571 48.2687 40.2578 48.7983H35.9991V48.3514C35.9984 47.6012 36.4631 46.9293 37.1653 46.6652ZM29.4516 45.9053C30.2944 44.9107 31.3229 44.0899 32.4795 43.4885C33.8414 43.5589 38.5859 43.9471 39.5543 45.9175C38.7393 45.7182 37.9045 45.6113 37.0656 45.5986C35.9357 45.6254 34.8201 45.8581 33.7738 46.2855C32.2923 46.9058 30.6672 47.1007 29.081 46.8486C29.1048 46.5036 29.2342 46.1743 29.4516 45.9053ZM29.3449 47.9626C29.7193 48.005 30.0956 48.0271 30.4722 48.0288C31.7253 48.0099 32.9642 47.7601 34.1267 47.2918C34.5267 47.151 34.9197 47.0188 35.3287 46.9089C35.0711 47.3451 34.9342 47.8421 34.9319 48.3487V48.7983H30.8508C30.2387 48.7971 29.6701 48.4815 29.3454 47.9626H29.3449ZM45.0646 47.0139C45.0634 47.9989 44.2653 48.7971 43.2803 48.7983H41.6516C41.0913 48.3115 40.7806 47.5979 40.8059 46.8561C41.6867 45.9894 42.8136 45.4156 44.0327 45.2132C44.2828 45.4579 44.5009 45.6931 44.679 45.9064C44.9337 46.2188 45.0702 46.6109 45.0646 47.0139Z" fill="#570C10"/>
<rect width="72" height="72" rx="16" fill="#570C10" fill-opacity="0.12"/>
</svg>
