<svg width="72" height="72" viewBox="0 0 72 72" fill="none" xmlns="http://www.w3.org/2000/svg">
<g clip-path="url(#clip0_1177_5708)">
<path d="M48.0001 38.9999C47.9984 38.4956 47.8696 37.9999 47.6256 37.5585C47.3816 37.1172 47.0303 36.7445 46.6041 36.4749C46.8964 35.9684 47.032 35.3866 46.9938 34.8031C46.9556 34.2196 46.7454 33.6605 46.3896 33.1964C46.3498 33.1442 46.3 33.1003 46.2432 33.0674C46.1864 33.0344 46.1237 33.0129 46.0586 33.0042C45.9935 32.9955 45.9273 32.9996 45.8638 33.0165C45.8004 33.0333 45.7408 33.0625 45.6886 33.1024C45.6364 33.1422 45.5926 33.192 45.5596 33.2488C45.5266 33.3056 45.5052 33.3683 45.4964 33.4334C45.4877 33.4985 45.4919 33.5647 45.5087 33.6282C45.5256 33.6916 45.5548 33.7512 45.5946 33.8034C45.8586 34.1463 46.0012 34.5671 46.0001 34.9999C45.9976 35.4906 45.8139 35.963 45.4841 36.3264C45.4295 36.3872 45.3907 36.4604 45.371 36.5397C45.3512 36.619 45.3512 36.7019 45.371 36.7812C45.3907 36.8605 45.4296 36.9337 45.4842 36.9945C45.5388 37.0553 45.6074 37.1018 45.6841 37.1299C46.0356 37.256 46.3444 37.4787 46.5752 37.7724C46.8059 38.066 46.9492 38.4187 46.9887 38.7901C47.0281 39.1615 46.9621 39.5364 46.7983 39.872C46.6344 40.2076 46.3793 40.4902 46.0621 40.6874C45.9647 40.749 45.8916 40.8424 45.8552 40.9517C45.8188 41.0611 45.8212 41.1796 45.8621 41.2874C46.0244 41.6983 46.0436 42.1519 45.9166 42.575C45.7896 42.9982 45.5238 43.3662 45.1621 43.6199C45.0845 43.6755 45.0245 43.7521 44.9891 43.8407C44.9536 43.9293 44.9443 44.0261 44.9621 44.1199C45.0243 44.4429 45.0059 44.7762 44.9086 45.0904C44.8112 45.4045 44.6378 45.6898 44.4039 45.921C44.1699 46.1521 43.8825 46.322 43.5672 46.4156C43.2518 46.5092 42.9183 46.5235 42.5961 46.4574C42.5223 46.4423 42.4461 46.4441 42.3731 46.4626C42.3001 46.4811 42.2322 46.5158 42.1745 46.5642C42.1168 46.6126 42.0708 46.6735 42.0399 46.7421C42.009 46.8108 41.9941 46.8856 41.9961 46.9609C41.9961 46.9824 41.9986 47.0029 42.0016 47.0239C41.9988 47.4079 41.8848 47.7829 41.6736 48.1036C41.4623 48.4243 41.1628 48.677 40.8111 48.8312C40.4593 48.9854 40.0705 49.0345 39.6915 48.9726C39.3125 48.9107 38.9595 48.7405 38.6751 48.4824C38.6143 48.4278 38.5411 48.3889 38.4618 48.3692C38.3825 48.3495 38.2996 48.3495 38.2203 48.3692C38.141 48.389 38.0678 48.4278 38.007 48.4824C37.9462 48.537 37.8997 48.6057 37.8716 48.6824C37.7333 49.0675 37.4794 49.4005 37.1447 49.6359C36.81 49.8713 36.4108 49.9976 36.0016 49.9976C35.5924 49.9976 35.1932 49.8713 34.8585 49.6359C34.5238 49.4005 34.27 49.0675 34.1316 48.6824C34.1035 48.6057 34.057 48.537 33.9962 48.4824C33.9354 48.4278 33.8622 48.389 33.7829 48.3692C33.7036 48.3495 33.6207 48.3495 33.5414 48.3692C33.4622 48.3889 33.3889 48.4278 33.3281 48.4824C33.0438 48.741 32.6907 48.9116 32.3114 48.9738C31.9321 49.036 31.543 48.987 31.191 48.8327C30.839 48.6784 30.5392 48.4255 30.3279 48.1045C30.1165 47.7835 30.0027 47.4082 30.0001 47.0239C30.0001 47.0024 30.0051 46.9764 30.0056 46.9624C30.0077 46.8871 29.9927 46.8123 29.9618 46.7436C29.9309 46.675 29.8849 46.6141 29.8272 46.5657C29.7695 46.5173 29.7016 46.4826 29.6286 46.4641C29.5556 46.4456 29.4794 46.4438 29.4056 46.4589C29.0831 46.5274 28.7486 46.5147 28.4322 46.422C28.1158 46.3292 27.8273 46.1594 27.5928 45.9277C27.3582 45.6959 27.1849 45.4096 27.0883 45.0943C26.9918 44.779 26.975 44.4447 27.0396 44.1214C27.0575 44.0276 27.0481 43.9308 27.0127 43.8422C26.9772 43.7536 26.9172 43.677 26.8396 43.6214C26.4779 43.3677 26.2121 42.9997 26.0851 42.5765C25.9581 42.1534 25.9773 41.6998 26.1396 41.2889C26.1805 41.1811 26.183 41.0626 26.1465 40.9532C26.1101 40.8439 26.037 40.7505 25.9396 40.6889C25.6225 40.4917 25.3674 40.2091 25.2035 39.8735C25.0396 39.5379 24.9736 39.163 25.0131 38.7916C25.0525 38.4202 25.1958 38.0675 25.4266 37.7739C25.6573 37.4802 25.9661 37.2575 26.3176 37.1314C26.3943 37.1033 26.463 37.0568 26.5176 36.996C26.5722 36.9352 26.611 36.862 26.6308 36.7827C26.6505 36.7034 26.6505 36.6205 26.6308 36.5412C26.6111 36.4619 26.5722 36.3887 26.5176 36.3279C26.187 35.9643 26.0027 35.4913 26.0001 34.9999C25.999 34.567 26.1417 34.146 26.4056 33.8029C26.4842 33.6973 26.5181 33.565 26.4998 33.4347C26.4815 33.3044 26.4125 33.1865 26.3079 33.1067C26.2033 33.0269 26.0714 32.9915 25.9408 33.0083C25.8103 33.0251 25.6916 33.0927 25.6106 33.1964C25.2549 33.6605 25.0446 34.2196 25.0064 34.8031C24.9683 35.3866 25.1039 35.9684 25.3961 36.4749C24.9961 36.7262 24.6614 37.069 24.4198 37.4749C24.1781 37.8809 24.0363 38.3385 24.0061 38.81C23.9759 39.2814 24.0581 39.7534 24.2459 40.1869C24.4338 40.6203 24.7219 41.003 25.0866 41.3034C25.0295 41.5312 25.0005 41.7651 25.0001 41.9999C25.0014 42.4234 25.0922 42.8419 25.2666 43.2279C25.441 43.6138 25.6951 43.9585 26.0121 44.2394C26.0041 44.3274 26.0001 44.4139 26.0001 44.4999C26.0009 45.2953 26.3172 46.0579 26.8797 46.6203C27.4421 47.1828 28.2047 47.4991 29.0001 47.4999H29.0416C29.1207 47.949 29.3023 48.3738 29.5721 48.7414L30.0061 51.5764C30.0244 51.6943 30.0842 51.8018 30.1748 51.8795C30.2654 51.9572 30.3808 51.9999 30.5001 51.9999H32.5001C32.6195 51.9998 32.735 51.9571 32.8256 51.8793C32.9162 51.8015 32.976 51.6939 32.9941 51.5759L33.2836 49.6979C33.3476 49.6669 33.4126 49.6394 33.4746 49.6039C33.7431 50.031 34.1156 50.3831 34.5572 50.6271C34.9988 50.871 35.4951 50.999 35.9996 50.999C36.5041 50.999 37.0004 50.871 37.442 50.6271C37.8836 50.3831 38.2561 50.031 38.5246 49.6039C38.5866 49.6394 38.6516 49.6669 38.7156 49.6979L39.0051 51.5759C39.0233 51.6941 39.0832 51.8018 39.174 51.8796C39.2649 51.9574 39.3805 52.0001 39.5001 51.9999H41.5001C41.6195 51.9998 41.735 51.9571 41.8256 51.8793C41.9162 51.8015 41.976 51.6939 41.9941 51.5759L42.4316 48.7354C42.6995 48.3693 42.8798 47.9466 42.9586 47.4999H43.0001C43.7955 47.4991 44.5581 47.1828 45.1206 46.6203C45.683 46.0579 45.9993 45.2953 46.0001 44.4999C46.0001 44.4139 45.9961 44.3274 45.9881 44.2394C46.3051 43.9585 46.5592 43.6138 46.7336 43.2279C46.908 42.8419 46.9988 42.4234 47.0001 41.9999C46.9997 41.7651 46.9707 41.5312 46.9136 41.3034C47.2539 41.0237 47.5278 40.672 47.7157 40.2737C47.9036 39.8754 48.0007 39.4403 48.0001 38.9999ZM32.0716 50.9999H30.9291L30.7291 49.7049C31.1256 49.8965 31.5598 49.9973 32.0001 49.9999C32.0766 49.9999 32.1501 49.9909 32.2276 49.9849L32.0716 50.9999ZM41.0716 50.9999H39.9286L39.7726 49.9849C39.8486 49.9909 39.9226 49.9999 40.0001 49.9999C40.4401 49.9972 40.874 49.8964 41.2701 49.7049L41.0716 50.9999Z" fill="#570C10"/>
<path d="M25.4992 32.1C25.7934 32.0959 26.0866 32.0624 26.3742 32C27.2175 31.8066 28.0325 31.5058 28.7992 31.105C28.6057 31.8434 28.5049 32.6031 28.4992 33.3665C28.4992 35.9365 29.7992 39 35.9992 39C42.1992 39 43.4992 35.9365 43.4992 33.3665C43.4937 32.6031 43.3929 31.8434 43.1992 31.105C43.9659 31.5057 44.7809 31.8065 45.6242 32C45.9118 32.0624 46.2049 32.0959 46.4992 32.1C46.7547 32.1331 47.0144 32.0946 47.2493 31.9886C47.4841 31.8826 47.6849 31.7135 47.8292 31.5C48.0532 31.1125 48.1187 30.423 47.1592 29.3405C46.3846 28.5167 45.4873 27.8176 44.4992 27.268C44.3267 27.168 44.1557 27.081 43.9847 26.9915C43.9512 26.6313 43.8465 26.2813 43.6767 25.9618C43.507 25.6424 43.2755 25.3598 42.9957 25.1305C42.9957 25.0865 42.9992 25.043 42.9992 25C42.9976 24.3088 42.7582 23.6393 42.3211 23.1039C41.8841 22.5685 41.276 22.1999 40.5992 22.06C40.5348 22.0469 40.4685 22.0465 40.404 22.059C40.3396 22.0715 40.2782 22.0966 40.2234 22.1328C40.1686 22.169 40.1215 22.2157 40.0847 22.2701C40.048 22.3245 40.0223 22.3856 40.0092 22.45C39.996 22.5143 39.9957 22.5806 40.0082 22.6451C40.0207 22.7096 40.0458 22.771 40.082 22.8258C40.1182 22.8805 40.1648 22.9277 40.2193 22.9644C40.2737 23.0012 40.3348 23.0269 40.3992 23.04C40.8504 23.1332 41.2558 23.379 41.5471 23.7359C41.8385 24.0929 41.9981 24.5392 41.9992 25C41.9986 25.0935 41.99 25.1869 41.9737 25.279C41.9574 25.3754 41.9697 25.4745 42.0092 25.564C42.0486 25.6535 42.1135 25.7295 42.1957 25.7825C42.4419 25.9401 42.6445 26.1572 42.7849 26.4136C42.9253 26.67 42.999 26.9576 42.9992 27.25V27.5C42.9992 27.8978 42.8411 28.2793 42.5598 28.5606C42.2785 28.8419 41.897 29 41.4992 29H41.2492C40.9711 28.9988 40.6973 28.9315 40.4504 28.8036C40.2035 28.6758 39.9905 28.4909 39.8292 28.2645C39.7823 28.1957 39.7184 28.1402 39.6436 28.1037C39.5688 28.0671 39.4858 28.0507 39.4027 28.056C39.3199 28.0592 39.2393 28.083 39.1679 28.1252C39.0966 28.1673 39.0369 28.2265 38.9942 28.2975C38.6852 28.8164 38.2468 29.2462 37.7217 29.5447C37.1967 29.8432 36.6031 30.0001 35.9992 30.0001C35.3952 30.0001 34.8016 29.8432 34.2766 29.5447C33.7516 29.2462 33.3131 28.8164 33.0042 28.2975C32.9614 28.2265 32.9017 28.1673 32.8304 28.1252C32.7591 28.083 32.6784 28.0592 32.5957 28.056C32.5128 28.0519 32.4302 28.0689 32.3556 28.1053C32.281 28.1418 32.2169 28.1965 32.1692 28.2645C32.0078 28.4909 31.7949 28.6758 31.548 28.8036C31.301 28.9315 31.0272 28.9988 30.7492 29H30.4992C30.1013 29 29.7198 28.8419 29.4385 28.5606C29.1572 28.2793 28.9992 27.8978 28.9992 27.5V27.25C28.9994 26.9576 29.0731 26.67 29.2135 26.4136C29.3539 26.1572 29.5565 25.9401 29.8027 25.7825C29.8849 25.7295 29.9497 25.6535 29.9892 25.564C30.0286 25.4745 30.041 25.3754 30.0247 25.279C30.0083 25.1869 29.9998 25.0935 29.9992 25C29.9992 24.4695 30.2099 23.9608 30.585 23.5858C30.96 23.2107 31.4687 23 31.9992 23C32.4335 23.0017 32.8552 23.1463 33.1992 23.4115C33.2755 23.469 33.3668 23.5035 33.4621 23.5108C33.5575 23.518 33.6529 23.4978 33.7371 23.4525C33.8213 23.4072 33.8907 23.3387 33.9372 23.2551C33.9836 23.1716 34.0051 23.0764 33.9992 22.981C34.0017 22.4505 34.2148 21.9428 34.5917 21.5696C34.9685 21.1963 35.4782 20.988 36.0087 20.9905C36.5391 20.993 37.0468 21.2061 37.4201 21.583C37.7934 21.9598 38.0017 22.4695 37.9992 23C37.9992 23.1326 38.0519 23.2598 38.1456 23.3535C38.2394 23.4473 38.3666 23.5 38.4992 23.5C38.6318 23.5 38.759 23.4473 38.8527 23.3535C38.9465 23.2598 38.9992 23.1326 38.9992 23C38.9995 22.2726 38.7356 21.5699 38.2565 21.0226C37.7775 20.4753 37.1159 20.1207 36.3949 20.0248C35.6739 19.9288 34.9425 20.0981 34.337 20.5011C33.7315 20.9041 33.293 21.5133 33.1032 22.2155C32.7526 22.0727 32.3777 21.9995 31.9992 22C31.2038 22.0008 30.4412 22.3171 29.8787 22.8795C29.3163 23.442 29 24.2046 28.9992 25C28.9992 25.043 28.9992 25.0865 29.0027 25.1305C28.7229 25.3598 28.4914 25.6424 28.3216 25.9618C28.1518 26.2813 28.0472 26.6313 28.0137 26.9915C27.8427 27.081 27.6717 27.168 27.4992 27.268C26.5109 27.8175 25.6136 28.5166 24.8392 29.3405C23.8797 30.423 23.9452 31.1125 24.1692 31.5C24.3134 31.7135 24.5142 31.8826 24.7491 31.9886C24.984 32.0946 25.2437 32.1331 25.4992 32.1ZM43.9217 28.0935C43.9482 28.1085 43.9717 28.1205 44.0002 28.1355C44.8955 28.6312 45.709 29.2619 46.4122 30.0055C46.9762 30.6415 46.9857 30.964 46.9622 31.0015C46.9387 31.039 46.6577 31.1925 45.8237 31.0215C44.8285 30.7836 43.8758 30.3938 42.9992 29.866C42.9112 29.816 42.8267 29.763 42.7412 29.711C42.7352 29.696 42.7287 29.6815 42.7227 29.6665C43.0191 29.4996 43.2784 29.2738 43.4844 29.003C43.6904 28.7323 43.8389 28.4222 43.9207 28.092L43.9217 28.0935ZM35.2637 35.5H36.7317L35.9992 36.6L35.2637 35.5ZM30.2387 29.9735C30.325 29.9871 30.4119 29.996 30.4992 30H30.7492C31.3987 29.9985 32.0267 29.767 32.5217 29.3465C32.9421 29.8631 33.4723 30.2796 34.0739 30.5656C34.6754 30.8516 35.3331 31 35.9992 31C36.6652 31 37.3229 30.8516 37.9245 30.5656C38.526 30.2796 39.0563 29.8631 39.4767 29.3465C39.9717 29.767 40.5997 29.9985 41.2492 30H41.4992C41.5866 29.996 41.6737 29.9871 41.7602 29.9735C42.2204 31.0471 42.4712 32.1987 42.4992 33.3665C42.4992 36.3165 40.4772 37.8665 36.4992 37.9885V37.5C36.4992 37.488 36.4932 37.4775 36.4922 37.466C36.628 37.3896 36.7441 37.2826 36.8312 37.1535L37.5637 36.0535C37.6638 35.9029 37.7211 35.728 37.7297 35.5474C37.7383 35.3668 37.6977 35.1872 37.6124 35.0279C37.527 34.8685 37.4 34.7352 37.2449 34.6423C37.0899 34.5493 36.9125 34.5001 36.7317 34.5H35.2667C35.0857 34.5 34.9081 34.5492 34.7529 34.6422C34.5977 34.7352 34.4706 34.8685 34.3852 35.0281C34.2998 35.1876 34.2593 35.3674 34.268 35.5481C34.2767 35.7289 34.3343 35.9039 34.4347 36.0545L35.1672 37.1545C35.2543 37.2836 35.3704 37.3906 35.5062 37.467C35.5062 37.4785 35.4992 37.489 35.4992 37.501V37.9895C31.5212 37.87 29.4992 36.3195 29.4992 33.3675C29.5268 32.1993 29.7779 31.0473 30.2387 29.9735ZM25.5887 30.004C26.2914 29.2606 27.1044 28.6298 27.9992 28.134C28.0257 28.119 28.0492 28.107 28.0777 28.092C28.1596 28.4224 28.3084 28.7326 28.5148 29.0034C28.7211 29.2742 28.9808 29.4998 29.2777 29.6665C29.2717 29.6815 29.2647 29.696 29.2587 29.711C29.1737 29.761 29.0892 29.815 29.0012 29.866C28.1242 30.3934 27.1712 30.7826 26.1757 31.02C25.3437 31.19 25.0592 31.0375 25.0372 31C25.0152 30.9625 25.0232 30.64 25.5872 30.004H25.5887Z" fill="#570C10"/>
<path d="M32.5 32.5C32.6326 32.5 32.7598 32.4473 32.8536 32.3536C32.9473 32.2598 33 32.1326 33 32V31.5C33 31.3674 32.9473 31.2402 32.8536 31.1464C32.7598 31.0527 32.6326 31 32.5 31C32.3674 31 32.2402 31.0527 32.1464 31.1464C32.0527 31.2402 32 31.3674 32 31.5V32C32 32.1326 32.0527 32.2598 32.1464 32.3536C32.2402 32.4473 32.3674 32.5 32.5 32.5Z" fill="#570C10"/>
<path d="M39.5 32.5C39.6326 32.5 39.7598 32.4473 39.8536 32.3536C39.9473 32.2598 40 32.1326 40 32V31.5C40 31.3674 39.9473 31.2402 39.8536 31.1464C39.7598 31.0527 39.6326 31 39.5 31C39.3674 31 39.2402 31.0527 39.1464 31.1464C39.0527 31.2402 39 31.3674 39 31.5V32C39 32.1326 39.0527 32.2598 39.1464 32.3536C39.2402 32.4473 39.3674 32.5 39.5 32.5Z" fill="#570C10"/>
</g>
<rect width="72" height="72" rx="16" fill="#570C10" fill-opacity="0.12"/>
<defs>
<clipPath id="clip0_1177_5708">
<rect width="32" height="32" fill="white" transform="translate(20 20)"/>
</clipPath>
</defs>
</svg>
