<svg width="72" height="72" viewBox="0 0 72 72" fill="none" xmlns="http://www.w3.org/2000/svg">
<path d="M49.709 35.6741L45.6257 31.1108C44.994 30.4051 44.089 30.0001 43.1417 30.0001H39.4863L39.8323 26.8874C39.895 26.3227 39.7133 25.7557 39.3343 25.3327C38.9553 24.9097 38.4123 24.6667 37.8443 24.6667H24.0007C23.6327 24.6667 23.334 24.9654 23.334 25.3334C23.334 25.7014 23.6327 26.0001 24.0007 26.0001H37.8443C38.0363 26.0001 38.2127 26.0787 38.341 26.2221C38.469 26.3654 38.5283 26.5491 38.507 26.7404L36.7373 42.6668H33.0513C33.0353 41.8654 32.7683 41.1251 32.269 40.5298C31.6213 39.7581 30.6697 39.3334 29.5887 39.3334C27.63 39.3334 25.753 40.7858 25.1517 42.6668H22.0007C21.6327 42.6668 21.334 42.9654 21.334 43.3334C21.334 43.7014 21.6327 44.0001 22.0007 44.0001H24.95C24.966 44.8014 25.233 45.5418 25.7323 46.1371C26.38 46.9088 27.3317 47.3334 28.4127 47.3334C30.3713 47.3334 32.2483 45.8811 32.8497 44.0001H39.2833C39.2993 44.8014 39.5663 45.5418 40.0657 46.1371C40.7133 46.9088 41.665 47.3334 42.746 47.3334C44.7047 47.3334 46.5817 45.8811 47.183 44.0001H48.1337C49.1603 44.0001 50.0153 43.2301 50.1227 42.2094L50.54 38.2458C50.6383 37.3121 50.3353 36.3748 49.709 35.6741ZM31.6773 43.2174C31.407 44.7521 29.9423 46.0001 28.4127 46.0001C27.7327 46.0001 27.1433 45.7441 26.7537 45.2801C26.3523 44.8018 26.1997 44.1518 26.3237 43.4494C26.5943 41.9148 28.059 40.6668 29.5887 40.6668C30.2687 40.6668 30.858 40.9228 31.2477 41.3868C31.6487 41.8651 31.8013 42.5151 31.6773 43.2174ZM46.0107 43.2174C45.7403 44.7521 44.2757 46.0001 42.746 46.0001C42.066 46.0001 41.4767 45.7441 41.087 45.2801C40.6857 44.8018 40.533 44.1518 40.657 43.4494C40.9277 41.9148 42.3923 40.6668 43.922 40.6668C44.602 40.6668 45.1913 40.9228 45.581 41.3868C45.982 41.8651 46.1347 42.5151 46.0107 43.2174ZM49.214 38.1064L48.7967 42.0701C48.7607 42.4101 48.476 42.6668 48.1337 42.6668H47.3847C47.3687 41.8654 47.1017 41.1251 46.6023 40.5298C45.9547 39.7581 45.003 39.3334 43.922 39.3334C41.9633 39.3334 40.0863 40.7858 39.485 42.6668H38.0787L39.3383 31.3334H43.1417C43.71 31.3334 44.2533 31.5764 44.6323 32.0001L48.7157 36.5631C49.091 36.9834 49.2727 37.5461 49.214 38.1064ZM43.4923 32.8828C43.366 32.7451 43.1877 32.6667 43.0007 32.6667H41.334C40.9873 32.6667 40.6987 32.9324 40.6697 33.2781L40.3363 37.2781C40.321 37.4641 40.384 37.6474 40.51 37.7851C40.6363 37.9221 40.814 38.0001 41.0007 38.0001H46.6673C46.9317 38.0001 47.1713 37.8438 47.2777 37.6021C47.384 37.3598 47.3373 37.0781 47.159 36.8831L43.4923 32.8828ZM41.7253 36.6668L41.9473 34.0001H42.7073L45.1517 36.6668H41.7253ZM34.0007 30.0001H29.334C28.966 30.0001 28.6673 29.7014 28.6673 29.3334C28.6673 28.9654 28.966 28.6667 29.334 28.6667H34.0007C34.3687 28.6667 34.6673 28.9654 34.6673 29.3334C34.6673 29.7014 34.3687 30.0001 34.0007 30.0001ZM25.334 30.0001C24.966 30.0001 24.6673 29.7014 24.6673 29.3334C24.6673 28.9654 24.966 28.6667 25.334 28.6667H26.6673C27.0353 28.6667 27.334 28.9654 27.334 29.3334C27.334 29.7014 27.0353 30.0001 26.6673 30.0001H25.334ZM32.6673 32.6667C33.0353 32.6667 33.334 32.9654 33.334 33.3334C33.334 33.7014 33.0353 34.0001 32.6673 34.0001H31.334C30.966 34.0001 30.6673 33.7014 30.6673 33.3334C30.6673 32.9654 30.966 32.6667 31.334 32.6667H32.6673ZM24.0007 32.6667H28.6673C29.0353 32.6667 29.334 32.9654 29.334 33.3334C29.334 33.7014 29.0353 34.0001 28.6673 34.0001H24.0007C23.6327 34.0001 23.334 33.7014 23.334 33.3334C23.334 32.9654 23.6327 32.6667 24.0007 32.6667ZM22.0007 37.3334C22.0007 36.9654 22.2993 36.6668 22.6673 36.6668H31.334C31.702 36.6668 32.0007 36.9654 32.0007 37.3334C32.0007 37.7014 31.702 38.0001 31.334 38.0001H22.6673C22.2993 38.0001 22.0007 37.7014 22.0007 37.3334ZM39.0007 46.6668C39.0007 47.0348 38.702 47.3334 38.334 47.3334H35.334C34.966 47.3334 34.6673 47.0348 34.6673 46.6668C34.6673 46.2988 34.966 46.0001 35.334 46.0001H38.334C38.702 46.0001 39.0007 46.2988 39.0007 46.6668ZM24.6673 46.6668C24.6673 47.0348 24.3687 47.3334 24.0007 47.3334H22.334C21.966 47.3334 21.6673 47.0348 21.6673 46.6668C21.6673 46.2988 21.966 46.0001 22.334 46.0001H24.0007C24.3687 46.0001 24.6673 46.2988 24.6673 46.6668Z" fill="#570C10"/>
<rect width="72" height="72" rx="16" fill="#570C10" fill-opacity="0.12"/>
</svg>
