<svg width="72" height="72" viewBox="0 0 72 72" fill="none" xmlns="http://www.w3.org/2000/svg">
<g clip-path="url(#clip0_1177_5744)">
<path d="M49.4996 20H27.9688C24.6012 20 21.8613 22.7397 21.8613 26.1075V45.8926C21.8613 49.2602 24.6011 52.0001 27.9688 52.0001C31.3366 52.0001 34.0763 49.2603 34.0763 45.8926V45.2498H43.6029C43.772 45.2498 43.9341 45.1826 44.0537 45.0631L49.9504 39.1664C50.0699 39.0469 50.1371 38.8847 50.1371 38.7156V20.6374C50.1371 20.2854 49.8517 20 49.4996 20ZM32.8014 29.8381V45.8924C32.8014 48.5571 30.6334 50.725 27.9688 50.725C25.3042 50.725 23.1363 48.5572 23.1363 45.8924V29.8381V29.8374C24.2542 31.2825 26.0046 32.2149 27.9688 32.2149C29.9331 32.2149 31.6834 31.2825 32.8014 29.8374V29.8381ZM27.9688 30.94C25.3041 30.94 23.1363 28.7722 23.1363 26.1075C23.1363 23.4427 25.3043 21.2749 27.9688 21.2749C30.6335 21.2749 32.8014 23.4427 32.8014 26.1075C32.8014 28.7722 30.6334 30.94 27.9688 30.94ZM46.1005 41.2131L44.2404 43.0733V39.353H47.9607L46.1005 41.2131ZM48.8622 38.0781H43.6029C43.2509 38.0781 42.9655 38.3635 42.9655 38.7155V43.9748H34.0762V26.1075C34.0762 24.1432 33.1439 22.3929 31.6989 21.2749H48.8622V38.0781Z" fill="#570C10"/>
<path d="M27.9684 24.1897C26.911 24.1897 26.0508 25.0499 26.0508 26.1073C26.0508 27.1647 26.9111 28.0249 27.9684 28.0249C29.0258 28.0249 29.8861 27.1646 29.8861 26.1073C29.8861 25.05 29.0258 24.1897 27.9684 24.1897ZM27.9684 26.75C27.614 26.75 27.3257 26.4617 27.3257 26.1073C27.3257 25.7528 27.614 25.4645 27.9684 25.4645C28.3229 25.4645 28.6112 25.7528 28.6112 26.1073C28.6112 26.4617 28.3228 26.75 27.9684 26.75Z" fill="#570C10"/>
<path d="M24.4617 42.7568C24.1097 42.7568 23.8242 43.0422 23.8242 43.3943V43.8405C23.8242 44.1925 24.1097 44.4779 24.4617 44.4779C24.8137 44.4779 25.0991 44.1925 25.0991 43.8405V43.3943C25.0992 43.0422 24.8137 42.7568 24.4617 42.7568Z" fill="#570C10"/>
<path d="M24.4617 32.5576C24.1097 32.5576 23.8242 32.843 23.8242 33.1951V41.2907C23.8242 41.6427 24.1097 41.9281 24.4617 41.9281C24.8137 41.9281 25.0991 41.6427 25.0991 41.2907V33.1951C25.0992 32.843 24.8137 32.5576 24.4617 32.5576Z" fill="#570C10"/>
</g>
<rect width="72" height="72" rx="16" fill="#570C10" fill-opacity="0.12"/>
<defs>
<clipPath id="clip0_1177_5744">
<rect width="32" height="32" fill="white" transform="translate(20 20)"/>
</clipPath>
</defs>
</svg>
