<svg width="80" height="80" viewBox="0 0 80 80" fill="none" xmlns="http://www.w3.org/2000/svg">
<path d="M77.5646 45.2334C69.1601 32.3646 70.0535 19.1734 66.0023 12.9712C61.9512 6.769 49.8779 -3.92434 21.3512 14.709C-7.17544 33.3423 0.0801196 53.5979 4.5379 60.4179C25.4001 92.3557 92.4512 68.0246 77.5646 45.2334Z" fill="white"/>
<path d="M66.2533 72.9357C64.4155 72.9357 62.9199 71.4402 62.9199 69.6024C62.9199 67.7646 64.4155 66.269 66.2533 66.269C68.091 66.269 69.5866 67.7646 69.5866 69.6024C69.5866 71.4402 68.091 72.9357 66.2533 72.9357ZM66.2533 68.4913C65.6399 68.4913 65.1421 68.989 65.1421 69.6024C65.1421 70.2157 65.6399 70.7135 66.2533 70.7135C66.8666 70.7135 67.3644 70.2157 67.3644 69.6024C67.3644 68.989 66.8666 68.4913 66.2533 68.4913Z" fill="#A4AFC1"/>
<path d="M18.8438 19.2429L21.9864 16.1002L23.5578 17.6716L20.4151 20.8143L18.8438 19.2429Z" fill="#A4AFC1"/>
<path d="M9.80859 28.2747L12.9513 25.132L14.5226 26.7033L11.3799 29.846L9.80859 28.2747Z" fill="#A4AFC1"/>
<path d="M9.8125 17.2744L11.3838 15.7031L14.5265 18.8458L12.9552 20.4171L9.8125 17.2744Z" fill="#A4AFC1"/>
<path d="M58.3329 27.2222H52.7773V21.6667L59.444 15V20.5556H64.9996L58.3329 27.2222Z" fill="#60130C"/>
<path d="M56.1111 44.4445C56.1111 47.1934 55.5711 49.8134 54.5933 52.2111C53.9733 53.7311 53.1756 55.16 52.2267 56.4734C48.4933 61.64 42.4178 65 35.5556 65C24.2022 65 15 55.7978 15 44.4445C15 33.0911 24.2022 23.8889 35.5556 23.8889C46.9089 23.8889 56.1111 33.0911 56.1111 44.4445Z" fill="#60130C"/>
<path d="M35.5551 57.2223C42.6121 57.2223 48.3329 51.5015 48.3329 44.4445C48.3329 37.3876 42.6121 31.6667 35.5551 31.6667C28.4981 31.6667 22.7773 37.3876 22.7773 44.4445C22.7773 51.5015 28.4981 57.2223 35.5551 57.2223Z" fill="#EBCE6D"/>
<path d="M35.5566 49.4446C38.3181 49.4446 40.5566 47.206 40.5566 44.4446C40.5566 41.6832 38.3181 39.4446 35.5566 39.4446C32.7952 39.4446 30.5566 41.6832 30.5566 44.4446C30.5566 47.206 32.7952 49.4446 35.5566 49.4446Z" fill="#60130C"/>
<path d="M35.5566 44.4445L52.2233 27.7778L35.5566 44.4445Z" fill="#60130C"/>
<path d="M19.4444 44.4445C19.4444 33.8422 27.4711 25.1222 37.7778 24.0134C37.0467 23.9356 36.3067 23.8889 35.5556 23.8889C24.2022 23.8889 15 33.0911 15 44.4445C15 55.7978 24.2022 65 35.5556 65C36.3067 65 37.0467 64.9534 37.7778 64.8756C27.4711 63.7667 19.4444 55.0467 19.4444 44.4445Z" fill="#570C10"/>
<path d="M27.2218 44.4445C27.2218 38.1467 31.7818 32.9267 37.7773 31.8734C37.0551 31.7467 36.3151 31.6667 35.5551 31.6667C28.4973 31.6667 22.7773 37.3867 22.7773 44.4445C22.7773 51.5023 28.4973 57.2223 35.5551 57.2223C36.3151 57.2223 37.0551 57.1445 37.7773 57.0156C31.7818 55.9623 27.2218 50.7423 27.2218 44.4445Z" fill="#D5DBE1"/>
<path d="M35.0011 44.4446C35.0011 42.4868 36.1389 40.8068 37.7789 39.9868C37.1077 39.6512 36.3589 39.4446 35.5566 39.4446C32.7944 39.4446 30.5566 41.6824 30.5566 44.4446C30.5566 47.2068 32.7944 49.4446 35.5566 49.4446C36.3589 49.4446 37.1077 49.2379 37.7789 48.9024C36.1389 48.0824 35.0011 46.4024 35.0011 44.4446Z" fill="#570C10"/>
<path d="M59.444 15L52.7773 21.6667V27.2222L59.444 20.5556V15Z" fill="#570C10"/>
<path d="M58.3336 28.889H52.778C51.858 28.889 51.1113 28.1423 51.1113 27.2223V21.6668C51.1113 21.2245 51.2869 20.8001 51.6002 20.489L58.2669 13.8223C58.7447 13.3445 59.4625 13.2023 60.0825 13.4601C60.7047 13.7179 61.1113 14.3268 61.1113 15.0001V18.889H65.0002C65.6736 18.889 66.2825 19.2956 66.5402 19.9179C66.798 20.5401 66.6558 21.2579 66.178 21.7334L59.5113 28.4001C59.2002 28.7134 58.7758 28.889 58.3336 28.889ZM54.4447 25.5556H57.6424L60.9758 22.2223H59.4447C58.5247 22.2223 57.778 21.4756 57.778 20.5556V19.0245L54.4447 22.3579V25.5556Z" fill="black"/>
<path d="M35.5562 66.6669C23.3029 66.6669 13.334 56.698 13.334 44.4446C13.334 32.1913 23.3029 22.2224 35.5562 22.2224C47.8096 22.2224 57.7784 32.1913 57.7784 44.4446C57.7784 46.5957 57.4718 48.7224 56.8651 50.7669L53.6696 49.8202C54.1851 48.0824 54.4451 46.2735 54.4451 44.4446C54.4451 34.0291 45.9718 25.5557 35.5562 25.5557C25.1407 25.5557 16.6673 34.0291 16.6673 44.4446C16.6673 54.8602 25.1407 63.3335 35.5562 63.3335C42.9273 63.3335 49.674 59.0002 52.7407 52.2958L55.7718 53.6824C52.1629 61.5713 44.2273 66.6669 35.5562 66.6669Z" fill="black"/>
<path d="M35.5558 58.8889C27.5913 58.8889 21.1113 52.4089 21.1113 44.4444C21.1113 36.48 27.5913 30 35.5558 30C43.5202 30 50.0002 36.48 50.0002 44.4444C50.0002 52.4089 43.5202 58.8889 35.5558 58.8889ZM35.5558 33.3333C29.4291 33.3333 24.4447 38.3178 24.4447 44.4444C24.4447 50.5711 29.4291 55.5556 35.5558 55.5556C41.6824 55.5556 46.6669 50.5711 46.6669 44.4444C46.6669 38.3178 41.6824 33.3333 35.5558 33.3333Z" fill="black"/>
<path d="M35.5553 51.1112C31.8798 51.1112 28.8887 48.12 28.8887 44.4445C28.8887 40.7689 31.8798 37.7778 35.5553 37.7778C39.2309 37.7778 42.222 40.7689 42.222 44.4445C42.222 48.12 39.2309 51.1112 35.5553 51.1112ZM35.5553 41.1112C33.7176 41.1112 32.222 42.6067 32.222 44.4445C32.222 46.2823 33.7176 47.7778 35.5553 47.7778C37.3931 47.7778 38.8887 46.2823 38.8887 44.4445C38.8887 42.6067 37.3931 41.1112 35.5553 41.1112Z" fill="black"/>
<path d="M35.5548 46.1113C35.1281 46.1113 34.7014 45.9491 34.377 45.6224C33.7259 44.9713 33.7259 43.9157 34.377 43.2646L51.0437 26.598C51.6948 25.9468 52.7503 25.9468 53.4014 26.598C54.0525 27.2491 54.0525 28.3046 53.4014 28.9557L36.7348 45.6224C36.4081 45.9491 35.9814 46.1113 35.5548 46.1113Z" fill="black"/>
</svg>
