<svg width="72" height="72" viewBox="0 0 72 72" fill="none" xmlns="http://www.w3.org/2000/svg">
<rect width="72" height="72" rx="16" fill="#570C10" fill-opacity="0.12"/>
<g clip-path="url(#clip0_1177_5745)">
<path d="M26.5 31.875C26.5 37.0444 30.7056 41.25 35.875 41.25C41.0444 41.25 45.25 37.0444 45.25 31.875C45.25 26.7056 41.0444 22.5 35.875 22.5C30.7056 22.5 26.5 26.7056 26.5 31.875ZM35.875 23.75C40.3552 23.75 44 27.3948 44 31.875C44 36.3552 40.3552 40 35.875 40C31.3948 40 27.75 36.3552 27.75 31.875C27.75 27.3948 31.3948 23.75 35.875 23.75Z" fill="#570C10"/>
<path d="M30.0868 30.7607L32.5094 33.1477L31.952 36.5024C31.9132 36.7361 32.0096 36.9714 32.2013 37.1106C32.3927 37.2497 32.6463 37.2685 32.8566 37.1597L35.8749 35.5923L38.8929 37.1597C39.1014 37.2678 39.3551 37.251 39.5482 37.1106C39.7399 36.9714 39.8363 36.7361 39.7975 36.5024L39.2401 33.1477L41.6627 30.7607C41.8314 30.5947 41.8917 30.3477 41.8185 30.1223C41.7452 29.8972 41.5511 29.7329 41.317 29.6975L37.9549 29.1914L36.4337 26.1492C36.328 25.9375 36.1114 25.8037 35.8749 25.8037C35.638 25.8037 35.4217 25.9375 35.3158 26.1492L33.7945 29.1914L30.4325 29.6975C30.1983 29.7327 30.0043 29.8972 29.931 30.1223C29.8578 30.3477 29.9183 30.5947 30.0868 30.7607ZM34.3016 30.3791C34.5028 30.3489 34.6766 30.2227 34.7677 30.0408L35.8749 27.8262L36.982 30.0408C37.0731 30.2227 37.2469 30.3489 37.4481 30.3791L39.8951 30.7476L38.1317 32.4846C37.9869 32.6274 37.9205 32.8318 37.9537 33.0325L38.3595 35.4741L36.1627 34.3335C36.0726 34.2866 35.9737 34.2632 35.8749 34.2632C35.776 34.2632 35.6771 34.2866 35.5868 34.3335L33.39 35.4741L33.7958 33.0325C33.8292 32.8318 33.7628 32.6274 33.6178 32.4846L31.8546 30.7476L34.3016 30.3791Z" fill="#570C10"/>
<path d="M36.5 20.625C36.5 20.9702 36.2202 21.25 35.875 21.25C35.5298 21.25 35.25 20.9702 35.25 20.625C35.25 20.2798 35.5298 20 35.875 20C36.2202 20 36.5 20.2798 36.5 20.625Z" fill="#570C10"/>
<path d="M32.9294 20.3685C27.6719 21.7105 24 26.4422 24 31.8751C24 35.2493 25.4187 38.4288 27.9092 40.6805L24.1438 47.3165C24.0227 47.5301 24.0378 47.7947 24.1824 47.993C24.3269 48.1915 24.574 48.2869 24.8145 48.2369L29.0906 47.3489L30.5935 51.584C30.675 51.8145 30.8838 51.9759 31.1274 51.9976C31.3711 52.0193 31.6047 51.8965 31.7256 51.6839L35.875 44.389L40.0242 51.6839C40.136 51.8804 40.344 51.9998 40.5671 51.9998C40.5854 51.9998 40.604 51.9991 40.6223 51.9976C40.866 51.9759 41.0747 51.8143 41.1565 51.584L42.6592 47.3489L46.9353 48.2369C47.1755 48.2867 47.4229 48.1912 47.5674 47.993C47.7122 47.7947 47.7271 47.5301 47.606 47.3165L43.8406 40.6805C46.3311 38.4288 47.7498 35.2493 47.7498 31.8751C47.7498 26.4422 44.0779 21.7105 38.8206 20.3685C38.4858 20.283 38.1458 20.4849 38.0603 20.8194C37.9749 21.1539 38.1768 21.4942 38.5112 21.5797C43.2148 22.7803 46.5 27.014 46.5 31.8751C46.5 37.7913 41.6951 42.5001 35.875 42.5001C30.0508 42.5001 25.25 37.7874 25.25 31.8751C25.25 27.014 28.5349 22.7803 33.2385 21.5797C33.573 21.4942 33.7749 21.1539 33.6897 20.8194C33.6042 20.4849 33.2642 20.283 32.9294 20.3685ZM31.3147 49.8785L30.0864 46.4173C29.9819 46.1229 29.6763 45.9507 29.3704 46.0142L25.9126 46.7322L28.8926 41.4803C30.6301 42.7435 32.6875 43.513 34.8269 43.7034L31.3147 49.8785ZM42.3794 46.0142C42.0737 45.9507 41.7678 46.1229 41.6633 46.4173L40.4353 49.8785L36.9229 43.7034C39.0625 43.513 41.1196 42.7435 42.8574 41.4803L45.8374 46.7322L42.3794 46.0142Z" fill="#570C10"/>
</g>
<defs>
<clipPath id="clip0_1177_5745">
<rect width="32" height="32" fill="white" transform="translate(20 20)"/>
</clipPath>
</defs>
</svg>
