<svg width="80" height="80" viewBox="0 0 80 80" fill="none" xmlns="http://www.w3.org/2000/svg">
<path d="M18.6164 9.26007C33.9875 9.26007 44.5431 1.29785 51.9498 1.29785C59.3564 1.29785 74.912 5.55563 74.912 39.629C74.912 73.7023 53.9853 78.7023 45.8386 78.7023C7.68975 78.7045 -8.6058 9.26007 18.6164 9.26007Z" fill="white"/>
<path d="M21.4258 8.15381L24.5685 5.01111L26.1398 6.58246L22.9971 9.72516L21.4258 8.15381Z" fill="#A4AFC1"/>
<path d="M12.3926 17.1865L15.5353 14.0438L17.1066 15.6152L13.9639 18.7579L12.3926 17.1865Z" fill="#A4AFC1"/>
<path d="M12.3926 6.18896L13.9639 4.61762L17.1066 7.76031L15.5353 9.33166L12.3926 6.18896Z" fill="#A4AFC1"/>
<path d="M74.9114 32.4067C73.0737 32.4067 71.5781 30.9111 71.5781 29.0733C71.5781 27.2355 73.0737 25.74 74.9114 25.74C76.7492 25.74 78.2448 27.2355 78.2448 29.0733C78.2448 30.9111 76.7492 32.4067 74.9114 32.4067ZM74.9114 27.9622C74.3003 27.9622 73.8003 28.4622 73.8003 29.0733C73.8003 29.6844 74.3003 30.1844 74.9114 30.1844C75.5226 30.1844 76.0226 29.6844 76.0226 29.0733C76.0226 28.4622 75.5226 27.9622 74.9114 27.9622Z" fill="#A4AFC1"/>
<path d="M40 62.778L65 33.1469L56.2356 17.2224H40.0044H23.7644L15 33.1469L40 62.778Z" fill="#EBCE6D"/>
<path d="M28.8906 33.3335L40.0017 17.2224L51.1128 33.3335H28.8906Z" fill="#EBCE6D"/>
<path d="M56.2367 17.2224L40.0012 62.778L23.7656 17.2224H56.2367Z" fill="#EBCE6D"/>
<path d="M19.4444 33.1469L28.2089 17.2224H23.7644L15 33.1469L40 62.778L42.2222 60.1446L19.4444 33.1469Z" fill="#60130C"/>
<path d="M23.0816 33.0311L31.1306 18H27.049L19 33.0311L41.9592 61L44 58.5144L23.0816 33.0311Z" fill="#60130C"/>
<path d="M27.0816 33.0311L37 19L31.049 18L23 33.0311L44 59.5L45.5 57L27.0816 33.0311Z" fill="#60130C"/>
<path d="M40.0016 64.4446C39.5105 64.4446 39.0438 64.2268 38.7283 63.8512L13.7283 34.2201C13.2838 33.6934 13.2105 32.9468 13.5416 32.3423L22.3038 16.4179C22.5971 15.8846 23.1571 15.5557 23.7638 15.5557H56.2372C56.8438 15.5557 57.4038 15.8846 57.6972 16.4201L66.4594 32.3446C66.7905 32.9468 66.7172 33.6934 66.2727 34.2223L41.2727 63.8535C40.9594 64.2268 40.4927 64.4446 40.0016 64.4446ZM17.0127 32.9468L40.0016 60.1935L62.9905 32.9468L55.2527 18.889H24.7505L17.0127 32.9468Z" fill="black"/>
<path d="M49.7417 34.28L40.0017 20.1578L30.2618 34.2778L27.5195 32.3845L38.6306 16.2733C39.2506 15.3711 40.7529 15.3711 41.3729 16.2733L52.484 32.3845L49.7417 34.28Z" fill="black"/>
<path d="M15 31.6667H65V35.0001H15V31.6667Z" fill="black"/>
<path d="M40 64.4446C39.2956 64.4446 38.6667 64.0024 38.4311 63.3379L22.1934 17.7824L25.3311 16.6624L40 57.8135L45.2911 42.969L48.4289 44.089L41.5689 63.3379C41.3334 64.0024 40.7045 64.4446 40 64.4446Z" fill="black"/>
<path d="M46.5469 39.4294L54.6721 16.6498L57.81 17.769L49.6848 40.5487L46.5469 39.4294Z" fill="black"/>
</svg>
