<svg width="80" height="80" viewBox="0 0 80 80" fill="none" xmlns="http://www.w3.org/2000/svg">
<path d="M18.6164 9.26007C33.9875 9.26007 44.5431 1.29785 51.9498 1.29785C59.3564 1.29785 74.912 5.55563 74.912 39.629C74.912 73.7023 53.9853 78.7023 45.8386 78.7023C7.68975 78.7045 -8.6058 9.26007 18.6164 9.26007Z" fill="white"/>
<path d="M36.1053 50.0001C36.1053 55.8223 31.3941 60.5557 25.5497 60.5557C19.7275 60.5557 14.9941 55.8223 14.9941 50.0001C14.9941 48.689 15.2386 47.4446 15.683 46.289C17.1719 42.289 21.0386 39.4446 25.5497 39.4446C31.3941 39.4446 36.1053 44.1779 36.1053 50.0001Z" fill="#60130C"/>
<path d="M36.1058 25.5557V50.0001C36.1058 44.1779 31.3947 39.4446 25.5503 39.4446C21.0391 39.4446 17.1725 42.289 15.6836 46.289L24.1058 23.9112C24.1503 23.7335 24.2169 23.5557 24.2836 23.4001C25.1503 21.089 27.3725 19.4446 29.9947 19.4446C33.3725 19.4446 36.1058 22.1779 36.1058 25.5557Z" fill="#F3F3F1"/>
<path d="M44.2266 25.5557V50.0001C44.2266 44.1779 48.9377 39.4446 54.7821 39.4446C59.2932 39.4446 63.1599 42.289 64.6488 46.289L56.2266 23.9112C56.1821 23.7335 56.1155 23.5557 56.0488 23.4001C55.1821 21.089 52.9599 19.4446 50.3377 19.4446C46.9599 19.4446 44.2266 22.1779 44.2266 25.5557Z" fill="#F3F3F1"/>
<path d="M30.5502 39.4446C29.6858 39.4446 28.8591 39.5779 28.0547 39.7757C32.6769 40.9046 36.1058 45.0424 36.1058 50.0001V41.0579C34.4902 40.0512 32.5969 39.4446 30.5502 39.4446Z" fill="#D5DBE1"/>
<path d="M29.1058 23.9112C29.1503 23.7335 29.2169 23.5557 29.2836 23.4001C29.8547 21.8757 31.0214 20.6557 32.4969 19.9912C31.7325 19.6468 30.888 19.4446 29.9947 19.4446C27.3725 19.4446 25.1503 21.089 24.2836 23.4001C24.2169 23.5557 24.1503 23.7335 24.1058 23.9112L15.6836 46.289C16.8969 43.0268 19.7058 40.5624 23.1436 39.7535L29.1058 23.9112Z" fill="#D5DBE1"/>
<path d="M49.2285 25.5557C49.2285 23.0735 50.713 20.9468 52.8374 19.9912C52.0752 19.649 51.233 19.4446 50.3396 19.4446C46.9619 19.4446 44.2285 22.1779 44.2285 25.5557V50.0001C44.2285 46.2179 46.233 42.9224 49.2285 41.0579V25.5557Z" fill="#D5DBE1"/>
<path d="M59.7837 39.4446C58.9171 39.4446 58.086 39.5779 57.2793 39.7757C60.6771 40.6068 63.446 43.0557 64.6504 46.289L62.1904 39.7535C61.4126 39.5712 60.6149 39.4446 59.7837 39.4446Z" fill="#D5DBE1"/>
<path d="M36.1055 37.2224H43.8833V47.2224H36.1055V37.2224Z" fill="#F3F3F1"/>
<path d="M36.1055 37.2224H41.1055V47.2224H36.1055V37.2224Z" fill="#D5DBE1"/>
<path d="M43.8835 51.6668C42.9635 51.6668 42.2168 50.9201 42.2168 50.0001V47.2223C42.2168 46.3023 42.9635 45.5557 43.8835 45.5557C44.8035 45.5557 45.5502 46.3023 45.5502 47.2223V50.0001C45.5502 50.9201 44.8035 51.6668 43.8835 51.6668Z" fill="black"/>
<path d="M64.9939 50.0001C64.9939 55.8223 60.2828 60.5557 54.4384 60.5557C48.6161 60.5557 43.8828 55.8223 43.8828 50.0001C43.8828 44.1779 48.6161 39.4446 54.4384 39.4446C58.9717 39.4446 62.8161 42.289 64.3273 46.289C64.7717 47.4446 64.9939 48.689 64.9939 50.0001Z" fill="#60130C"/>
<path d="M19.9941 50.0001C19.9941 48.689 20.2386 47.4446 20.683 46.289C21.8875 43.0557 24.6564 40.6046 28.0541 39.7757C27.2475 39.5779 26.4186 39.4446 25.5497 39.4446C21.0386 39.4446 17.1719 42.289 15.683 46.289C15.2386 47.4446 14.9941 48.689 14.9941 50.0001C14.9941 55.8223 19.7275 60.5557 25.5497 60.5557C26.4164 60.5557 27.2475 60.4223 28.0541 60.2246C23.4386 59.0979 19.9941 54.9579 19.9941 50.0001Z" fill="#EBCE6D"/>
<path d="M48.8828 50.0001C48.8828 45.0424 52.3273 40.9024 56.9428 39.7757C56.1384 39.5801 55.3073 39.4446 54.4384 39.4446C48.6161 39.4446 43.8828 44.1779 43.8828 50.0001C43.8828 55.8223 48.6161 60.5557 54.4384 60.5557C55.305 60.5557 56.1361 60.4223 56.9428 60.2246C52.3273 59.0979 48.8828 54.9579 48.8828 50.0001Z" fill="#EBCE6D"/>
<path d="M17.5 15.2778H21.9444V17.5001H17.5V15.2778Z" fill="#A4AFC1"/>
<path d="M4.72266 15.2778H9.1671V17.5001H4.72266V15.2778Z" fill="#A4AFC1"/>
<path d="M12.5 7.5H14.7222V11.9444H12.5V7.5Z" fill="#A4AFC1"/>
<path d="M12.5 20.2778H14.7222V24.7223H12.5V20.2778Z" fill="#A4AFC1"/>
<path d="M28.89 72.2223C27.0522 72.2223 25.5566 70.7268 25.5566 68.889C25.5566 67.0512 27.0522 65.5557 28.89 65.5557C30.7278 65.5557 32.2233 67.0512 32.2233 68.889C32.2233 70.7268 30.7278 72.2223 28.89 72.2223ZM28.89 67.7779C28.2789 67.7779 27.7789 68.2757 27.7789 68.889C27.7789 69.5023 28.2789 70.0001 28.89 70.0001C29.5011 70.0001 30.0011 69.5023 30.0011 68.889C30.0011 68.2757 29.5011 67.7779 28.89 67.7779Z" fill="#A4AFC1"/>
<path d="M25.5562 62.2223C18.8184 62.2223 13.334 56.74 13.334 50C13.334 48.5223 13.5962 47.0756 14.114 45.6978C15.8962 40.9601 20.4962 37.7778 25.5562 37.7778C32.294 37.7778 37.7784 43.2601 37.7784 50C37.7784 56.74 32.294 62.2223 25.5562 62.2223ZM25.5562 41.1112C21.8762 41.1112 18.5295 43.4267 17.234 46.8712C16.8584 47.8712 16.6673 48.9245 16.6673 50C16.6673 54.9023 20.654 58.8889 25.5562 58.8889C30.4584 58.8889 34.4451 54.9023 34.4451 50C34.4451 45.0978 30.4584 41.1112 25.5562 41.1112Z" fill="black"/>
<path d="M34.4453 25.5557H37.7787V50.0001H34.4453V25.5557Z" fill="black"/>
<path d="M14.1133 45.6926L22.7177 22.8126L25.8377 23.986L17.2333 46.866L14.1133 45.6926Z" fill="black"/>
<path d="M37.7783 25.5556H34.445C34.445 23.1045 32.4517 21.1112 30.0005 21.1112C28.1628 21.1112 26.4961 22.2667 25.8494 23.9845C25.7917 24.1267 25.7494 24.2267 25.725 24.3245L22.4961 23.4934C22.5628 23.2378 22.6561 22.9823 22.7494 22.7556C23.8605 19.8023 26.7828 17.7778 30.0005 17.7778C34.2894 17.7778 37.7783 21.2667 37.7783 25.5556Z" fill="black"/>
<path d="M45.556 25.5556H42.2227C42.2227 21.2667 45.7115 17.7778 50.0004 17.7778C53.2182 17.7778 56.1404 19.8023 57.2716 22.8134L57.4627 23.3623L54.316 24.4578L54.1382 23.9467C53.5049 22.2667 51.8382 21.1112 50.0004 21.1112C47.5493 21.1112 45.556 23.1045 45.556 25.5556Z" fill="black"/>
<path d="M42.2227 25.5557H45.556V50.0001H42.2227V25.5557Z" fill="black"/>
<path d="M54.1621 23.9924L57.2821 22.8191L65.8866 45.6991L62.7666 46.8724L54.1621 23.9924Z" fill="black"/>
<path d="M54.4449 62.2223C47.7071 62.2223 42.2227 56.74 42.2227 50C42.2227 43.2601 47.7071 37.7778 54.4449 37.7778C59.5049 37.7778 64.1049 40.9601 65.8871 45.6978C66.4049 47.0756 66.6671 48.5223 66.6671 50C66.6671 56.74 61.1827 62.2223 54.4449 62.2223ZM54.4449 41.1112C49.5427 41.1112 45.556 45.0978 45.556 50C45.556 54.9023 49.5427 58.8889 54.4449 58.8889C59.3471 58.8889 63.3338 54.9023 63.3338 50C63.3338 48.9245 63.1427 47.8712 62.7671 46.8712C61.4693 43.4267 58.1249 41.1112 54.4449 41.1112Z" fill="black"/>
<path d="M36.1113 45.5557H43.8891V48.889H36.1113V45.5557Z" fill="black"/>
<path d="M36.1113 35.5557H43.8891V38.889H36.1113V35.5557Z" fill="black"/>
</svg>
