<svg width="40" height="40" viewBox="0 0 40 40" fill="none" xmlns="http://www.w3.org/2000/svg">
<circle cx="20" cy="20" r="20" fill="#4DB144"/>
<path d="M21.2493 17.7083H11.666C11.3243 17.7083 11.041 17.4249 11.041 17.0833C11.041 16.7416 11.3243 16.4583 11.666 16.4583H21.2493C21.591 16.4583 21.8743 16.7416 21.8743 17.0833C21.8743 17.4249 21.591 17.7083 21.2493 17.7083Z" fill="white"/>
<path d="M16.6667 24.375H15C14.6583 24.375 14.375 24.0917 14.375 23.75C14.375 23.4083 14.6583 23.125 15 23.125H16.6667C17.0083 23.125 17.2917 23.4083 17.2917 23.75C17.2917 24.0917 17.0083 24.375 16.6667 24.375Z" fill="white"/>
<path d="M22.0833 24.375H18.75C18.4083 24.375 18.125 24.0917 18.125 23.75C18.125 23.4083 18.4083 23.125 18.75 23.125H22.0833C22.425 23.125 22.7083 23.4083 22.7083 23.75C22.7083 24.0917 22.425 24.375 22.0833 24.375Z" fill="white"/>
<path d="M24.6327 27.7084H15.366C12.0493 27.7084 11.041 26.7084 11.041 23.4251V16.5751C11.041 13.2917 12.0493 12.2917 15.366 12.2917H21.2493C21.591 12.2917 21.8743 12.5751 21.8743 12.9167C21.8743 13.2584 21.591 13.5417 21.2493 13.5417H15.366C12.7493 13.5417 12.291 13.9917 12.291 16.5751V23.4167C12.291 26.0001 12.7493 26.4501 15.366 26.4501H24.6243C27.241 26.4501 27.6994 26.0001 27.6994 23.4167V20.0167C27.6994 19.6751 27.9827 19.3917 28.3244 19.3917C28.666 19.3917 28.9494 19.6751 28.9494 20.0167V23.4167C28.9577 26.7084 27.9493 27.7084 24.6327 27.7084Z" fill="white"/>
<path d="M28.3333 15.8333H23.75C23.4083 15.8333 23.125 15.5499 23.125 15.2083C23.125 14.8666 23.4083 14.5833 23.75 14.5833H28.3333C28.675 14.5833 28.9583 14.8666 28.9583 15.2083C28.9583 15.5499 28.675 15.8333 28.3333 15.8333Z" fill="white"/>
<path d="M26.041 18.1251C25.6993 18.1251 25.416 17.8417 25.416 17.5001V12.9167C25.416 12.5751 25.6993 12.2917 26.041 12.2917C26.3827 12.2917 26.666 12.5751 26.666 12.9167V17.5001C26.666 17.8417 26.3827 18.1251 26.041 18.1251Z" fill="white"/>
</svg>
