<svg width="40" height="40" viewBox="0 0 40 40" fill="none" xmlns="http://www.w3.org/2000/svg">
<circle cx="20" cy="20" r="20" fill="#E23939"/>
<path d="M22.0827 17.7083H11.666C11.3243 17.7083 11.041 17.4249 11.041 17.0833C11.041 16.7416 11.3243 16.4583 11.666 16.4583H22.0827C22.4243 16.4583 22.7077 16.7416 22.7077 17.0833C22.7077 17.4249 22.4243 17.7083 22.0827 17.7083Z" fill="white"/>
<path d="M16.6667 24.375H15C14.6583 24.375 14.375 24.0917 14.375 23.75C14.375 23.4083 14.6583 23.125 15 23.125H16.6667C17.0083 23.125 17.2917 23.4083 17.2917 23.75C17.2917 24.0917 17.0083 24.375 16.6667 24.375Z" fill="white"/>
<path d="M22.0833 24.375H18.75C18.4083 24.375 18.125 24.0917 18.125 23.75C18.125 23.4083 18.4083 23.125 18.75 23.125H22.0833C22.425 23.125 22.7083 23.4083 22.7083 23.75C22.7083 24.0917 22.425 24.375 22.0833 24.375Z" fill="white"/>
<path d="M24.6327 27.7084H15.366C12.0493 27.7084 11.041 26.7084 11.041 23.4251V16.5751C11.041 13.2917 12.0493 12.2917 15.366 12.2917H22.0827C22.4243 12.2917 22.7077 12.5751 22.7077 12.9167C22.7077 13.2584 22.4243 13.5417 22.0827 13.5417H15.366C12.7493 13.5417 12.291 13.9917 12.291 16.5751V23.4167C12.291 26.0001 12.7493 26.4501 15.366 26.4501H24.6243C27.241 26.4501 27.6994 26.0001 27.6994 23.4167V21.6834C27.6994 21.3417 27.9827 21.0584 28.3244 21.0584C28.666 21.0584 28.9494 21.3417 28.9494 21.6834V23.4167C28.9577 26.7084 27.9493 27.7084 24.6327 27.7084Z" fill="white"/>
<path d="M26.666 18.5417C26.3243 18.5417 26.041 18.2584 26.041 17.9167V12.9167C26.041 12.6667 26.191 12.4334 26.4243 12.3417C26.6577 12.25 26.9243 12.3 27.1077 12.475L28.7744 14.1417C29.016 14.3834 29.016 14.7834 28.7744 15.025C28.5327 15.2667 28.1327 15.2667 27.891 15.025L27.291 14.425V17.9167C27.291 18.2584 27.0077 18.5417 26.666 18.5417Z" fill="white"/>
<path d="M24.9999 15.2083C24.8415 15.2083 24.6832 15.15 24.5582 15.025C24.3165 14.7833 24.3165 14.3833 24.5582 14.1416L26.2249 12.475C26.4665 12.2333 26.8665 12.2333 27.1082 12.475C27.3499 12.7166 27.3499 13.1166 27.1082 13.3583L25.4415 15.025C25.3165 15.15 25.1582 15.2083 24.9999 15.2083Z" fill="white"/>
</svg>
