<svg width="32" height="32" viewBox="0 0 32 32" fill="none" xmlns="http://www.w3.org/2000/svg">
<path d="M16.3329 17.3444C16.2317 17.3444 16.1306 17.3211 16.0373 17.2666L9.16952 13.2922C8.8973 13.1288 8.79619 12.7711 8.95952 12.4911C9.12286 12.2111 9.48063 12.1177 9.76063 12.2811L16.3329 16.0844L22.8662 12.3044C23.1462 12.1411 23.504 12.2422 23.6673 12.5144C23.8306 12.7944 23.7295 13.1522 23.4573 13.3155L16.6362 17.2666C16.5351 17.3133 16.434 17.3444 16.3329 17.3444Z" fill="white"/>
<path d="M16.3333 24.391C16.0144 24.391 15.75 24.1266 15.75 23.8077V16.7533C15.75 16.4344 16.0144 16.1699 16.3333 16.1699C16.6522 16.1699 16.9167 16.4344 16.9167 16.7533V23.8077C16.9167 24.1266 16.6522 24.391 16.3333 24.391Z" fill="white"/>
<path d="M16.3332 24.6944C15.6487 24.6944 14.9721 24.5466 14.4354 24.2511L10.2821 21.9411C9.15428 21.3188 8.27539 19.8177 8.27539 18.5266V14.1322C8.27539 12.8411 9.15428 11.3477 10.2821 10.7177L14.4354 8.4155C15.5009 7.82439 17.1654 7.82439 18.2309 8.4155L22.3843 10.7255C23.5121 11.3477 24.3909 12.8488 24.3909 14.1399V18.5344C24.3909 19.8255 23.5121 21.3188 22.3843 21.9488L18.2309 24.2511C17.6943 24.5466 17.0176 24.6944 16.3332 24.6944ZM16.3332 9.13883C15.8432 9.13883 15.3609 9.23995 15.0032 9.43439L10.8498 11.7444C10.1032 12.1566 9.44206 13.2766 9.44206 14.1322V18.5266C9.44206 19.3822 10.1032 20.5022 10.8498 20.9222L15.0032 23.2322C15.7109 23.6288 16.9554 23.6288 17.6632 23.2322L21.8165 20.9222C22.5632 20.5022 23.2243 19.3899 23.2243 18.5266V14.1322C23.2243 13.2766 22.5632 12.1566 21.8165 11.7366L17.6632 9.42661C17.3054 9.23995 16.8232 9.13883 16.3332 9.13883Z" fill="white"/>
<circle cx="16" cy="16" r="16" fill="#9AA7B6"/>
<path d="M16.3332 18.021C14.6766 18.021 13.3232 16.6755 13.3232 15.011C13.3232 13.3466 14.6766 12.0088 16.3332 12.0088C17.9899 12.0088 19.3432 13.3543 19.3432 15.0188C19.3432 16.6832 17.9899 18.021 16.3332 18.021ZM16.3332 13.1755C15.3221 13.1755 14.4899 13.9999 14.4899 15.0188C14.4899 16.0377 15.3144 16.8621 16.3332 16.8621C17.3521 16.8621 18.1766 16.0377 18.1766 15.0188C18.1766 13.9999 17.3444 13.1755 16.3332 13.1755Z" fill="white"/>
<path d="M16.333 24.7022C15.1819 24.7022 14.023 24.2666 13.1208 23.4033C10.8263 21.1944 8.29076 17.6711 9.24743 13.4788C10.1108 9.6755 13.4319 7.97217 16.333 7.97217C16.333 7.97217 16.333 7.97217 16.3408 7.97217C19.2419 7.97217 22.563 9.6755 23.4263 13.4866C24.3752 17.6788 21.8396 21.1944 19.5452 23.4033C18.643 24.2666 17.4841 24.7022 16.333 24.7022ZM16.333 9.13883C14.0696 9.13883 11.1608 10.3444 10.3908 13.7355C9.55076 17.3988 11.853 20.5566 13.9374 22.5555C15.283 23.8544 17.3908 23.8544 18.7363 22.5555C20.813 20.5566 23.1152 17.3988 22.2908 13.7355C21.513 10.3444 18.5963 9.13883 16.333 9.13883Z" fill="white"/>
</svg>
