<svg width="32" height="32" viewBox="0 0 32 32" fill="none" xmlns="http://www.w3.org/2000/svg">
<circle cx="16" cy="16" r="16" fill="#6D1442"/>
<path d="M16.1199 15.715C16.0974 15.715 16.0824 15.715 16.0599 15.715C16.0224 15.7075 15.9699 15.7075 15.9249 15.715C13.7499 15.6475 12.1074 13.9375 12.1074 11.83C12.1074 9.685 13.8549 7.9375 15.9999 7.9375C18.1449 7.9375 19.8924 9.685 19.8924 11.83C19.8849 13.9375 18.2349 15.6475 16.1424 15.715C16.1349 15.715 16.1274 15.715 16.1199 15.715ZM15.9999 9.0625C14.4774 9.0625 13.2324 10.3075 13.2324 11.83C13.2324 13.33 14.4024 14.5375 15.8949 14.59C15.9324 14.5825 16.0374 14.5825 16.1349 14.59C17.6049 14.5225 18.7599 13.315 18.7674 11.83C18.7674 10.3075 17.5224 9.0625 15.9999 9.0625Z" fill="white"/>
<path d="M16.1267 23.9125C14.6567 23.9125 13.1792 23.5375 12.0617 22.7875C11.0192 22.0975 10.4492 21.1525 10.4492 20.125C10.4492 19.0975 11.0192 18.145 12.0617 17.4475C14.3117 15.955 17.9567 15.955 20.1917 17.4475C21.2267 18.1375 21.8042 19.0825 21.8042 20.11C21.8042 21.1375 21.2342 22.09 20.1917 22.7875C19.0667 23.5375 17.5967 23.9125 16.1267 23.9125ZM12.6842 18.3925C11.9642 18.8725 11.5742 19.4875 11.5742 20.1325C11.5742 20.77 11.9717 21.385 12.6842 21.8575C14.5517 23.11 17.7017 23.11 19.5692 21.8575C20.2892 21.3775 20.6792 20.7625 20.6792 20.1175C20.6792 19.48 20.2817 18.865 19.5692 18.3925C17.7017 17.1475 14.5517 17.1475 12.6842 18.3925Z" fill="white"/>
</svg>
