<svg width="32" height="32" viewBox="0 0 32 32" fill="none" xmlns="http://www.w3.org/2000/svg">
<circle cx="16" cy="16" r="16" fill="#6D1442"/>
<path d="M19.8855 22.805H12.1078C8.8022 22.805 7.72109 21.8172 7.64331 18.7372C7.64331 18.5816 7.69775 18.4261 7.80664 18.3172C7.91553 18.2083 8.06331 18.1383 8.22664 18.1383C9.40109 18.1383 10.3578 17.1738 10.3578 15.9994C10.3578 14.825 9.40109 13.8605 8.22664 13.8605C8.07109 13.8605 7.92331 13.7983 7.80664 13.6816C7.68997 13.565 7.63553 13.4172 7.64331 13.2616C7.72109 10.1816 8.8022 9.19385 12.1078 9.19385H19.8855C23.3155 9.19385 24.3578 10.2361 24.3578 13.6661V18.3327C24.3578 21.7627 23.3155 22.805 19.8855 22.805ZM8.83331 19.2505C8.96553 21.2261 9.63442 21.6383 12.1078 21.6383H19.8855C22.67 21.6383 23.1911 21.1094 23.1911 18.3327V13.6661C23.1911 10.8894 22.67 10.3605 19.8855 10.3605H12.1078C9.63442 10.3605 8.96553 10.7805 8.83331 12.7483C10.3655 13.0438 11.5244 14.3894 11.5244 15.9994C11.5244 17.6094 10.3655 18.955 8.83331 19.2505Z" fill="white"/>
<path d="M13.6634 13.0827C13.3445 13.0827 13.0801 12.8183 13.0801 12.4994V9.77718C13.0801 9.45829 13.3445 9.19385 13.6634 9.19385C13.9823 9.19385 14.2467 9.45829 14.2467 9.77718V12.4994C14.2467 12.8183 13.9823 13.0827 13.6634 13.0827Z" fill="white"/>
<path d="M13.6634 22.8049C13.3445 22.8049 13.0801 22.5405 13.0801 22.2216V19.4993C13.0801 19.1805 13.3445 18.916 13.6634 18.916C13.9823 18.916 14.2467 19.1805 14.2467 19.4993V22.2216C14.2467 22.5405 13.9823 22.8049 13.6634 22.8049Z" fill="white"/>
<path d="M16.8057 18.8382C16.6191 18.8382 16.4324 18.776 16.2769 18.6671C15.9969 18.4648 15.8569 18.1226 15.9191 17.7804L16.0824 16.8548L15.4057 16.1937C15.1569 15.9526 15.0713 15.5948 15.1724 15.2682C15.2813 14.9415 15.5613 14.7004 15.9035 14.6537L16.8369 14.5137L17.2569 13.666C17.4124 13.3548 17.7235 13.1604 18.0657 13.1604C18.4157 13.1604 18.7269 13.3548 18.8746 13.666L19.2946 14.5137L20.228 14.6537C20.5702 14.7004 20.8502 14.9415 20.9591 15.2682C21.068 15.5948 20.9746 15.9526 20.7257 16.1937L20.0491 16.8548L20.2124 17.7804C20.2746 18.1226 20.1346 18.4648 19.8546 18.6671C19.5746 18.8693 19.2091 18.8926 18.9057 18.7371L18.0735 18.3015L17.2335 18.7371C17.1013 18.8071 16.9535 18.8382 16.8057 18.8382ZM16.5957 15.7271L16.9924 16.116C17.2102 16.326 17.3035 16.6215 17.2569 16.9171L17.1635 17.4615L17.6535 17.2048C17.918 17.0648 18.2291 17.0648 18.4935 17.2048L18.9835 17.4615L18.8902 16.9171C18.8435 16.6137 18.9369 16.3182 19.1546 16.116L19.5513 15.7271L19.0069 15.6493C18.7113 15.6026 18.4546 15.416 18.3224 15.1515L18.0813 14.6537L17.8402 15.1515C17.708 15.416 17.4513 15.6026 17.1557 15.6493L16.5957 15.7271Z" fill="white"/>
</svg>
