<svg width="32" height="32" viewBox="0 0 32 32" fill="none" xmlns="http://www.w3.org/2000/svg">
<circle cx="16" cy="16" r="16" fill="#9AA7B6"/>
<path d="M19.8865 22.805H12.1087C8.80317 22.805 7.72206 21.8172 7.64428 18.7372C7.64428 18.5816 7.69873 18.4261 7.80762 18.3172C7.91651 18.2083 8.06428 18.1383 8.22762 18.1383C9.40206 18.1383 10.3587 17.1738 10.3587 15.9994C10.3587 14.825 9.40206 13.8605 8.22762 13.8605C8.07206 13.8605 7.92428 13.7983 7.80762 13.6816C7.69095 13.565 7.63651 13.4172 7.64428 13.2616C7.72206 10.1816 8.80317 9.19385 12.1087 9.19385H19.8865C23.3165 9.19385 24.3587 10.2361 24.3587 13.6661V18.3327C24.3587 21.7627 23.3165 22.805 19.8865 22.805ZM8.83428 19.2505C8.96651 21.2261 9.6354 21.6383 12.1087 21.6383H19.8865C22.671 21.6383 23.1921 21.1094 23.1921 18.3327V13.6661C23.1921 10.8894 22.671 10.3605 19.8865 10.3605H12.1087C9.6354 10.3605 8.96651 10.7805 8.83428 12.7483C10.3665 13.0438 11.5254 14.3894 11.5254 15.9994C11.5254 17.6094 10.3665 18.955 8.83428 19.2505Z" fill="white"/>
<path d="M13.6644 13.0827C13.3455 13.0827 13.0811 12.8183 13.0811 12.4994V9.77718C13.0811 9.45829 13.3455 9.19385 13.6644 9.19385C13.9833 9.19385 14.2477 9.45829 14.2477 9.77718V12.4994C14.2477 12.8183 13.9833 13.0827 13.6644 13.0827Z" fill="white"/>
<path d="M13.6644 22.8049C13.3455 22.8049 13.0811 22.5405 13.0811 22.2216V19.4993C13.0811 19.1805 13.3455 18.916 13.6644 18.916C13.9833 18.916 14.2477 19.1805 14.2477 19.4993V22.2216C14.2477 22.5405 13.9833 22.8049 13.6644 22.8049Z" fill="white"/>
<path d="M16.8067 18.8382C16.6201 18.8382 16.4334 18.776 16.2778 18.6671C15.9978 18.4648 15.8578 18.1226 15.9201 17.7804L16.0834 16.8548L15.4067 16.1937C15.1578 15.9526 15.0723 15.5948 15.1734 15.2682C15.2823 14.9415 15.5623 14.7004 15.9045 14.6537L16.8378 14.5137L17.2578 13.666C17.4134 13.3548 17.7245 13.1604 18.0667 13.1604C18.4167 13.1604 18.7278 13.3548 18.8756 13.666L19.2956 14.5137L20.2289 14.6537C20.5712 14.7004 20.8512 14.9415 20.9601 15.2682C21.0689 15.5948 20.9756 15.9526 20.7267 16.1937L20.0501 16.8548L20.2134 17.7804C20.2756 18.1226 20.1356 18.4648 19.8556 18.6671C19.5756 18.8693 19.2101 18.8926 18.9067 18.7371L18.0745 18.3015L17.2345 18.7371C17.1023 18.8071 16.9545 18.8382 16.8067 18.8382ZM16.5967 15.7271L16.9934 16.116C17.2112 16.326 17.3045 16.6215 17.2578 16.9171L17.1645 17.4615L17.6545 17.2048C17.9189 17.0648 18.2301 17.0648 18.4945 17.2048L18.9845 17.4615L18.8912 16.9171C18.8445 16.6137 18.9378 16.3182 19.1556 16.116L19.5523 15.7271L19.0078 15.6493C18.7123 15.6026 18.4556 15.416 18.3234 15.1515L18.0823 14.6537L17.8412 15.1515C17.7089 15.416 17.4523 15.6026 17.1567 15.6493L16.5967 15.7271Z" fill="white"/>
</svg>
