<svg width="32" height="32" viewBox="0 0 32 32" fill="none" xmlns="http://www.w3.org/2000/svg">
<circle cx="16" cy="16" r="16" fill="#9AA7B6"/>
<path d="M15.9969 17.0104C15.8958 17.0104 15.7947 16.9871 15.7014 16.9326L8.83359 12.9582C8.56136 12.7948 8.46025 12.4371 8.62359 12.1571C8.78692 11.8771 9.1447 11.7837 9.4247 11.9471L15.9969 15.7504L22.5303 11.9704C22.8103 11.8071 23.168 11.9082 23.3314 12.1804C23.4947 12.4604 23.3936 12.8182 23.1214 12.9815L16.3003 16.9326C16.1991 16.9793 16.098 17.0104 15.9969 17.0104Z" fill="white"/>
<path d="M15.9974 24.057C15.6785 24.057 15.4141 23.7926 15.4141 23.4737V16.4193C15.4141 16.1004 15.6785 15.8359 15.9974 15.8359C16.3163 15.8359 16.5807 16.1004 16.5807 16.4193V23.4737C16.5807 23.7926 16.3163 24.057 15.9974 24.057Z" fill="white"/>
<path d="M15.9972 24.3604C15.3128 24.3604 14.6361 24.2126 14.0995 23.9171L9.94612 21.6071C8.81834 20.9849 7.93945 19.4837 7.93945 18.1926V13.7982C7.93945 12.5071 8.81834 11.0137 9.94612 10.3837L14.0995 8.08152C15.165 7.49041 16.8295 7.49041 17.895 8.08152L22.0483 10.3915C23.1761 11.0137 24.055 12.5149 24.055 13.806V18.2004C24.055 19.4915 23.1761 20.9849 22.0483 21.6149L17.895 23.9171C17.3583 24.2126 16.6817 24.3604 15.9972 24.3604ZM15.9972 8.80485C15.5072 8.80485 15.025 8.90596 14.6672 9.10041L10.5139 11.4104C9.76723 11.8226 9.10612 12.9426 9.10612 13.7982V18.1926C9.10612 19.0482 9.76723 20.1682 10.5139 20.5882L14.6672 22.8982C15.375 23.2949 16.6195 23.2949 17.3272 22.8982L21.4806 20.5882C22.2272 20.1682 22.8883 19.056 22.8883 18.1926V13.7982C22.8883 12.9426 22.2272 11.8226 21.4806 11.4026L17.3272 9.09263C16.9695 8.90596 16.4872 8.80485 15.9972 8.80485Z" fill="white"/>
</svg>
