<svg width="32" height="32" viewBox="0 0 32 32" fill="none" xmlns="http://www.w3.org/2000/svg">
<circle cx="16" cy="16" r="16" fill="#9AA7B6"/>
<path d="M15.9975 19.6937C15.6864 19.6937 15.3753 19.6704 15.0797 19.616C13.4308 19.3748 11.9297 18.426 10.9808 17.0182C10.3197 16.0226 9.96973 14.8637 9.96973 13.666C9.96973 10.3449 12.6764 7.63818 15.9975 7.63818C19.3186 7.63818 22.0253 10.3449 22.0253 13.666C22.0253 14.8637 21.6753 16.0226 21.0142 17.0182C20.0575 18.4337 18.5564 19.3749 16.8919 19.6237C16.6197 19.6704 16.3086 19.6937 15.9975 19.6937ZM15.9975 8.80485C13.3142 8.80485 11.1364 10.9826 11.1364 13.666C11.1364 14.6382 11.4164 15.5715 11.9453 16.3649C12.7153 17.5004 13.9208 18.2626 15.2586 18.4571C15.7564 18.5426 16.2464 18.5426 16.7053 18.4571C18.0664 18.2626 19.272 17.4926 20.042 16.3571C20.5708 15.5637 20.8508 14.6304 20.8508 13.6582C20.8586 10.9826 18.6808 8.80485 15.9975 8.80485Z" fill="white"/>
<path d="M11.6964 24.236C11.5875 24.236 11.4864 24.2205 11.3775 24.1972C10.872 24.0805 10.4831 23.6916 10.3664 23.186L10.0942 22.0427C10.0786 21.9727 10.0242 21.9183 9.94641 21.8949L8.66308 21.5916C8.18086 21.4749 7.79975 21.1172 7.66753 20.6427C7.5353 20.1683 7.66753 19.6549 8.01753 19.3049L11.0509 16.2716C11.1753 16.1472 11.3464 16.0849 11.5175 16.1005C11.6886 16.116 11.8442 16.2094 11.9453 16.3571C12.7153 17.4927 13.9209 18.2627 15.2664 18.4572C15.7642 18.5427 16.2542 18.5427 16.7131 18.4572C18.0742 18.2627 19.2797 17.4927 20.0497 16.3571C20.1431 16.2094 20.3064 16.116 20.4775 16.1005C20.6486 16.0849 20.8197 16.1472 20.9442 16.2716L23.9775 19.3049C24.3275 19.6549 24.4597 20.1683 24.3275 20.6427C24.1953 21.1172 23.8064 21.4827 23.332 21.5916L22.0486 21.8949C21.9786 21.9105 21.9242 21.9649 21.9009 22.0427L21.6286 23.186C21.512 23.6916 21.1231 24.0805 20.6175 24.1972C20.112 24.3216 19.5909 24.1427 19.2642 23.746L15.9975 19.9894L12.7309 23.7538C12.4664 24.0649 12.0931 24.236 11.6964 24.236ZM11.4009 17.5783L8.84197 20.1372C8.77197 20.2072 8.77975 20.2849 8.7953 20.3316C8.80308 20.3705 8.84197 20.4483 8.9353 20.4638L10.2186 20.7672C10.7242 20.8838 11.1131 21.2727 11.2297 21.7783L11.502 22.9216C11.5253 23.0227 11.6031 23.0538 11.6497 23.0694C11.6964 23.0772 11.7742 23.0849 11.8442 23.0072L14.8231 19.5772C13.5009 19.3205 12.2875 18.6127 11.4009 17.5783ZM17.172 19.5694L20.1509 22.9916C20.2209 23.0771 20.3064 23.0771 20.3531 23.0616C20.3997 23.0538 20.4697 23.0149 20.5009 22.9138L20.7731 21.7705C20.8897 21.2649 21.2786 20.876 21.7842 20.7594L23.0675 20.4561C23.1609 20.4327 23.1997 20.3627 23.2075 20.3238C23.2231 20.2849 23.2309 20.1994 23.1609 20.1294L20.602 17.5705C19.7075 18.6049 18.502 19.3127 17.172 19.5694Z" fill="white"/>
<path d="M17.4674 16.6917C17.2652 16.6917 17.0241 16.6372 16.7363 16.4661L15.9974 16.0228L15.2585 16.4583C14.5818 16.8628 14.1385 16.6295 13.9752 16.5128C13.8118 16.3961 13.4618 16.0461 13.6407 15.2761L13.8274 14.475L13.2052 13.8994C12.863 13.5572 12.7385 13.145 12.8552 12.7717C12.9718 12.3984 13.3141 12.1339 13.7963 12.0561L14.6285 11.9161L15.0252 11.045C15.2507 10.6017 15.6007 10.3528 15.9974 10.3528C16.3941 10.3528 16.7518 10.6095 16.9696 11.0528L17.4285 11.9706L18.1985 12.0639C18.673 12.1417 19.0152 12.4061 19.1396 12.7794C19.2563 13.1528 19.1318 13.565 18.7896 13.9072L18.1441 14.5528L18.3463 15.2761C18.5252 16.0461 18.1752 16.3961 18.0118 16.5128C17.9263 16.5828 17.7396 16.6917 17.4674 16.6917ZM14.1385 13.1917L14.6752 13.7283C14.9241 13.9772 15.0485 14.3972 14.9707 14.7395L14.823 15.3617L15.4452 14.9961C15.7796 14.8017 16.2307 14.8017 16.5574 14.9961L17.1796 15.3617L17.0396 14.7395C16.9618 14.3895 17.0785 13.9772 17.3274 13.7283L17.8641 13.1917L17.1874 13.075C16.8607 13.0206 16.5341 12.7795 16.3863 12.4839L15.9974 11.7217L15.6085 12.4995C15.4685 12.7872 15.1418 13.0361 14.8152 13.0906L14.1385 13.1917Z" fill="white"/>
</svg>
