<svg width="16" height="16" viewBox="0 0 16 16" fill="none" xmlns="http://www.w3.org/2000/svg">
<path d="M13.5 1H2.5C1.8372 1.00079 1.20178 1.26444 0.73311 1.73311C0.264441 2.20178 0.000793929 2.8372 0 3.5L0 12.5C0.000793929 13.1628 0.264441 13.7982 0.73311 14.2669C1.20178 14.7356 1.8372 14.9992 2.5 15H13.5C14.1628 14.9992 14.7982 14.7356 15.2669 14.2669C15.7356 13.7982 15.9992 13.1628 16 12.5V3.5C15.9992 2.8372 15.7356 2.20178 15.2669 1.73311C14.7982 1.26444 14.1628 1.00079 13.5 1ZM6.05 8.45C6.09928 7.97633 6.28534 7.52723 6.5855 7.1575C6.68819 7.06118 6.82371 7.00757 6.9645 7.00757C7.10529 7.00757 7.24081 7.06118 7.3435 7.1575C7.44362 7.25813 7.49982 7.3943 7.49982 7.53625C7.49982 7.6782 7.44362 7.81437 7.3435 7.915C6.97361 8.21546 6.52406 8.40139 6.05 8.45ZM7.3435 10.844C7.24272 10.944 7.10649 11.0002 6.9645 11.0002C6.82251 11.0002 6.68628 10.944 6.5855 10.844C6.28518 10.4738 6.09911 10.0242 6.05 9.55C6.52407 9.59889 6.9736 9.78499 7.3435 10.0855C7.44377 10.1861 7.50007 10.3224 7.50007 10.4645C7.50007 10.6066 7.44377 10.7429 7.3435 10.8435V10.844ZM4.95 9.55C4.9007 10.0238 4.71464 10.4731 4.4145 10.843C4.36526 10.895 4.30611 10.9365 4.24054 10.9653C4.17497 10.994 4.10431 11.0093 4.03273 11.0103C3.96114 11.0113 3.89009 10.9979 3.82376 10.971C3.75743 10.944 3.69717 10.9041 3.64653 10.8535C3.5959 10.8029 3.55591 10.7426 3.52893 10.6763C3.50195 10.61 3.48853 10.539 3.48946 10.4674C3.49039 10.3958 3.50565 10.3251 3.53434 10.2595C3.56303 10.194 3.60457 10.1348 3.6565 10.0855C4.02633 9.78486 4.47589 9.59875 4.95 9.55ZM3.6565 7.1565C3.75796 7.05778 3.89394 7.00255 4.0355 7.00255C4.17706 7.00255 4.31304 7.05778 4.4145 7.1565C4.71473 7.52657 4.9008 7.97601 4.95 8.45C4.47593 8.40111 4.02641 8.21501 3.6565 7.9145C3.55623 7.81385 3.49993 7.67757 3.49993 7.5355C3.49993 7.39343 3.55623 7.25715 3.6565 7.1565ZM2.5 2H5V6.35C4.70714 6.10753 4.33435 5.98304 3.95456 6.00087C3.57477 6.01871 3.21529 6.17759 2.94644 6.44644C2.67759 6.71529 2.51871 7.07477 2.50087 7.45456C2.48304 7.83435 2.60753 8.20714 2.85 8.5H1V3.5C1 3.10218 1.15804 2.72064 1.43934 2.43934C1.72064 2.15804 2.10218 2 2.5 2ZM1 12.5V9.5H2.85C2.60597 9.79262 2.4802 10.1659 2.4974 10.5466C2.5146 10.9272 2.67352 11.2876 2.94295 11.5571C3.21237 11.8265 3.57281 11.9854 3.95344 12.0026C4.33407 12.0198 4.70738 11.894 5 11.65V14H2.5C2.10218 14 1.72064 13.842 1.43934 13.5607C1.15804 13.2794 1 12.8978 1 12.5ZM15 12.5C15 12.8978 14.842 13.2794 14.5607 13.5607C14.2794 13.842 13.8978 14 13.5 14H6V11.65C6.29286 11.8925 6.66565 12.017 7.04544 11.9991C7.42523 11.9813 7.78471 11.8224 8.05356 11.5536C8.32241 11.2847 8.48129 10.9252 8.49913 10.5454C8.51696 10.1656 8.39247 9.79286 8.15 9.5H13.5C13.6326 9.5 13.7598 9.44732 13.8536 9.35355C13.9473 9.25979 14 9.13261 14 9C14 8.86739 13.9473 8.74021 13.8536 8.64645C13.7598 8.55268 13.6326 8.5 13.5 8.5H8.15C8.39247 8.20714 8.51696 7.83435 8.49913 7.45456C8.48129 7.07477 8.32241 6.71529 8.05356 6.44644C7.78471 6.17759 7.42523 6.01871 7.04544 6.00087C6.66565 5.98304 6.29286 6.10753 6 6.35V2H13.5C13.8978 2 14.2794 2.15804 14.5607 2.43934C14.842 2.72064 15 3.10218 15 3.5V12.5Z" fill="white"/>
</svg>
