<svg width="32" height="32" viewBox="0 0 32 32" fill="none" xmlns="http://www.w3.org/2000/svg">
<circle cx="16" cy="16" r="16" fill="#9AA7B6"/>
<path d="M20.4621 24.3604H11.5332C9.5965 24.3604 8.02539 22.7892 8.02539 20.8526V15.6181C8.02539 13.6815 9.5965 12.1104 11.5332 12.1104H20.4621C22.3987 12.1104 23.9698 13.6815 23.9698 15.6181V16.7381C23.9698 17.057 23.7054 17.3215 23.3865 17.3215H21.8154C21.5432 17.3215 21.2943 17.4226 21.1154 17.6092L21.1076 17.617C20.8898 17.827 20.7887 18.1148 20.8121 18.4103C20.8587 18.9237 21.3487 19.3359 21.9087 19.3359H23.3865C23.7054 19.3359 23.9698 19.6003 23.9698 19.9192V20.8448C23.9698 22.7892 22.3987 24.3604 20.4621 24.3604ZM11.5332 13.277C10.2421 13.277 9.19206 14.327 9.19206 15.6181V20.8526C9.19206 22.1437 10.2421 23.1937 11.5332 23.1937H20.4621C21.7532 23.1937 22.8032 22.1437 22.8032 20.8526V20.5103H21.9087C20.7343 20.5103 19.7387 19.6392 19.6454 18.5192C19.5832 17.8815 19.8165 17.2515 20.2832 16.7926C20.6876 16.3804 21.2321 16.1548 21.8154 16.1548H22.8032V15.6181C22.8032 14.327 21.7532 13.277 20.4621 13.277H11.5332Z" fill="white"/>
<path d="M8.60872 16.9017C8.28984 16.9017 8.02539 16.6372 8.02539 16.3184V12.7639C8.02539 11.6051 8.7565 10.555 9.83761 10.1428L16.0132 7.80946C16.6509 7.56835 17.3587 7.65394 17.9109 8.04283C18.4709 8.43172 18.7976 9.06172 18.7976 9.73838V12.6939C18.7976 13.0128 18.5332 13.2773 18.2143 13.2773C17.8954 13.2773 17.6309 13.0128 17.6309 12.6939V9.73838C17.6309 9.44283 17.4909 9.1706 17.2421 8.99948C16.9932 8.82837 16.6976 8.78948 16.4176 8.89837L10.2421 11.2317C9.61206 11.4728 9.18428 12.0873 9.18428 12.7639V16.3184C9.19206 16.645 8.92761 16.9017 8.60872 16.9017Z" fill="white"/>
<path d="M21.909 20.5103C20.7345 20.5103 19.739 19.6392 19.6456 18.5192C19.5834 17.8737 19.8168 17.2437 20.2834 16.7848C20.6801 16.3803 21.2245 16.1548 21.8079 16.1548H23.4256C24.1956 16.1781 24.7867 16.7848 24.7867 17.5314V19.1337C24.7867 19.8804 24.1956 20.487 23.449 20.5103H21.909ZM23.4101 17.3215H21.8156C21.5434 17.3215 21.2945 17.4226 21.1156 17.6092C20.8901 17.827 20.7812 18.1225 20.8123 18.4181C20.859 18.9314 21.349 19.3437 21.909 19.3437H23.4334C23.5345 19.3437 23.6279 19.2504 23.6279 19.1337V17.5314C23.6279 17.4148 23.5345 17.3292 23.4101 17.3215Z" fill="white"/>
<path d="M17.5532 16.5827H12.1087C11.7898 16.5827 11.5254 16.3182 11.5254 15.9993C11.5254 15.6805 11.7898 15.416 12.1087 15.416H17.5532C17.8721 15.416 18.1365 15.6805 18.1365 15.9993C18.1365 16.3182 17.8721 16.5827 17.5532 16.5827Z" fill="white"/>
</svg>
