<svg width="16" height="16" viewBox="0 0 16 16" fill="none" xmlns="http://www.w3.org/2000/svg">
<path d="M9.00065 6.16675H1.33398C1.06065 6.16675 0.833984 5.94008 0.833984 5.66675C0.833984 5.39341 1.06065 5.16675 1.33398 5.16675H9.00065C9.27398 5.16675 9.50065 5.39341 9.50065 5.66675C9.50065 5.94008 9.27398 6.16675 9.00065 6.16675Z" fill="#60130C"/>
<path d="M5.33333 11.5H4C3.72667 11.5 3.5 11.2733 3.5 11C3.5 10.7267 3.72667 10.5 4 10.5H5.33333C5.60667 10.5 5.83333 10.7267 5.83333 11C5.83333 11.2733 5.60667 11.5 5.33333 11.5Z" fill="#60130C"/>
<path d="M9.66667 11.5H7C6.72667 11.5 6.5 11.2733 6.5 11C6.5 10.7267 6.72667 10.5 7 10.5H9.66667C9.94 10.5 10.1667 10.7267 10.1667 11C10.1667 11.2733 9.94 11.5 9.66667 11.5Z" fill="#60130C"/>
<path d="M11.7073 14.1666H4.29398C1.64065 14.1666 0.833984 13.3666 0.833984 10.7399V5.25992C0.833984 2.63325 1.64065 1.83325 4.29398 1.83325H9.00065C9.27398 1.83325 9.50065 2.05992 9.50065 2.33325C9.50065 2.60659 9.27398 2.83325 9.00065 2.83325H4.29398C2.20065 2.83325 1.83398 3.19325 1.83398 5.25992V10.7333C1.83398 12.7999 2.20065 13.1599 4.29398 13.1599H11.7007C13.794 13.1599 14.1607 12.7999 14.1607 10.7333V8.01325C14.1607 7.73992 14.3873 7.51325 14.6607 7.51325C14.934 7.51325 15.1607 7.73992 15.1607 8.01325V10.7333C15.1673 13.3666 14.3607 14.1666 11.7073 14.1666Z" fill="#60130C"/>
<path d="M14.6667 4.66675H11C10.7267 4.66675 10.5 4.44008 10.5 4.16675C10.5 3.89341 10.7267 3.66675 11 3.66675H14.6667C14.94 3.66675 15.1667 3.89341 15.1667 4.16675C15.1667 4.44008 14.94 4.66675 14.6667 4.66675Z" fill="#60130C"/>
<path d="M12.834 6.49992C12.5607 6.49992 12.334 6.27325 12.334 5.99992V2.33325C12.334 2.05992 12.5607 1.83325 12.834 1.83325C13.1073 1.83325 13.334 2.05992 13.334 2.33325V5.99992C13.334 6.27325 13.1073 6.49992 12.834 6.49992Z" fill="#60130C"/>
</svg>
