<svg width="16" height="16" viewBox="0 0 16 16" fill="none" xmlns="http://www.w3.org/2000/svg">
<path d="M5.78951 16.0001C3.40823 15.9864 1.43848 11.1254 1.43848 8.64978C1.43848 4.6059 4.47207 3.72059 5.64119 3.72059C6.16807 3.72059 6.73066 3.9275 7.22688 4.11059C7.57388 4.23831 7.93276 4.37015 8.13235 4.37015C8.25182 4.37015 8.53335 4.258 8.78191 4.15959C9.31201 3.94856 9.97163 3.68628 10.7398 3.68628C10.7411 3.68628 10.743 3.68628 10.7443 3.68628C11.3179 3.68628 13.0569 3.81215 14.1025 5.38228L14.3474 5.75031L13.9949 6.01628C13.4914 6.39622 12.5726 7.08928 12.5726 8.46212C12.5726 10.0881 13.6131 10.7134 14.113 11.0142C14.3337 11.1469 14.5621 11.2838 14.5621 11.5831C14.5621 11.7786 13.002 15.9758 10.7365 15.9758C10.1822 15.9758 9.79035 15.8092 9.44473 15.6623C9.09501 15.5135 8.79332 15.3853 8.29482 15.3853C8.04213 15.3853 7.7226 15.5048 7.38432 15.6316C6.92204 15.8041 6.39879 16.0001 5.80507 16.0001H5.78951Z" fill="#6A0000"/>
<path d="M10.9795 0C11.0385 2.12737 9.51712 3.60325 7.9975 3.51069C7.74709 1.81297 9.51693 0 10.9795 0Z" fill="#6A0000"/>
</svg>
