<svg width="16" height="16" viewBox="0 0 16 16" fill="none" xmlns="http://www.w3.org/2000/svg">
<path d="M10.0005 15.1667C9.82045 15.1667 9.65379 15.0667 9.56712 14.9133C9.48045 14.76 9.48045 14.5667 9.57378 14.4133L10.2738 13.2467C10.4138 13.0067 10.7205 12.9333 10.9605 13.0733C11.2005 13.2133 11.2738 13.52 11.1338 13.76L10.9538 14.06C12.7938 13.6267 14.1738 11.9733 14.1738 10C14.1738 9.72667 14.4004 9.5 14.6738 9.5C14.9471 9.5 15.1738 9.72667 15.1738 10C15.1671 12.8467 12.8471 15.1667 10.0005 15.1667Z" fill="#EE8E1E"/>
<path d="M1.33301 6.49992C1.05967 6.49992 0.833008 6.27325 0.833008 5.99992C0.833008 3.15325 3.15301 0.833252 5.99967 0.833252C6.17967 0.833252 6.34634 0.933255 6.433 1.08659C6.51967 1.23992 6.51967 1.43326 6.42634 1.58659L5.72634 2.75326C5.58634 2.99326 5.27967 3.06659 5.03967 2.92659C4.79967 2.78659 4.72634 2.47991 4.86634 2.23991L5.04635 1.9399C3.20635 2.37323 1.82634 4.02659 1.82634 5.99992C1.83301 6.27325 1.60634 6.49992 1.33301 6.49992Z" fill="#EE8E1E"/>
<path d="M11.7866 4.99992C11.6999 4.99992 11.6133 4.97993 11.5333 4.93327L8.88659 3.3999C8.64659 3.2599 8.56658 2.95325 8.70658 2.71325C8.84658 2.47325 9.15325 2.39324 9.38659 2.53324L11.7866 3.91992L14.1666 2.53991C14.4066 2.39991 14.7133 2.48659 14.8466 2.71993C14.9866 2.95993 14.8999 3.26657 14.6666 3.40657L12.0333 4.92659C11.9599 4.97326 11.8732 4.99992 11.7866 4.99992Z" fill="#EE8E1E"/>
<path d="M11.7871 7.71318C11.5138 7.71318 11.2871 7.48651 11.2871 7.21318V4.49316C11.2871 4.21983 11.5138 3.99316 11.7871 3.99316C12.0604 3.99316 12.2871 4.21983 12.2871 4.49316V7.21318C12.2871 7.49318 12.0604 7.71318 11.7871 7.71318Z" fill="#EE8E1E"/>
<path d="M11.7862 7.83321C11.4796 7.83321 11.1663 7.76655 10.9196 7.62655L9.31958 6.73987C8.79958 6.4532 8.40625 5.7799 8.40625 5.18657V3.49321C8.40625 2.89321 8.79959 2.22656 9.32625 1.93323L10.9262 1.04655C11.4196 0.773219 12.1596 0.773219 12.6596 1.04655L14.2596 1.93323C14.7796 2.2199 15.1729 2.8932 15.1729 3.48653V5.17989C15.1729 5.77989 14.7796 6.44653 14.2596 6.7332L12.6596 7.61988C12.3996 7.76654 12.0929 7.83321 11.7862 7.83321ZM11.4062 1.91321L9.80625 2.79989C9.60625 2.91322 9.40625 3.25319 9.40625 3.47986V5.17322C9.40625 5.40655 9.60625 5.74657 9.80625 5.85323L11.4062 6.74654C11.5996 6.85321 11.9729 6.85321 12.1662 6.74654L13.7662 5.85987C13.9662 5.74653 14.1662 5.40656 14.1662 5.17989V3.48653C14.1662 3.2532 13.9662 2.91323 13.7662 2.80656L12.1662 1.91988C11.9729 1.80655 11.5929 1.80654 11.4062 1.91321Z" fill="#EE8E1E"/>
<path d="M4.21335 12.3332C4.12668 12.3332 4.04001 12.3132 3.96001 12.2665L1.31334 10.7332C1.07334 10.5932 0.993341 10.2865 1.13334 10.0465C1.27334 9.80651 1.58001 9.72649 1.81334 9.86649L4.21335 11.2532L6.59334 9.87317C6.83334 9.73317 7.14001 9.81985 7.27335 10.0532C7.41335 10.2932 7.32668 10.5998 7.09334 10.7398L4.46001 12.2598C4.38668 12.3065 4.30001 12.3332 4.21335 12.3332Z" fill="#EE8E1E"/>
<path d="M4.21289 15.0467C3.93956 15.0467 3.71289 14.82 3.71289 14.5467V11.8267C3.71289 11.5533 3.93956 11.3267 4.21289 11.3267C4.48622 11.3267 4.71289 11.5533 4.71289 11.8267V14.5467C4.71289 14.8267 4.49289 15.0467 4.21289 15.0467Z" fill="#EE8E1E"/>
<path d="M4.21301 15.1666C3.90635 15.1666 3.59301 15.1 3.34634 14.96L1.74634 14.0733C1.22634 13.7866 0.833008 13.1133 0.833008 12.52V10.8266C0.833008 10.2266 1.22634 9.55994 1.74634 9.27328L3.34634 8.38664C3.83968 8.11331 4.58634 8.11331 5.07967 8.38664L6.67968 9.27328C7.19968 9.55994 7.59301 10.2333 7.59301 10.8266V12.52C7.59301 13.12 7.19967 13.7866 6.673 14.08L5.07301 14.9666C4.83301 15.1 4.52635 15.1666 4.21301 15.1666ZM3.83301 9.24663L2.23301 10.1333C2.03301 10.2466 1.83301 10.5866 1.83301 10.8133V12.5066C1.83301 12.74 2.03301 13.08 2.23301 13.1866L3.83301 14.0733C4.02634 14.18 4.39967 14.18 4.59301 14.0733L6.193 13.1866C6.393 13.0733 6.59301 12.7333 6.59301 12.5066V10.8133C6.59301 10.5799 6.393 10.24 6.193 10.1333L4.59301 9.23995C4.40634 9.13995 4.02634 9.13996 3.83301 9.24663Z" fill="#EE8E1E"/>
</svg>
