<svg width="16" height="16" viewBox="0 0 16 16" fill="none" xmlns="http://www.w3.org/2000/svg">
<path d="M10.2596 3.47335L11.1996 5.35335C11.3263 5.61335 11.6663 5.86002 11.953 5.91335L13.653 6.19336C14.7396 6.37336 14.993 7.16002 14.213 7.94669L12.8863 9.27336C12.6663 9.49336 12.5396 9.92669 12.613 10.24L12.993 11.88C13.293 13.1734 12.5996 13.68 11.4596 13L9.8663 12.0534C9.57964 11.88 9.09964 11.88 8.81297 12.0534L7.21964 13C6.07964 13.6734 5.3863 13.1734 5.6863 11.88L6.0663 10.24C6.1263 9.92002 5.99964 9.48669 5.77964 9.26669L4.45297 7.94002C3.67297 7.16002 3.9263 6.37335 5.01297 6.18669L6.71297 5.90669C6.99964 5.86002 7.33964 5.60669 7.4663 5.34669L8.4063 3.46669C8.91964 2.45335 9.7463 2.45335 10.2596 3.47335Z" fill="#121212"/>
<path d="M5.33301 3.83325H1.33301C1.05967 3.83325 0.833008 3.60659 0.833008 3.33325C0.833008 3.05992 1.05967 2.83325 1.33301 2.83325H5.33301C5.60634 2.83325 5.83301 3.05992 5.83301 3.33325C5.83301 3.60659 5.60634 3.83325 5.33301 3.83325Z" fill="#121212"/>
<path d="M3.33301 13.1667H1.33301C1.05967 13.1667 0.833008 12.9401 0.833008 12.6667C0.833008 12.3934 1.05967 12.1667 1.33301 12.1667H3.33301C3.60634 12.1667 3.83301 12.3934 3.83301 12.6667C3.83301 12.9401 3.60634 13.1667 3.33301 13.1667Z" fill="#121212"/>
<path d="M1.99967 8.5H1.33301C1.05967 8.5 0.833008 8.27333 0.833008 8C0.833008 7.72667 1.05967 7.5 1.33301 7.5H1.99967C2.27301 7.5 2.49967 7.72667 2.49967 8C2.49967 8.27333 2.27301 8.5 1.99967 8.5Z" fill="#121212"/>
</svg>
