<svg width="16" height="16" viewBox="0 0 16 16" fill="none" xmlns="http://www.w3.org/2000/svg">
<path d="M12.947 7.83325H10.667C10.3937 7.83325 10.167 7.60659 10.167 7.33325V2.67325C10.167 2.17992 10.3603 1.71992 10.707 1.37325C11.0537 1.02659 11.5137 0.833252 12.007 0.833252H12.0137C12.847 0.839919 13.6337 1.16658 14.2337 1.75992C14.8337 2.36658 15.1603 3.16659 15.1603 3.99992V5.61325C15.167 6.93992 14.2737 7.83325 12.947 7.83325ZM11.167 6.83325H12.947C13.7203 6.83325 14.167 6.38658 14.167 5.61325V3.99992C14.167 3.42659 13.9403 2.87992 13.5337 2.46659C13.127 2.06659 12.5803 1.83992 12.0137 1.83325C12.0137 1.83325 12.0137 1.83325 12.007 1.83325C11.787 1.83325 11.5737 1.91992 11.4137 2.07992C11.2537 2.23992 11.167 2.44658 11.167 2.67325V6.83325Z" fill="#121212"/>
<path d="M5.99984 15.5533C5.68651 15.5533 5.39318 15.4333 5.17318 15.2066L4.06651 14.0933C4.00651 14.0333 3.91317 14.0266 3.84651 14.0799L2.70651 14.9333C2.35317 15.1999 1.88651 15.2466 1.48651 15.0466C1.08651 14.8466 0.839844 14.4466 0.839844 13.9999V3.99992C0.839844 1.98659 1.99318 0.833252 4.00651 0.833252H12.0065C12.2798 0.833252 12.5065 1.05992 12.5065 1.33325C12.5065 1.60659 12.2798 1.83325 12.0065 1.83325C11.5465 1.83325 11.1732 2.20659 11.1732 2.66659V13.9999C11.1732 14.4466 10.9265 14.8466 10.5265 15.0466C10.1265 15.2466 9.65984 15.2066 9.30651 14.9399L8.16651 14.0866C8.09984 14.0333 8.00651 14.0466 7.95318 14.0999L6.83318 15.2199C6.60651 15.4333 6.31318 15.5533 5.99984 15.5533ZM3.93984 13.0466C4.24651 13.0466 4.54651 13.1599 4.77318 13.3932L5.87984 14.5066C5.91984 14.5466 5.97318 14.5533 5.99984 14.5533C5.99318 14.5399 6.07984 14.5466 6.11984 14.5066L7.23984 13.3866C7.65318 12.9733 8.30651 12.9333 8.76651 13.2866L9.89984 14.1333C9.97318 14.1866 10.0398 14.1666 10.0732 14.1466C10.1065 14.1266 10.1665 14.0866 10.1665 13.9999V2.66659C10.1665 2.36659 10.2398 2.07992 10.3665 1.83325H3.99984C2.51984 1.83325 1.83318 2.51992 1.83318 3.99992V13.9999C1.83318 14.0933 1.89318 14.1333 1.92651 14.1533C1.96651 14.1733 2.03318 14.1866 2.09984 14.1333L3.23984 13.2799C3.44651 13.1266 3.69318 13.0466 3.93984 13.0466Z" fill="#121212"/>
<path d="M7.83366 7.16675H4.16699C3.89366 7.16675 3.66699 6.94008 3.66699 6.66675C3.66699 6.39341 3.89366 6.16675 4.16699 6.16675H7.83366C8.10699 6.16675 8.33366 6.39341 8.33366 6.66675C8.33366 6.94008 8.10699 7.16675 7.83366 7.16675Z" fill="#121212"/>
</svg>
