<svg width="32" height="32" viewBox="0 0 32 32" fill="none" xmlns="http://www.w3.org/2000/svg">
<g opacity="0.5">
<path d="M16 32C24.8366 32 32 24.8366 32 16C32 7.16344 24.8366 0 16 0C7.16344 0 0 7.16344 0 16C0 24.8366 7.16344 32 16 32Z" fill="white" fill-opacity="0.39"/>
</g>
<path d="M15.9997 25.1431C21.0491 25.1431 25.1425 21.0497 25.1425 16.0003C25.1425 10.9508 21.0491 6.85742 15.9997 6.85742C10.9502 6.85742 6.85681 10.9508 6.85681 16.0003C6.85681 21.0497 10.9502 25.1431 15.9997 25.1431Z" fill="white" fill-opacity="0.27"/>
<path d="M15.9998 12.251C14.7799 12.251 14.6354 12.2544 14.1537 12.279C13.8642 12.2821 13.5775 12.3357 13.3064 12.4372C13.1085 12.5112 12.9295 12.6283 12.7825 12.7801C12.6299 12.9264 12.5127 13.1056 12.4396 13.304C12.3389 13.5753 12.2854 13.8619 12.2814 14.1513C12.2602 14.633 12.2534 14.7798 12.2534 15.9974C12.2534 17.2149 12.2568 17.3618 12.2814 17.8434C12.2845 18.1329 12.3381 18.4196 12.4396 18.6907C12.5145 18.8892 12.6314 19.0692 12.7825 19.2181C12.9292 19.3702 13.1083 19.4874 13.3064 19.5609C13.5777 19.6617 13.8643 19.7152 14.1537 19.7192C14.6354 19.7403 14.7822 19.7472 15.9998 19.7472C17.2173 19.7472 17.3642 19.7437 17.8458 19.7192C18.1353 19.716 18.422 19.6625 18.6931 19.5609C18.8916 19.4861 19.0716 19.3691 19.2205 19.2181C19.3727 19.0701 19.4898 18.8899 19.5633 18.6907C19.6641 18.4194 19.7176 18.1328 19.7216 17.8434C19.7427 17.3618 19.7496 17.2149 19.7496 15.9974C19.7496 14.7798 19.7462 14.633 19.7216 14.1513C19.7184 13.8618 19.6649 13.5751 19.5633 13.304C19.4893 13.1061 19.3722 12.9271 19.2205 12.7801C19.0734 12.6267 18.893 12.5094 18.6931 12.4372C18.4218 12.3365 18.1352 12.283 17.8458 12.279C17.3642 12.2578 17.2173 12.251 15.9998 12.251ZM15.9998 11.4282C17.2408 11.4282 17.3956 11.4351 17.8852 11.4562C18.2649 11.4633 18.6407 11.5346 18.9965 11.667C19.3015 11.7813 19.5775 11.9614 19.805 12.1944C20.0373 12.4225 20.2172 12.6984 20.3324 13.0029C20.4652 13.3587 20.5365 13.7345 20.5432 14.1142C20.5643 14.6027 20.5712 14.7575 20.5712 15.9997C20.5712 17.2418 20.5678 17.3955 20.5432 17.8851C20.5361 18.2648 20.4648 18.6405 20.3324 18.9964C20.2146 19.2996 20.0351 19.575 19.8051 19.805C19.5751 20.035 19.2997 20.2145 18.9965 20.3323C18.6407 20.4651 18.265 20.5363 17.8852 20.5431C17.3967 20.5642 17.2419 20.5711 15.9998 20.5711C14.7576 20.5711 14.6039 20.5677 14.1143 20.5431C13.7346 20.536 13.3589 20.4647 13.003 20.3323C12.6981 20.218 12.422 20.0379 12.1945 19.8049C11.9623 19.5768 11.7823 19.3009 11.6672 18.9964C11.5344 18.6406 11.4631 18.2648 11.4563 17.8851C11.4352 17.3966 11.4283 17.2418 11.4283 15.9997C11.4283 14.7575 11.4318 14.6038 11.4563 14.1142C11.4634 13.7345 11.5347 13.3588 11.6672 13.0029C11.7849 12.6997 11.9645 12.4243 12.1945 12.1943C12.4244 11.9644 12.6998 11.7848 13.003 11.667C13.3588 11.5342 13.7346 11.463 14.1143 11.4562C14.6028 11.4351 14.7576 11.4282 15.9998 11.4282Z" fill="white"/>
<path d="M15.9996 13.6978C16.4556 13.6978 16.9013 13.833 17.2805 14.0863C17.6596 14.3396 17.9551 14.6997 18.1296 15.1209C18.3041 15.5422 18.3497 16.0057 18.2608 16.453C18.1718 16.9002 17.9522 17.3109 17.6298 17.6334C17.3074 17.9558 16.8966 18.1754 16.4494 18.2643C16.0022 18.3533 15.5387 18.3076 15.1174 18.1331C14.6961 17.9586 14.3361 17.6631 14.0827 17.284C13.8294 16.9049 13.6942 16.4592 13.6942 16.0032C13.6941 15.7004 13.7537 15.4006 13.8696 15.1208C13.9854 14.8411 14.1552 14.5869 14.3693 14.3728C14.5834 14.1587 14.8376 13.9889 15.1173 13.8731C15.397 13.7573 15.6969 13.6977 15.9996 13.6978ZM15.9996 17.4973C16.2951 17.4973 16.584 17.4097 16.8297 17.2455C17.0754 17.0813 17.2669 16.848 17.38 16.575C17.4931 16.3019 17.5227 16.0015 17.465 15.7117C17.4074 15.4219 17.2651 15.1557 17.0561 14.9467C16.8472 14.7378 16.581 14.5954 16.2911 14.5378C16.0013 14.4801 15.7009 14.5097 15.4279 14.6228C15.1549 14.7359 14.9215 14.9274 14.7573 15.1731C14.5932 15.4188 14.5055 15.7077 14.5055 16.0032C14.5057 16.3994 14.6632 16.7794 14.9433 17.0595C15.2235 17.3397 15.6034 17.4971 15.9996 17.4973Z" fill="white"/>
<path d="M13.0071 13.5657C13.0071 13.6763 13.0399 13.7845 13.1014 13.8765C13.1628 13.9684 13.2502 14.0402 13.3524 14.0825C13.4546 14.1248 13.5671 14.1359 13.6756 14.1143C13.7841 14.0927 13.8837 14.0395 13.962 13.9612C14.0402 13.883 14.0935 13.7833 14.115 13.6748C14.1366 13.5663 14.1256 13.4539 14.0832 13.3516C14.0409 13.2494 13.9692 13.1621 13.8772 13.1006C13.7852 13.0391 13.6771 13.0063 13.5664 13.0063C13.4181 13.0065 13.2759 13.0655 13.1711 13.1704C13.0662 13.2752 13.0072 13.4174 13.0071 13.5657Z" fill="white"/>
</svg>
