<svg width="32" height="32" viewBox="0 0 32 32" fill="none" xmlns="http://www.w3.org/2000/svg">
<g opacity="0.5">
<path d="M16 32C24.8366 32 32 24.8366 32 16C32 7.16344 24.8366 0 16 0C7.16344 0 0 7.16344 0 16C0 24.8366 7.16344 32 16 32Z" fill="white" fill-opacity="0.39"/>
</g>
<path d="M15.9997 25.1431C21.0491 25.1431 25.1425 21.0497 25.1425 16.0003C25.1425 10.9508 21.0491 6.85742 15.9997 6.85742C10.9502 6.85742 6.85681 10.9508 6.85681 16.0003C6.85681 21.0497 10.9502 25.1431 15.9997 25.1431Z" fill="white" fill-opacity="0.27"/>
<path d="M14.7529 21.7121H16.7467V15.9478H18.1374L18.2857 14.0192H16.7467V12.9192C16.7467 12.4649 16.8258 12.2856 17.2059 12.2856H18.2825V10.2856H16.8993C15.4152 10.2856 14.7491 11.0392 14.7491 12.4821V14.0206H13.7142V15.9742H14.7498V21.7142L14.7529 21.7121Z" fill="white"/>
</svg>
