<svg width="32" height="32" viewBox="0 0 32 32" fill="none" xmlns="http://www.w3.org/2000/svg">
<g opacity="0.5">
<path d="M16 32C24.8366 32 32 24.8366 32 16C32 7.16344 24.8366 0 16 0C7.16344 0 0 7.16344 0 16C0 24.8366 7.16344 32 16 32Z" fill="white" fill-opacity="0.39"/>
</g>
<path d="M15.9997 25.1431C21.0491 25.1431 25.1425 21.0497 25.1425 16.0003C25.1425 10.9508 21.0491 6.85742 15.9997 6.85742C10.9502 6.85742 6.85681 10.9508 6.85681 16.0003C6.85681 21.0497 10.9502 25.1431 15.9997 25.1431Z" fill="white" fill-opacity="0.27"/>
<path d="M20.5712 18.5202C19.728 19.1095 18.7245 19.4264 17.6958 19.4282C14.2129 19.4282 12.2489 16.2602 12.3649 13.4196C11.994 13.1289 11.677 12.7754 11.4283 12.3751C11.7688 12.5369 12.1324 12.6447 12.5061 12.6945C12.1072 12.4314 11.8149 12.035 11.6815 11.5762C12.0454 11.81 12.4484 11.9762 12.8712 12.0671C13.0397 11.8686 13.2491 11.7088 13.4849 11.5985C13.7208 11.4883 13.9777 11.4302 14.2381 11.4282C14.5329 11.4427 14.8207 11.5227 15.0808 11.6623C15.3409 11.8018 15.5667 11.9975 15.7417 12.2352C15.9168 12.4728 16.0368 12.7465 16.093 13.0362C16.1492 13.326 16.1402 13.6246 16.0666 13.9105C16.8264 13.8618 17.5662 13.6472 18.2342 13.2819C18.9021 12.9167 19.4819 12.4096 19.9329 11.7962C20.1738 12.2409 20.2479 12.757 20.1418 13.2515C20.0356 13.7459 19.7562 14.1862 19.3541 14.4928C19.6542 14.4816 19.9465 14.3945 20.2038 14.2396C20.2203 14.6958 20.08 15.1438 19.8062 15.509C19.5324 15.8742 19.1417 16.1345 18.6992 16.2465C18.9743 16.3266 19.2647 16.3386 19.5455 16.2814C19.4407 16.6708 19.2145 17.0168 18.8998 17.2691C18.5851 17.5213 18.1982 17.6667 17.7952 17.6842C18.1741 18.0094 18.6167 18.2518 19.0948 18.3957C19.5729 18.5397 20.0758 18.5821 20.5712 18.5202Z" fill="white"/>
</svg>
