<svg width="32" height="32" viewBox="0 0 32 32" fill="none" xmlns="http://www.w3.org/2000/svg">
<g opacity="0.5">
<path d="M16 32C24.8366 32 32 24.8366 32 16C32 7.16344 24.8366 0 16 0C7.16344 0 0 7.16344 0 16C0 24.8366 7.16344 32 16 32Z" fill="white" fill-opacity="0.39"/>
</g>
<path d="M15.9997 25.1431C21.0491 25.1431 25.1425 21.0497 25.1425 16.0003C25.1425 10.9508 21.0491 6.85742 15.9997 6.85742C10.9502 6.85742 6.85681 10.9508 6.85681 16.0003C6.85681 21.0497 10.9502 25.1431 15.9997 25.1431Z" fill="white" fill-opacity="0.27"/>
<path fill-rule="evenodd" clip-rule="evenodd" d="M11.4312 15.7731C11.4686 14.615 11.9522 13.5162 12.781 12.7065C13.6098 11.8968 14.7196 11.4388 15.8783 11.4284C17.0369 11.418 18.1547 11.8559 18.9979 12.6506C19.8411 13.4453 20.3444 14.5353 20.4026 15.6925C20.4061 15.7594 20.4061 15.8222 20.4061 15.8891C20.4067 16.7004 20.1841 17.4964 19.7626 18.1897L20.5712 20.5776L18.0861 19.7874C17.4047 20.1616 16.638 20.3527 15.8608 20.342C15.0835 20.3313 14.3223 20.1193 13.6515 19.7265C12.9808 19.3337 12.4233 18.7737 12.0336 18.1011C11.644 17.4285 11.4354 16.6664 11.4283 15.8891C11.4312 15.8468 11.4312 15.8074 11.4312 15.7731ZM15.9198 19.6257C16.6578 19.6262 17.3799 19.4113 17.9975 19.0074L19.4495 19.4708L18.9786 18.0799C19.446 17.4437 19.6973 16.6745 19.6958 15.8851C19.6958 15.7622 19.6889 15.6428 19.678 15.5234C19.5789 14.5903 19.1359 13.7275 18.4353 13.1033C17.7347 12.479 16.8267 12.1381 15.8884 12.1468C14.9501 12.1556 14.0487 12.5135 13.3599 13.1507C12.6711 13.788 12.2443 14.6589 12.1626 15.5937C12.1558 15.6919 12.1483 15.7868 12.1483 15.8851C12.1503 16.3784 12.2494 16.8665 12.44 17.3215C12.6307 17.7765 12.9091 18.1895 13.2594 18.5368C13.6097 18.8842 14.025 19.1591 14.4815 19.346C14.9381 19.5328 15.427 19.6278 15.9203 19.6257H15.9198Z" fill="white"/>
<path fill-rule="evenodd" clip-rule="evenodd" d="M13.6962 16.8686C13.8185 16.8074 14.4042 16.5206 14.515 16.4823C14.6259 16.444 14.7065 16.4212 14.7865 16.5434C14.8665 16.6657 15.0962 16.9297 15.1653 17.0063C15.2345 17.0829 15.303 17.0943 15.4253 17.0372C15.7778 16.8971 16.1039 16.6978 16.3893 16.448C16.6512 16.2087 16.8757 15.9313 17.055 15.6252C17.1236 15.5063 17.0625 15.4417 17.0013 15.384C16.9402 15.3263 16.8825 15.2463 16.8213 15.1772C16.806 15.159 16.7919 15.14 16.779 15.12C16.7503 15.0746 16.7247 15.0272 16.7025 14.9783C16.6863 14.9459 16.6786 14.9101 16.6799 14.8739C16.6812 14.8378 16.6915 14.8026 16.7099 14.7714C16.7408 14.7103 16.9813 14.1246 17.0813 13.8874C17.1813 13.6503 17.2802 13.6926 17.3528 13.6926C17.4253 13.6926 17.5019 13.6812 17.5813 13.6812C17.6423 13.6828 17.7022 13.6969 17.7575 13.7226C17.8129 13.7482 17.8624 13.7849 17.903 13.8303C18.0381 13.957 18.145 14.1107 18.2169 14.2814C18.2888 14.4521 18.3239 14.636 18.3202 14.8211C18.3173 14.9585 18.2967 15.0948 18.259 15.2269C18.1647 15.5238 18.0197 15.8022 17.8305 16.0497C17.331 16.8277 16.6229 17.4496 15.787 17.8446C14.5665 18.3189 14.5665 18.1583 14.3482 18.1394C14.1813 18.1074 14.023 18.0404 13.8838 17.9428C13.7447 17.8452 13.6277 17.7192 13.5407 17.5732C13.464 17.3949 13.4389 17.1987 13.4682 17.0069C13.4973 16.9566 13.5733 16.9257 13.6962 16.8686Z" fill="white"/>
</svg>
