<svg width="32" height="32" viewBox="0 0 32 32" fill="none" xmlns="http://www.w3.org/2000/svg">
<g opacity="0.5">
<path d="M16 32C24.8366 32 32 24.8366 32 16C32 7.16344 24.8366 0 16 0C7.16344 0 0 7.16344 0 16C0 24.8366 7.16344 32 16 32Z" fill="white" fill-opacity="0.39"/>
</g>
<path d="M16.1429 25.2857C21.1923 25.2857 25.2857 21.1923 25.2857 16.1429C25.2857 11.0934 21.1923 7 16.1429 7C11.0934 7 7 11.0934 7 16.1429C7 21.1923 11.0934 25.2857 16.1429 25.2857Z" fill="white" fill-opacity="0.27"/>
<g clip-path="url(#clip0_1842_4613)">
<path d="M15.9956 11.7201C17.3377 11.7205 18.4557 12.8379 18.4573 14.1833C18.4577 14.4984 18.4674 14.7885 18.4852 15.0558C18.4962 15.2208 18.6333 15.343 18.7906 15.343C18.8138 15.343 18.8374 15.3403 18.8611 15.3348L19.2815 15.2362C19.2994 15.232 19.3174 15.23 19.3351 15.23C19.4419 15.23 19.5402 15.303 19.5642 15.411C19.5981 15.5637 19.5125 15.718 19.3646 15.7699L18.7263 16.0276C18.5652 16.0926 18.4787 16.268 18.5241 16.4357C19.0361 18.3286 20.4662 18.1318 20.4662 18.3784C20.4662 18.6881 19.3883 18.7318 19.2909 18.8292C19.1935 18.9266 19.2866 19.3993 19.069 19.4909C19.028 19.5081 18.9698 19.5141 18.8987 19.5141C18.7348 19.5141 18.503 19.4821 18.2587 19.4821C18.0468 19.4821 17.8254 19.5062 17.6308 19.5961C17.1146 19.8345 16.617 20.2799 16 20.2799C15.3831 20.2799 14.8854 19.8345 14.3692 19.5961C14.1746 19.5062 13.9533 19.4821 13.7413 19.4821C13.4971 19.4821 13.2652 19.5141 13.1013 19.5141C13.0303 19.5141 12.972 19.5081 12.931 19.4909C12.7134 19.3993 12.8065 18.9266 12.7091 18.8292C12.6118 18.7318 11.5338 18.6881 11.5338 18.3784C11.5338 18.1317 12.9639 18.3286 13.476 16.4357C13.5213 16.268 13.4348 16.0926 13.2737 16.0275L12.6354 15.7699C12.4874 15.718 12.4019 15.5637 12.4358 15.411C12.4598 15.3029 12.5581 15.23 12.6649 15.23C12.6826 15.23 12.7006 15.232 12.7185 15.2362L13.1389 15.3348C13.1626 15.3403 13.1862 15.343 13.2094 15.343C13.3667 15.343 13.5038 15.2207 13.5148 15.0558C13.5326 14.7885 13.5423 14.4983 13.5427 14.1832C13.5444 12.8379 14.6534 11.7206 15.9956 11.7201ZM15.9957 11.1863H15.9955H15.9954C15.5947 11.1864 15.2045 11.2669 14.8355 11.4256C14.4813 11.5778 14.1625 11.7949 13.888 12.0709C13.6139 12.3464 13.3981 12.6663 13.2468 13.0217C13.0894 13.3913 13.0094 13.7818 13.0089 14.1826C13.0087 14.3794 13.0046 14.5703 12.9967 14.7532L12.8403 14.7165C12.7829 14.703 12.7239 14.6962 12.6649 14.6962C12.4947 14.6962 12.3268 14.7537 12.1921 14.8582C12.0515 14.9672 11.953 15.1225 11.9146 15.2954C11.8233 15.7069 12.0505 16.1223 12.4443 16.2684L12.9127 16.4575C12.6026 17.4095 12.0306 17.5919 11.6455 17.7148C11.5433 17.7474 11.4551 17.7756 11.371 17.8173C11.0361 17.9835 11 18.265 11 18.3784C11 18.5955 11.1027 18.7936 11.2893 18.9362C11.3822 19.0072 11.4973 19.0658 11.6412 19.1153C11.8372 19.1828 12.0644 19.2256 12.2491 19.26C12.2581 19.3284 12.2712 19.4019 12.2932 19.476C12.3848 19.7837 12.578 19.9215 12.7241 19.9829C12.8626 20.0411 13.0057 20.0479 13.1013 20.0479C13.1949 20.0479 13.2937 20.0405 13.3984 20.0328C13.5107 20.0245 13.6268 20.0159 13.7413 20.0159C13.9189 20.0159 14.051 20.0371 14.1453 20.0806C14.2748 20.1405 14.4122 20.2211 14.5576 20.3065C14.9624 20.5442 15.4212 20.8137 16 20.8137C16.5789 20.8137 17.0376 20.5442 17.4424 20.3065C17.5878 20.2211 17.7252 20.1405 17.8547 20.0806C17.949 20.037 18.0812 20.0159 18.2587 20.0159C18.3732 20.0159 18.4893 20.0245 18.6016 20.0328C18.7063 20.0405 18.8051 20.0479 18.8987 20.0479C18.9943 20.0479 19.1374 20.0411 19.2759 19.9829C19.422 19.9215 19.6152 19.7837 19.7068 19.476C19.7288 19.4019 19.742 19.3284 19.7509 19.26C19.9356 19.2256 20.1628 19.1828 20.3588 19.1153C20.5027 19.0658 20.6178 19.0072 20.7107 18.9362C20.8972 18.7936 21 18.5955 21 18.3784C21 18.265 20.9639 17.9835 20.6289 17.8173C20.5449 17.7756 20.4566 17.7474 20.3544 17.7148C19.9693 17.592 19.3974 17.4095 19.0872 16.4575L19.5556 16.2684C19.9494 16.1223 20.1766 15.7069 20.0853 15.2954C20.047 15.1225 19.9484 14.9672 19.8079 14.8582C19.6732 14.7537 19.5053 14.6962 19.3351 14.6962C19.2762 14.6962 19.2171 14.703 19.1597 14.7165L19.0033 14.7531C18.9954 14.5703 18.9913 14.3794 18.9911 14.1826C18.9906 13.7815 18.9099 13.3905 18.7513 13.0205C18.599 12.6653 18.3821 12.3455 18.1066 12.0699C17.8311 11.7943 17.5114 11.5774 17.1565 11.4253C16.7868 11.2668 16.3962 11.1864 15.9957 11.1863Z" fill="white"/>
</g>
<defs>
<clipPath id="clip0_1842_4613">
<rect width="10" height="10" fill="white" transform="translate(11 11)"/>
</clipPath>
</defs>
</svg>
