<svg width="28" height="28" viewBox="0 0 28 28" fill="none" xmlns="http://www.w3.org/2000/svg">
<path d="M14.0007 26.5416C7.08232 26.5416 1.45898 20.9183 1.45898 13.9999C1.45898 7.08159 7.08232 1.45825 14.0007 1.45825C20.919 1.45825 26.5423 7.08159 26.5423 13.9999C26.5423 20.9183 20.919 26.5416 14.0007 26.5416ZM14.0007 3.20825C8.05065 3.20825 3.20898 8.04992 3.20898 13.9999C3.20898 19.9499 8.05065 24.7916 14.0007 24.7916C19.9507 24.7916 24.7923 19.9499 24.7923 13.9999C24.7923 8.04992 19.9507 3.20825 14.0007 3.20825Z" fill="#121212"/>
<path d="M10.6983 18.1766C10.4766 18.1766 10.2549 18.0949 10.0799 17.9199C9.74159 17.5816 9.74159 17.0216 10.0799 16.6833L16.6833 10.0799C17.0216 9.74159 17.5816 9.74159 17.9199 10.0799C18.2583 10.4183 18.2583 10.9783 17.9199 11.3166L11.3166 17.9199C11.1533 18.0949 10.9199 18.1766 10.6983 18.1766Z" fill="#121212"/>
<path d="M17.3016 18.1766C17.0799 18.1766 16.8583 18.0949 16.6833 17.9199L10.0799 11.3166C9.74159 10.9783 9.74159 10.4183 10.0799 10.0799C10.4183 9.74159 10.9783 9.74159 11.3166 10.0799L17.9199 16.6833C18.2583 17.0216 18.2583 17.5816 17.9199 17.9199C17.7449 18.0949 17.5233 18.1766 17.3016 18.1766Z" fill="#121212"/>
</svg>
