<svg width="16" height="16" viewBox="0 0 16 16" fill="none" xmlns="http://www.w3.org/2000/svg">
<path d="M9.99935 15.1666H5.99935C3.05935 15.1666 2.16602 14.2733 2.16602 11.3333V4.66659C2.16602 1.72659 3.05935 0.833252 5.99935 0.833252H9.99935C12.9393 0.833252 13.8327 1.72659 13.8327 4.66659V11.3333C13.8327 14.2733 12.9393 15.1666 9.99935 15.1666ZM5.99935 1.83325C3.61268 1.83325 3.16602 2.28659 3.16602 4.66659V11.3333C3.16602 13.7133 3.61268 14.1666 5.99935 14.1666H9.99935C12.386 14.1666 12.8327 13.7133 12.8327 11.3333V4.66659C12.8327 2.28659 12.386 1.83325 9.99935 1.83325H5.99935Z" fill="#121212"/>
<path d="M9.33268 4.16675H6.66602C6.39268 4.16675 6.16602 3.94008 6.16602 3.66675C6.16602 3.39341 6.39268 3.16675 6.66602 3.16675H9.33268C9.60602 3.16675 9.83268 3.39341 9.83268 3.66675C9.83268 3.94008 9.60602 4.16675 9.33268 4.16675Z" fill="#121212"/>
<path d="M8.00013 13.24C7.15346 13.24 6.4668 12.5533 6.4668 11.7067C6.4668 10.86 7.15346 10.1733 8.00013 10.1733C8.8468 10.1733 9.53346 10.86 9.53346 11.7067C9.53346 12.5533 8.8468 13.24 8.00013 13.24ZM8.00013 11.1667C7.7068 11.1667 7.4668 11.4067 7.4668 11.7C7.4668 11.9933 7.7068 12.2333 8.00013 12.2333C8.29346 12.2333 8.53346 11.9933 8.53346 11.7C8.53346 11.4067 8.29346 11.1667 8.00013 11.1667Z" fill="#121212"/>
</svg>
