<svg width="134" height="149" viewBox="0 0 134 149" fill="none" xmlns="http://www.w3.org/2000/svg">
<path d="M96.0789 116.954L27.1207 132.405L26.6934 86.8L94.677 70.1013L96.0789 116.954Z" fill="#FF7C68"/>
<path d="M111.456 75.0019L68.3 86.4768C64.1581 87.5779 60.084 85.7713 59.2008 82.442L59.1687 82.3197C58.2843 78.9904 60.9245 75.3986 65.0663 74.2975L108.223 62.8226C112.364 61.7215 116.439 63.5281 117.322 66.8574L117.354 66.9797C118.238 70.309 115.598 73.9008 111.456 75.0019Z" fill="#FF7C68"/>
<path d="M44.4012 63.1772L38.1463 104.612C37.1515 108.782 29.2085 113.463 25.4798 112.573L25.3433 112.541C21.6146 111.65 19.3994 107.547 20.3942 103.377L30.7636 59.9192C31.7584 55.749 35.5881 53.0908 39.3156 53.9804L39.4521 54.0125C43.1808 54.9045 45.3972 59.007 44.4012 63.1772Z" fill="#FF7C68"/>
<path d="M118.409 85.5021L75.2531 96.9771C71.1113 98.0781 67.0371 96.2715 66.1539 92.9422L66.1218 92.8199C65.2374 89.4906 67.8776 85.8988 72.0194 84.7978L115.176 73.3228C119.318 72.2218 123.392 74.0283 124.275 77.3576L124.307 77.48C125.191 80.8093 122.551 84.3999 118.409 85.5021Z" fill="#FF7C68"/>
<path d="M121.556 97.3612L78.3996 108.836C74.2578 109.937 70.1836 108.131 69.3004 104.801L69.2683 104.679C68.3839 101.35 71.0241 97.7579 75.1659 96.6569L118.322 85.1819C122.464 84.0809 126.538 85.8875 127.421 89.2168L127.453 89.3391C128.338 92.6684 125.698 96.2602 121.556 97.3612Z" fill="#FF7C68"/>
<path d="M118.378 111.024L75.2219 122.499C71.08 123.6 67.0059 121.794 66.1226 118.464L66.0906 118.342C65.2062 115.013 67.8463 111.421 71.9882 110.32L115.144 98.845C119.286 97.744 123.36 99.5506 124.244 102.88L124.276 103.002C125.16 106.331 122.52 109.922 118.378 111.024Z" fill="#FF7C68"/>
<path d="M90.3663 134.408H55.7501C49.6139 134.408 44.6387 129.43 44.6387 123.291V40.9004C44.6387 34.7609 49.6139 29.783 55.7501 29.783H90.3663C96.5025 29.783 101.478 34.7609 101.478 40.9004V123.291C101.478 129.43 96.5025 134.408 90.3663 134.408Z" fill="white"/>
<path d="M90.3692 134.942H55.753C49.3319 134.942 44.1074 129.715 44.1074 123.29V40.9002C44.1074 34.4756 49.3319 29.2483 55.753 29.2483H90.3692C96.7903 29.2483 102.015 34.4756 102.015 40.9002V123.29C102.015 129.715 96.7903 134.942 90.3692 134.942ZM55.753 30.3173C49.9207 30.3173 45.1758 35.0647 45.1758 40.9002V123.29C45.1758 129.126 49.9207 133.873 55.753 133.873H90.3692C96.2015 133.873 100.946 129.126 100.946 123.29V40.9002C100.946 35.0647 96.2015 30.3173 90.3692 30.3173H55.753Z" fill="url(#paint0_radial_1163_17970)"/>
<path d="M103.971 110.323H70.9098C66.6409 110.323 63.1816 106.773 63.1816 102.393V83.4498C63.1816 79.0705 66.6421 75.5203 70.9098 75.5203H103.971C108.24 75.5203 111.699 79.0705 111.699 83.4498V102.393C111.7 106.773 108.24 110.323 103.971 110.323Z" fill="#570C10"/>
<path d="M101.768 107.397H68.8615C64.3255 107.397 60.6348 103.704 60.6348 99.1658V80.7793C60.6348 76.2408 64.3255 72.5481 68.8615 72.5481H101.768C106.304 72.5481 109.995 76.2408 109.995 80.7793V99.1658C109.995 103.705 106.304 107.397 101.768 107.397ZM68.8615 73.6171C64.9143 73.6171 61.7032 76.83 61.7032 80.7793V99.1658C61.7032 103.115 64.9143 106.328 68.8615 106.328H101.768C105.715 106.328 108.927 103.115 108.927 99.1658V80.7793C108.927 76.83 105.715 73.6171 101.768 73.6171H68.8615Z" fill="#130C0E"/>
<path d="M65.8955 102.026C65.7518 102.026 65.6082 101.969 65.5037 101.855C65.3031 101.639 65.3162 101.3 65.5322 101.099L84.951 83.0978C85.1671 82.8971 85.5054 82.9101 85.706 83.1263C85.9066 83.3425 85.8936 83.681 85.6775 83.8817L66.2587 101.883C66.1555 101.98 66.0249 102.026 65.8955 102.026Z" fill="white"/>
<path d="M103.238 102.026C103.102 102.026 102.964 101.974 102.86 101.869L84.933 83.8677C84.7253 83.6587 84.7253 83.3201 84.9342 83.1123C85.1431 82.9044 85.4814 82.9044 85.6892 83.1135L103.616 101.115C103.824 101.324 103.824 101.663 103.615 101.871C103.511 101.975 103.375 102.026 103.238 102.026Z" fill="white"/>
<path d="M82.07 90.5939L69.0996 82.2511C66.0012 80.258 67.3652 75.4405 71.0476 75.3906C71.0975 75.3894 71.1473 75.3894 71.1972 75.3894H99.4267C99.4635 75.3894 99.4991 75.3894 99.5359 75.3894C103.239 75.425 104.627 80.2711 101.529 82.2998L88.9042 90.5654C86.8303 91.923 84.1533 91.9337 82.07 90.5939Z" fill="white"/>
<path d="M85.4675 92.1262C84.1582 92.1262 82.8844 91.752 81.7828 91.0429L68.8124 82.7001C67.1943 81.6596 66.4915 79.7889 67.0222 77.9348C67.5504 76.0902 69.1281 74.8811 71.0429 74.8549L71.1996 74.8538H99.542C101.462 74.8728 103.051 76.0795 103.592 77.9289C104.138 79.7948 103.444 81.6846 101.824 82.7464L89.1986 91.0132C88.0863 91.7413 86.7959 92.1262 85.4675 92.1262ZM71.1996 75.9239L71.056 75.9251C69.3169 75.9489 68.3494 77.1818 68.049 78.2294C67.7463 79.2841 67.9173 80.8531 69.3905 81.801L82.3609 90.1438C83.2892 90.7412 84.3635 91.0572 85.4675 91.0572C86.5882 91.0572 87.6756 90.7329 88.6134 90.1189L101.238 81.852C102.717 80.8828 102.879 79.2948 102.567 78.2294C102.244 77.126 101.278 75.9406 99.5325 75.9227H99.4292H71.1996V75.9239Z" fill="url(#paint1_radial_1163_17970)"/>
<path d="M101.484 122.756H44.6445V123.825H101.484V122.756Z" fill="url(#paint2_radial_1163_17970)"/>
<path d="M101.484 39.8723H44.6445V40.9413H101.484V39.8723Z" fill="url(#paint3_radial_1163_17970)"/>
<path d="M111.263 16.2488H77.9299C74.39 16.2488 71.5195 19.1208 71.5195 22.6627V41.9032C71.5195 45.4451 75.773 48.3171 75.773 48.3171V56.9759L94.6825 48.3171H111.262C114.802 48.3171 117.672 45.4451 117.672 41.9032V22.6627C117.672 19.1196 114.803 16.2488 111.263 16.2488Z" fill="#E0C262"/>
<path d="M113.589 12.614C113.332 12.614 113.106 12.4275 113.062 12.1662L111.171 0.621135C111.124 0.330134 111.321 0.054574 111.612 0.00706361C111.902 -0.0404468 112.178 0.156722 112.225 0.447723L114.116 11.9928C114.164 12.2838 113.967 12.5593 113.676 12.6068C113.647 12.6116 113.618 12.614 113.589 12.614Z" fill="url(#paint4_radial_1163_17970)"/>
<path d="M119.68 15.0227C119.57 15.0227 119.458 14.9883 119.362 14.917C119.125 14.7412 119.076 14.4063 119.252 14.1687L126.624 4.22718C126.8 3.98963 127.134 3.94093 127.372 4.11672C127.609 4.2925 127.658 4.62745 127.482 4.86501L120.11 14.8066C120.005 14.9491 119.844 15.0227 119.68 15.0227Z" fill="url(#paint5_radial_1163_17970)"/>
<path d="M123.367 19.9895C123.095 19.9895 122.863 19.7828 122.837 19.5061C122.808 19.2127 123.024 18.9514 123.317 18.9229L133.414 17.9608C133.708 17.9323 133.968 18.1484 133.997 18.4418C134.025 18.7352 133.809 18.9965 133.516 19.025L123.419 19.9871C123.4 19.9883 123.384 19.9895 123.367 19.9895Z" fill="url(#paint6_radial_1163_17970)"/>
<path d="M88.048 25.6712V28.5004H87.1719V21.0151H89.2268C90.0269 21.0151 90.6466 21.2099 91.087 21.5995C91.5274 21.9891 91.747 22.539 91.747 23.2493C91.747 23.9596 91.5025 24.5404 91.0146 24.9929C90.5255 25.4455 89.8654 25.6712 89.0345 25.6712H88.048ZM88.048 21.8086V24.8777H88.9656C89.571 24.8777 90.0328 24.74 90.351 24.4632C90.6691 24.1865 90.8282 23.7957 90.8282 23.2909C90.8282 22.3027 90.2441 21.8086 89.0748 21.8086H88.048Z" fill="black"/>
<path d="M94.7632 21.0151V21.767H94.0331V27.7486H94.7632V28.5004H92.4258V27.7486H93.1559V21.767H92.4258V21.0151H94.7632Z" fill="black"/>
<path d="M102.027 28.5004H100.953L97.1032 22.5343C97.0059 22.3846 96.9264 22.2278 96.8634 22.0639H96.8326C96.8599 22.2243 96.8741 22.5664 96.8741 23.0925V28.5004H95.998V21.0151H97.1353L100.881 26.8874C101.037 27.1309 101.138 27.2984 101.183 27.3887H101.205C101.17 27.1725 101.152 26.8055 101.152 26.2876V21.0163H102.029V28.5004H102.027Z" fill="black"/>
<path d="M103.685 44.1722H84.8726C81.8479 44.1722 79.3965 41.7195 79.3965 38.6931V38.5827C79.3965 35.5562 81.8479 33.1035 84.8726 33.1035H103.686C106.711 33.1035 109.162 35.5562 109.162 38.5827V38.6931C109.162 41.7183 106.71 44.1722 103.685 44.1722Z" fill="#F4F8F9"/>
<path d="M83.502 41.4346V40.7077C83.9115 40.9726 84.327 41.1044 84.7496 41.1044C85.1722 41.1044 85.5129 40.9845 85.7717 40.7457C86.0305 40.5058 86.1599 40.1887 86.1599 39.7931C86.1599 39.4012 86.0281 39.0947 85.7634 38.875C85.4987 38.6553 85.1212 38.5448 84.6285 38.5448C84.4611 38.5448 84.1489 38.5614 83.6895 38.5947V35.592H86.5861V36.2097H84.3365V37.964C84.5205 37.9533 84.6903 37.9474 84.8458 37.9474C85.4856 37.9474 85.9806 38.1077 86.332 38.4296C86.6822 38.7515 86.8579 39.1921 86.8579 39.7516C86.8579 40.3312 86.6692 40.7968 86.2928 41.1508C85.9153 41.5047 85.399 41.6805 84.7425 41.6805C84.1869 41.6817 83.7738 41.5985 83.502 41.4346Z" fill="black"/>
<path d="M88.1133 41.4346V40.7077C88.5228 40.9726 88.9383 41.1044 89.3609 41.1044C89.7836 41.1044 90.1243 40.9845 90.383 40.7457C90.6418 40.5058 90.7712 40.1887 90.7712 39.7931C90.7712 39.4012 90.6395 39.0947 90.3747 38.875C90.11 38.6553 89.7325 38.5448 89.2399 38.5448C89.0725 38.5448 88.7603 38.5614 88.3008 38.5947V35.592H91.1974V36.2097H88.9478V37.964C89.1318 37.9533 89.3016 37.9474 89.4571 37.9474C90.0969 37.9474 90.592 38.1077 90.9434 38.4296C91.2936 38.7515 91.4692 39.1921 91.4692 39.7516C91.4692 40.3312 91.2805 40.7968 90.9042 41.1508C90.5267 41.5047 90.0103 41.6805 89.3538 41.6805C88.7982 41.6817 88.3851 41.5985 88.1133 41.4346Z" fill="black"/>
<path d="M92.7168 41.4346V40.7077C93.1264 40.9726 93.5418 41.1044 93.9645 41.1044C94.3871 41.1044 94.7278 40.9845 94.9866 40.7457C95.2453 40.5058 95.3747 40.1887 95.3747 39.7931C95.3747 39.4012 95.243 39.0947 94.9782 38.875C94.7135 38.6553 94.336 38.5448 93.8434 38.5448C93.676 38.5448 93.3638 38.5614 92.9044 38.5947V35.592H95.8009V36.2097H93.5513V37.964C93.7353 37.9533 93.9051 37.9474 94.0606 37.9474C94.7005 37.9474 95.1955 38.1077 95.5469 38.4296C95.8971 38.7515 96.0728 39.1921 96.0728 39.7516C96.0728 40.3312 95.884 40.7968 95.5077 41.1508C95.1302 41.5047 94.6138 41.6805 93.9573 41.6805C93.4029 41.6817 92.9898 41.5985 92.7168 41.4346Z" fill="black"/>
<path d="M97.3223 41.4346V40.7077C97.7318 40.9726 98.1473 41.1044 98.5699 41.1044C98.9925 41.1044 99.3332 40.9845 99.592 40.7457C99.8508 40.5058 99.9802 40.1887 99.9802 39.7931C99.9802 39.4012 99.8484 39.0947 99.5837 38.875C99.319 38.6553 98.9415 38.5448 98.4488 38.5448C98.2815 38.5448 97.9692 38.5614 97.5098 38.5947V35.592H100.406V36.2097H98.1568V37.964C98.3408 37.9533 98.5106 37.9474 98.6661 37.9474C99.3059 37.9474 99.801 38.1077 100.152 38.4296C100.503 38.7515 100.678 39.1921 100.678 39.7516C100.678 40.3312 100.489 40.7968 100.113 41.1508C99.7357 41.5047 99.2193 41.6805 98.5628 41.6805C98.0084 41.6817 97.5953 41.5985 97.3223 41.4346Z" fill="black"/>
<path d="M101.934 41.4346V40.7077C102.343 40.9726 102.759 41.1044 103.181 41.1044C103.604 41.1044 103.945 40.9845 104.203 40.7457C104.462 40.5058 104.592 40.1887 104.592 39.7931C104.592 39.4012 104.46 39.0947 104.195 38.875C103.93 38.6553 103.553 38.5448 103.06 38.5448C102.893 38.5448 102.581 38.5614 102.121 38.5947V35.592H105.018V36.2097H102.768V37.964C102.952 37.9533 103.122 37.9474 103.277 37.9474C103.917 37.9474 104.412 38.1077 104.764 38.4296C105.114 38.7515 105.29 39.1921 105.29 39.7516C105.29 40.3312 105.101 40.7968 104.724 41.1508C104.347 41.5047 103.831 41.6805 103.174 41.6805C102.619 41.6817 102.205 41.5985 101.934 41.4346Z" fill="black"/>
<path d="M0 149L37.6481 130.64L21.3027 97.0854L0 107.475V149Z" fill="#570C10"/>
<defs>
<radialGradient id="paint0_radial_1163_17970" cx="0" cy="0" r="1" gradientUnits="userSpaceOnUse" gradientTransform="translate(73.061 82.0951) scale(42.5914 42.6146)">
<stop offset="0.5744" stop-color="#130C0E"/>
<stop offset="0.7977" stop-color="#130C0E"/>
<stop offset="1" stop-color="#130C0E"/>
</radialGradient>
<radialGradient id="paint1_radial_1163_17970" cx="0" cy="0" r="1" gradientUnits="userSpaceOnUse" gradientTransform="translate(85.312 83.4904) scale(16.5439 9.94257)">
<stop offset="0.5744" stop-color="#130C0E"/>
<stop offset="0.7977" stop-color="#130C0E"/>
<stop offset="1" stop-color="#130C0E"/>
</radialGradient>
<radialGradient id="paint2_radial_1163_17970" cx="0" cy="0" r="1" gradientUnits="userSpaceOnUse" gradientTransform="translate(73.0639 123.29) scale(20.0992 20.1101)">
<stop offset="0.5744" stop-color="#130C0E"/>
<stop offset="0.7977" stop-color="#130C0E"/>
<stop offset="1" stop-color="#130C0E"/>
</radialGradient>
<radialGradient id="paint3_radial_1163_17970" cx="0" cy="0" r="1" gradientUnits="userSpaceOnUse" gradientTransform="translate(73.0639 40.4066) scale(20.0992 20.1101)">
<stop offset="0.5744" stop-color="#130C0E"/>
<stop offset="0.7977" stop-color="#130C0E"/>
<stop offset="1" stop-color="#130C0E"/>
</radialGradient>
<radialGradient id="paint4_radial_1163_17970" cx="0" cy="0" r="1" gradientUnits="userSpaceOnUse" gradientTransform="translate(112.645 6.30736) scale(4.57837 4.58087)">
<stop offset="0.5744" stop-color="#130C0E"/>
<stop offset="0.7977" stop-color="#130C0E"/>
<stop offset="1" stop-color="#130C0E"/>
</radialGradient>
<radialGradient id="paint5_radial_1163_17970" cx="0" cy="0" r="1" gradientUnits="userSpaceOnUse" gradientTransform="translate(123.367 9.51827) scale(4.90313 4.90581)">
<stop offset="0.5744" stop-color="#130C0E"/>
<stop offset="0.7977" stop-color="#130C0E"/>
<stop offset="1" stop-color="#130C0E"/>
</radialGradient>
<radialGradient id="paint6_radial_1163_17970" cx="0" cy="0" r="1" gradientUnits="userSpaceOnUse" gradientTransform="translate(128.415 18.9737) scale(4.01192 4.0141)">
<stop offset="0.5744" stop-color="#130C0E"/>
<stop offset="0.7977" stop-color="#130C0E"/>
<stop offset="1" stop-color="#130C0E"/>
</radialGradient>
</defs>
</svg>
