<svg width="16" height="16" viewBox="0 0 16 16" fill="none" xmlns="http://www.w3.org/2000/svg">
<path d="M9.92664 12.1466H4.06663C3.71996 12.1466 3.39329 12.1133 3.09996 12.0466C2.94662 12.0266 2.75996 11.9733 2.56663 11.8999C1.67996 11.5666 0.633301 10.7466 0.633301 8.70662V5.27327C0.633301 3.09327 1.88663 1.83997 4.06663 1.83997H9.92664C11.7666 1.83997 12.9533 2.71995 13.2733 4.31995C13.3333 4.61328 13.36 4.92661 13.36 5.27327V8.70662C13.36 10.9 12.1133 12.1466 9.92664 12.1466ZM4.07328 2.85331C2.43328 2.85331 1.63995 3.64662 1.63995 5.28662V8.71997C1.63995 9.9133 2.05996 10.6466 2.91996 10.9733C3.0533 11.02 3.17997 11.0533 3.29997 11.0733C3.5533 11.1266 3.79995 11.1533 4.07328 11.1533H9.93329C11.5733 11.1533 12.3666 10.36 12.3666 8.71997V5.28662C12.3666 5.00662 12.3466 4.75995 12.3 4.53328C12.0733 3.39995 11.3 2.85331 9.93329 2.85331H4.07328Z" fill="#323232"/>
<path d="M11.9269 14.1467H6.06689C5.50022 14.1467 4.99355 14.0667 4.56022 13.9C3.58022 13.5333 2.94021 12.76 2.72021 11.6533C2.68688 11.4867 2.74022 11.3134 2.86022 11.2C2.98022 11.08 3.15356 11.0334 3.32023 11.0734C3.54023 11.12 3.78689 11.1467 4.06689 11.1467H9.9269C11.5669 11.1467 12.3602 10.3534 12.3602 8.71337V5.28002C12.3602 5.00002 12.3402 4.75335 12.2936 4.52668C12.2602 4.36001 12.3136 4.19335 12.4269 4.07335C12.5469 3.95335 12.7136 3.90001 12.8802 3.94001C14.4802 4.26668 15.3602 5.45335 15.3602 7.28002V10.7134C15.3602 12.9 14.1136 14.1467 11.9269 14.1467ZM3.94689 12.1467C4.16023 12.5333 4.48022 12.8067 4.92022 12.9667C5.24022 13.0867 5.62688 13.1467 6.07354 13.1467H11.9335C13.5735 13.1467 14.3669 12.3534 14.3669 10.7134V7.28002C14.3669 6.22668 14.0402 5.52669 13.3669 5.16002C13.3669 5.20002 13.3669 5.24002 13.3669 5.28002V8.71337C13.3669 10.8934 12.1135 12.1467 9.93355 12.1467H4.07354C4.02688 12.1467 3.98689 12.1467 3.94689 12.1467Z" fill="#323232"/>
<path d="M6.99976 9.26001C5.75309 9.26001 4.73975 8.24667 4.73975 7C4.73975 5.75333 5.75309 4.73999 6.99976 4.73999C8.24642 4.73999 9.25977 5.75333 9.25977 7C9.25977 8.24667 8.24642 9.26001 6.99976 9.26001ZM6.99976 5.73999C6.30642 5.73999 5.73975 6.30667 5.73975 7C5.73975 7.69333 6.30642 8.26001 6.99976 8.26001C7.69309 8.26001 8.25977 7.69333 8.25977 7C8.25977 6.30667 7.69309 5.73999 6.99976 5.73999Z" fill="#323232"/>
<path d="M3.18701 8.96668C2.91368 8.96668 2.68701 8.74001 2.68701 8.46668V5.53333C2.68701 5.25999 2.91368 5.03333 3.18701 5.03333C3.46035 5.03333 3.68701 5.25999 3.68701 5.53333V8.46668C3.68701 8.74001 3.46701 8.96668 3.18701 8.96668Z" fill="#323232"/>
<path d="M10.8066 8.96668C10.5333 8.96668 10.3066 8.74001 10.3066 8.46668V5.53333C10.3066 5.25999 10.5333 5.03333 10.8066 5.03333C11.08 5.03333 11.3066 5.25999 11.3066 5.53333V8.46668C11.3066 8.74001 11.0866 8.96668 10.8066 8.96668Z" fill="#323232"/>
</svg>
