<svg width="16" height="16" viewBox="0 0 16 16" fill="none" xmlns="http://www.w3.org/2000/svg">
<path d="M11.3333 13.8334H4.66665C1.83331 13.8334 0.906647 12.9867 0.83998 10.3467C0.83998 10.2134 0.886647 10.0801 0.979981 9.98675C1.07331 9.89341 1.19998 9.83341 1.33998 9.83341C2.34665 9.83341 3.16665 9.00675 3.16665 8.00008C3.16665 6.99341 2.34665 6.16675 1.33998 6.16675C1.20665 6.16675 1.07998 6.11341 0.979981 6.01341C0.879981 5.91341 0.833314 5.78675 0.83998 5.65341C0.906647 3.01341 1.83331 2.16675 4.66665 2.16675H11.3333C14.2733 2.16675 15.1666 3.06008 15.1666 6.00008V10.0001C15.1666 12.9401 14.2733 13.8334 11.3333 13.8334ZM1.85998 10.7867C1.97331 12.4801 2.54665 12.8334 4.66665 12.8334H11.3333C13.72 12.8334 14.1666 12.3801 14.1666 10.0001V6.00008C14.1666 3.62008 13.72 3.16675 11.3333 3.16675H4.66665C2.54665 3.16675 1.97331 3.52675 1.85998 5.21341C3.17331 5.46675 4.16665 6.62008 4.16665 8.00008C4.16665 9.38008 3.17331 10.5334 1.85998 10.7867Z" fill="#9BA1AA"/>
<path d="M6 5.50008C5.72667 5.50008 5.5 5.27341 5.5 5.00008V2.66675C5.5 2.39341 5.72667 2.16675 6 2.16675C6.27333 2.16675 6.5 2.39341 6.5 2.66675V5.00008C6.5 5.27341 6.27333 5.50008 6 5.50008Z" fill="#9BA1AA"/>
<path d="M6 13.8333C5.72667 13.8333 5.5 13.6067 5.5 13.3333V11C5.5 10.7267 5.72667 10.5 6 10.5C6.27333 10.5 6.5 10.7267 6.5 11V13.3333C6.5 13.6067 6.27333 13.8333 6 13.8333Z" fill="#9BA1AA"/>
<path d="M8.69343 10.4333C8.53343 10.4333 8.37343 10.38 8.2401 10.2867C8.0001 10.1133 7.8801 9.81998 7.93343 9.52665L8.07343 8.73332L7.49343 8.16665C7.2801 7.95998 7.20676 7.65332 7.29343 7.37332C7.38676 7.09332 7.62676 6.88665 7.9201 6.84665L8.7201 6.72665L9.0801 5.99998C9.21343 5.73332 9.4801 5.56665 9.77343 5.56665C10.0734 5.56665 10.3401 5.73332 10.4668 5.99998L10.8268 6.72665L11.6268 6.84665C11.9201 6.88665 12.1601 7.09332 12.2534 7.37332C12.3468 7.65332 12.2668 7.95998 12.0534 8.16665L11.4734 8.73332L11.6134 9.52665C11.6668 9.81998 11.5468 10.1133 11.3068 10.2867C11.0668 10.46 10.7534 10.48 10.4934 10.3467L9.7801 9.97332L9.0601 10.3467C8.94676 10.4067 8.8201 10.4333 8.69343 10.4333ZM8.51343 7.76665L8.85343 8.09998C9.0401 8.27998 9.1201 8.53332 9.0801 8.78665L9.0001 9.25332L9.4201 9.03332C9.64676 8.91332 9.91343 8.91332 10.1401 9.03332L10.5601 9.25332L10.4801 8.78665C10.4401 8.52665 10.5201 8.27332 10.7068 8.09998L11.0468 7.76665L10.5801 7.69998C10.3268 7.65998 10.1068 7.49998 9.99343 7.27332L9.78676 6.84665L9.5801 7.27332C9.46676 7.49998 9.24676 7.65998 8.99343 7.69998L8.51343 7.76665Z" fill="#9BA1AA"/>
</svg>
