<svg width="24" height="24" viewBox="0 0 24 24" fill="none" xmlns="http://www.w3.org/2000/svg">
<path d="M9.34947 22.2812C8.94088 22.2822 8.53729 22.1913 8.1685 22.0155C7.7997 21.8396 7.47511 21.5831 7.21869 21.265L2.13526 15.0376C1.66923 14.4664 1.43642 13.7402 1.48351 13.0046C1.5306 12.2689 1.85413 11.5783 2.38917 11.0713C2.92422 10.5642 3.63121 10.2783 4.3683 10.2707C5.1054 10.2632 5.81808 10.5347 6.36336 11.0307L9.55176 13.9321L19.886 2.2558C20.0147 2.10047 20.1738 1.97302 20.3534 1.88124C20.5331 1.78945 20.7296 1.73526 20.9309 1.72197C21.1321 1.70869 21.334 1.73658 21.5242 1.80396C21.7143 1.87133 21.8888 1.97677 22.0368 2.11383C22.5502 2.58921 22.6756 3.38712 22.3238 3.93312L11.7634 20.9408C11.7616 20.9437 11.7598 20.9464 11.758 20.9493C11.2404 21.744 10.4181 22.228 9.50205 22.2772C9.45101 22.2799 9.40015 22.2812 9.34947 22.2812ZM4.39726 11.1896C4.01936 11.1906 3.64949 11.2987 3.33044 11.5012C3.01138 11.7037 2.75617 11.9924 2.59434 12.3339C2.43251 12.6753 2.37067 13.0557 2.41597 13.4308C2.46127 13.806 2.61186 14.1607 2.85032 14.4538L7.93407 20.6815C8.11534 20.9065 8.34766 21.085 8.61175 21.2022C8.87584 21.3194 9.16408 21.3719 9.45253 21.3553C10.0696 21.3221 10.6267 20.9921 10.9818 20.4494L21.5418 3.44255C21.5436 3.43975 21.5454 3.43694 21.5472 3.43411C21.6463 3.2818 21.6142 2.98051 21.4097 2.79114C21.3535 2.73912 21.2873 2.69915 21.2151 2.6737C21.1429 2.64824 21.0662 2.63784 20.9898 2.64314C20.9135 2.64843 20.839 2.6693 20.771 2.70447C20.7029 2.73964 20.6429 2.78836 20.5944 2.84763C20.5906 2.85225 20.5867 2.85686 20.5827 2.86148L9.93285 14.8942C9.89233 14.94 9.84311 14.9773 9.78806 15.0039C9.733 15.0305 9.67321 15.0459 9.61215 15.0492C9.55109 15.0525 9.48998 15.0437 9.43238 15.0232C9.37477 15.0027 9.32182 14.9709 9.27659 14.9297L5.74209 11.7133C5.37501 11.3768 4.89523 11.19 4.39726 11.1896Z" fill="black"/>
</svg>
