<svg width="16" height="16" viewBox="0 0 16 16" fill="none" xmlns="http://www.w3.org/2000/svg">
<path d="M2.6204 11.0866C2.49374 11.0866 2.36707 11.0399 2.26707 10.9399C2.07374 10.7466 2.07374 10.4266 2.26707 10.2332L10.2337 2.26658C10.4271 2.07325 10.7471 2.07325 10.9404 2.26658C11.1337 2.45992 11.1337 2.77992 10.9404 2.97325L2.97374 10.9466C2.8804 11.0399 2.74707 11.0866 2.6204 11.0866Z" fill="#323232"/>
<path d="M7.3997 12.6868C7.27303 12.6868 7.14637 12.6401 7.04637 12.5401C6.85303 12.3468 6.85303 12.0268 7.04637 11.8334L7.84637 11.0334C8.0397 10.8401 8.3597 10.8401 8.55303 11.0334C8.74637 11.2268 8.74637 11.5468 8.55303 11.7401L7.75303 12.5401C7.6597 12.6334 7.53303 12.6868 7.3997 12.6868Z" fill="#323232"/>
<path d="M9.19365 10.8934C9.06698 10.8934 8.94031 10.8468 8.84031 10.7468C8.64698 10.5534 8.64698 10.2334 8.84031 10.0401L10.4336 8.44676C10.627 8.25342 10.947 8.25342 11.1403 8.44676C11.3336 8.64009 11.3336 8.96009 11.1403 9.15342L9.54698 10.7468C9.45365 10.8401 9.32031 10.8934 9.19365 10.8934Z" fill="#323232"/>
<path d="M7.40027 15.1667C6.74693 15.1667 6.0936 14.7667 5.30027 13.9734L2.02693 10.7C0.433602 9.10669 0.440268 8.08002 2.04693 6.47336L6.4736 2.04669C8.08027 0.440024 9.10693 0.433357 10.7003 2.02669L13.9736 5.30002C15.5669 6.89336 15.5603 7.92002 13.9536 9.52669L9.52693 13.9534C8.72027 14.76 8.06027 15.1667 7.40027 15.1667ZM8.60027 1.83336C8.2536 1.83336 7.8136 2.12002 7.18027 2.75336L2.7536 7.18002C2.12027 7.81336 1.8336 8.25336 1.8336 8.59336C1.8336 8.94002 2.10027 9.36002 2.7336 9.99336L6.00693 13.2667C6.64027 13.9 7.0536 14.1667 7.40027 14.1667C7.40027 14.1667 7.40027 14.1667 7.40693 14.1667C7.7536 14.1667 8.18693 13.88 8.82027 13.2467L13.2469 8.82002C13.8803 8.18669 14.1669 7.74669 14.1669 7.40669C14.1669 7.06002 13.9003 6.64002 13.2669 6.00669L9.9936 2.73336C9.36693 2.10002 8.94693 1.83336 8.60027 1.83336Z" fill="#323232"/>
<path d="M14.6663 15.1667H1.33301C1.05967 15.1667 0.833008 14.9401 0.833008 14.6667C0.833008 14.3934 1.05967 14.1667 1.33301 14.1667H14.6663C14.9397 14.1667 15.1663 14.3934 15.1663 14.6667C15.1663 14.9401 14.9397 15.1667 14.6663 15.1667Z" fill="#323232"/>
</svg>
