<svg width="300" height="300" viewBox="0 0 300 300" fill="none" xmlns="http://www.w3.org/2000/svg">
<path d="M237.328 237.351C231.341 243.546 225.984 247.188 221.883 249.938C181.884 276.753 136.161 269.024 122.025 266.383C99.2175 262.121 79.9643 259.114 63.4229 244.109C25.8358 210.014 27.6641 138.889 56.3852 94.8289C59.7906 89.6051 88.4684 46.9238 134.29 40.9099C135.411 40.7625 136.247 40.6788 136.98 40.601C144.068 39.8477 187.994 35.8702 223.812 65.9995C228.939 70.3127 237.191 78.0919 244.842 89.9558C272.819 133.339 272.907 200.529 237.328 237.351Z" fill="#F4F7FA"/>
<path d="M158.847 209.945L119.552 205.123V146.937L158.847 139.464V209.945Z" fill="url(#paint0_linear_1041_7139)"/>
<path d="M206.779 206.879L158.848 209.945V139.463L206.779 146.107V206.879Z" fill="url(#paint1_linear_1041_7139)"/>
<path d="M176.916 141.968V170.706L192.872 171.983V144.179L176.916 141.968Z" fill="white"/>
<path d="M224.001 294.023L151.104 299.171V191.979L224.001 197.126V294.023Z" fill="url(#paint2_linear_1041_7139)"/>
<path d="M151.102 299.171L91.3389 291.835V198.822L151.102 191.979V299.171Z" fill="url(#paint3_linear_1041_7139)"/>
<path d="M176.908 193.801V237.296H201.332V195.526L176.908 193.801Z" fill="white"/>
<path d="M85.3131 297.637C82.2279 297.391 78.2793 296.531 74.491 294.044C70.3915 291.353 65.0527 285.823 66.4457 282.339C66.966 281.037 68.4636 279.924 69.7811 280.029C71.7263 280.186 71.9527 282.9 75.3305 285.849C75.9542 286.395 79.1824 289.214 80.7872 288.265C81.5844 287.793 81.8214 286.484 81.6903 285.489C81.3103 282.579 77.7709 282.133 74.3705 278.983C70.9212 275.79 68.0465 270.219 69.6898 266.452C70.6339 264.288 73.1325 262.579 74.7744 263.06C75.4762 263.264 75.9211 263.841 78.0516 268.462C79.8008 272.255 80.1887 273.361 81.3169 273.72C82.4768 274.09 84.2816 273.626 84.9675 272.478C86.7537 269.489 79.0341 265.075 78.3336 256.709C78.0198 252.96 79.0301 247.404 82.4119 246.212C84.6974 245.407 87.9547 246.636 89.1319 248.742C90.1938 250.641 88.9041 252.068 89.7131 256.333C89.9594 257.627 90.4639 260.289 91.5312 260.429C92.7838 260.592 94.186 257.197 94.5091 256.37C96.9481 250.145 94.1516 246.944 96.4516 243.922C98.2445 241.565 102.147 240.618 105.237 241.809C107.942 242.85 110.106 245.56 110.25 248.366C110.397 251.222 108.005 254.065 103.221 259.751C100.951 262.447 99.1462 264.269 99.2481 266.95C99.2985 268.256 99.8135 270.094 100.746 270.261C102.803 270.632 103.815 262.315 108.69 261.03C111.186 260.372 114.288 261.664 115.65 263.923C117.32 266.69 116.201 270.612 114.103 272.674C111.367 275.365 108.559 273.32 103.41 276.21C101.126 277.493 97.5347 280.22 98.0604 282.475C98.2895 283.458 99.3143 284.419 100.44 284.548C102.962 284.835 103.795 280.686 107.85 278.861C110.771 277.546 114.811 277.688 115.771 279.342C117.125 281.678 112.315 286.978 109.756 289.322C106.666 292.155 99.3739 297.525 85.3131 297.637Z" fill="url(#paint4_linear_1041_7139)"/>
<path opacity="0.5" d="M86.6983 296.306C86.2905 289.366 90.8693 275.229 94.2008 268.545C97.4608 262.006 100.579 251.659 100.611 251.555L100.813 251.616C100.782 251.72 97.6581 262.084 94.3901 268.639C91.0692 275.302 86.5037 289.387 86.9088 296.293L86.6983 296.306Z" fill="white"/>
<path d="M78.0401 298.541C75.7163 295.303 72.308 289.459 71.6976 281.642C71.446 278.421 70.9534 272.129 74.7881 266.701C76.6988 263.996 80.7506 259.996 83.4889 261.149C85.2513 261.893 86.3437 264.716 85.8472 266.865C85.3453 269.03 83.5233 269.231 81.5371 272.907C80.8023 274.267 79.9628 275.863 80.6076 276.764C81.1465 277.518 82.6256 277.655 83.7352 277.203C86.0259 276.27 85.3109 273.406 87.787 271.353C89.5481 269.892 92.485 269.206 93.7522 270.402C94.8525 271.44 94.6605 273.868 93.6886 275.486C92.1314 278.077 89.3402 277.316 87.5209 280.148C86.7131 281.404 86.1398 283.301 86.8456 284.052C87.6506 284.907 90.0195 284.168 91.5382 283.223C93.543 281.974 93.6171 280.648 94.9373 280.481C96.4097 280.295 98.2515 281.705 98.5389 283.261C98.9427 285.443 96.276 287.796 94.164 288.818C91.4615 290.128 89.4528 289.359 88.1326 291.147C87.648 291.804 87.2044 292.874 87.6016 293.524C88.1684 294.452 90.2168 294.145 91.578 293.942C94.8883 293.447 95.8006 292.241 96.9857 292.828C98.1867 293.42 98.8063 295.423 98.2873 296.828C97.9986 297.608 97.1313 298.818 92.8346 299.576C89.8288 300.105 84.776 300.477 78.0401 298.541Z" fill="url(#paint5_linear_1041_7139)"/>
<ellipse cx="174.746" cy="55.9673" rx="55.7455" ry="55.9673" fill="#6A0000"/>
<path d="M173.46 81.9881C171.515 82.116 169.706 81.2091 168.7 79.5912L151.796 52.4065C150.212 49.8587 151.066 46.3694 153.702 44.6132C156.335 42.8582 159.754 43.4989 161.336 46.0456L173.059 64.9162L188.528 33.3653C189.916 30.534 193.251 29.2353 195.976 30.4626C198.699 31.6898 199.783 34.9786 198.397 37.8087L178.407 78.614C177.491 80.482 175.672 81.768 173.655 81.9708C173.59 81.9777 173.525 81.9835 173.46 81.9881Z" fill="white"/>
<defs>
<linearGradient id="paint0_linear_1041_7139" x1="159.337" y1="144.296" x2="115.956" y2="217.27" gradientUnits="userSpaceOnUse">
<stop stop-color="#FFC444"/>
<stop offset="0.3138" stop-color="#FBA94A"/>
<stop offset="0.9964" stop-color="#F36F56"/>
</linearGradient>
<linearGradient id="paint1_linear_1041_7139" x1="198.796" y1="146.071" x2="153.8" y2="221.762" gradientUnits="userSpaceOnUse">
<stop stop-color="#FFC444"/>
<stop offset="0.3138" stop-color="#FBA94A"/>
<stop offset="0.9964" stop-color="#F36F56"/>
</linearGradient>
<linearGradient id="paint2_linear_1041_7139" x1="213.808" y1="198.482" x2="142.961" y2="317.66" gradientUnits="userSpaceOnUse">
<stop stop-color="#FFC444"/>
<stop offset="0.3138" stop-color="#FBA94A"/>
<stop offset="0.9964" stop-color="#F36F56"/>
</linearGradient>
<linearGradient id="paint3_linear_1041_7139" x1="150.86" y1="198.74" x2="84.8842" y2="309.724" gradientUnits="userSpaceOnUse">
<stop stop-color="#FFC444"/>
<stop offset="0.3138" stop-color="#FBA94A"/>
<stop offset="0.9964" stop-color="#F36F56"/>
</linearGradient>
<linearGradient id="paint4_linear_1041_7139" x1="114.609" y1="232.155" x2="87.9835" y2="282.759" gradientUnits="userSpaceOnUse">
<stop stop-color="#6A0000"/>
<stop offset="0.9964" stop-color="#6A0000"/>
</linearGradient>
<linearGradient id="paint5_linear_1041_7139" x1="98.5587" y1="264.948" x2="50.8749" y2="319.331" gradientUnits="userSpaceOnUse">
<stop offset="0.00359712" stop-color="#FF9090"/>
<stop offset="1" stop-color="#3D0707"/>
</linearGradient>
</defs>
</svg>
