<svg width="16" height="16" viewBox="0 0 16 16" fill="none" xmlns="http://www.w3.org/2000/svg">
<path d="M11.827 15.1667H4.17366C2.51366 15.1667 1.16699 13.8201 1.16699 12.1601V7.67342C1.16699 6.01342 2.51366 4.66675 4.17366 4.66675H11.827C13.487 4.66675 14.8337 6.01342 14.8337 7.67342V8.63342C14.8337 8.90676 14.607 9.13342 14.3337 9.13342H12.987C12.7537 9.13342 12.5403 9.22009 12.387 9.38009L12.3803 9.38676C12.1937 9.56676 12.107 9.8134 12.127 10.0667C12.167 10.5067 12.587 10.8601 13.067 10.8601H14.3337C14.607 10.8601 14.8337 11.0867 14.8337 11.3601V12.1534C14.8337 13.8201 13.487 15.1667 11.827 15.1667ZM4.17366 5.66675C3.06699 5.66675 2.16699 6.56675 2.16699 7.67342V12.1601C2.16699 13.2667 3.06699 14.1667 4.17366 14.1667H11.827C12.9337 14.1667 13.8337 13.2667 13.8337 12.1601V11.8667H13.067C12.0603 11.8667 11.207 11.1201 11.127 10.1601C11.0737 9.61341 11.2737 9.07343 11.6737 8.68009C12.0203 8.32676 12.487 8.13342 12.987 8.13342H13.8337V7.67342C13.8337 6.56675 12.9337 5.66675 11.827 5.66675H4.17366Z" fill="#323232"/>
<path d="M1.66699 8.77326C1.39366 8.77326 1.16699 8.54659 1.16699 8.27326V5.22663C1.16699 4.23329 1.79366 3.33326 2.72033 2.97992L8.01366 0.979922C8.56033 0.773255 9.16699 0.846621 9.64033 1.17995C10.1203 1.51329 10.4003 2.05328 10.4003 2.63328V5.16661C10.4003 5.43994 10.1737 5.66661 9.90033 5.66661C9.62699 5.66661 9.40033 5.43994 9.40033 5.16661V2.63328C9.40033 2.37995 9.28033 2.14661 9.06699 1.99994C8.85366 1.85327 8.60033 1.81994 8.36033 1.91327L3.06699 3.91327C2.52699 4.11994 2.16033 4.64663 2.16033 5.22663V8.27326C2.16699 8.55326 1.94033 8.77326 1.66699 8.77326Z" fill="#323232"/>
<path d="M13.0666 11.8666C12.06 11.8666 11.2066 11.12 11.1266 10.16C11.0733 9.60662 11.2733 9.06663 11.6733 8.6733C12.0133 8.32663 12.48 8.1333 12.98 8.1333H14.3666C15.0266 8.1533 15.5333 8.67327 15.5333 9.31327V10.6866C15.5333 11.3266 15.0266 11.8466 14.3866 11.8666H13.0666ZM14.3533 9.1333H12.9866C12.7533 9.1333 12.54 9.21996 12.3866 9.37996C12.1933 9.56663 12.1 9.81995 12.1266 10.0733C12.1666 10.5133 12.5866 10.8666 13.0666 10.8666H14.3733C14.46 10.8666 14.54 10.7866 14.54 10.6866V9.31327C14.54 9.21327 14.46 9.13997 14.3533 9.1333Z" fill="#323232"/>
<path d="M9.33366 8.5H4.66699C4.39366 8.5 4.16699 8.27333 4.16699 8C4.16699 7.72667 4.39366 7.5 4.66699 7.5H9.33366C9.60699 7.5 9.83366 7.72667 9.83366 8C9.83366 8.27333 9.60699 8.5 9.33366 8.5Z" fill="#323232"/>
</svg>
