<svg width="24" height="24" viewBox="0 0 24 24" fill="none" xmlns="http://www.w3.org/2000/svg">
<path d="M7.35242 16.6133H6.4286V15.8225H6.01953V17.7828H6.4286V16.9867H7.35242V17.7828H7.76149V15.8225H7.35242V16.6133Z" fill="white"/>
<path d="M9.65702 16.9445C9.65702 17.2632 9.49429 17.4334 9.19872 17.4334C8.9014 17.4334 8.73768 17.2583 8.73768 16.9311V15.8237H8.32861V16.9445C8.32861 17.4959 8.64372 17.8121 9.19323 17.8121C9.74804 17.8121 10.0661 17.49 10.0661 16.9282V15.8225H9.657V16.9445H9.65702Z" fill="white"/>
<path d="M14.3856 17.1704L13.9277 15.822H13.5938L13.1361 17.1704L12.6907 15.8233H12.2552L12.9579 17.7829H13.2967L13.7552 16.4955L14.2137 17.7829H14.5553L15.2563 15.8233H14.832L14.3856 17.1704Z" fill="white"/>
<path d="M15.9895 16.9391H16.7338V16.5821H15.9895V16.1808H17.0696V15.8237H15.5859V17.7816H17.1087V17.4246H15.9895V16.9391Z" fill="white"/>
<path d="M18 15.8223H17.5964V17.7801H18V15.8223Z" fill="white"/>
<path d="M11.7976 17.3736L11.9786 17.7815H12.4074L11.5227 15.8225H11.1619L10.2734 17.7815H10.6911L10.8749 17.3736H11.7976ZM11.3352 16.3184L11.6454 17.0202H11.0269L11.3352 16.3184Z" fill="white"/>
<path d="M17.1326 9.37303C17.1992 8.3693 16.1599 7.44041 16.1599 7.44041C16.1599 7.44041 14.2332 9.70938 12.8288 12.6896C12.8215 12.7052 12.8188 12.7312 12.8354 12.745C12.8467 12.7542 12.8678 12.7606 12.8893 12.7502C13.4156 12.4962 15.6039 11.4006 16.5256 10.5458C16.5256 10.5458 17.1021 10.0955 17.1326 9.37303ZM14.6762 7.10844C14.6762 7.10844 14.4352 6.23387 13.4578 6.00293C13.4578 6.00293 13.1763 5.93341 12.8772 5.89258C12.8772 5.89258 11.7847 7.25999 12.3158 12.4197C12.3183 12.4467 12.3336 12.4564 12.3461 12.4598C12.3662 12.4649 12.3852 12.4579 12.3982 12.4396C12.7485 11.9476 14.3459 9.64536 14.6704 8.24528C14.6704 8.24528 14.8462 7.56766 14.6762 7.10844ZM13.1785 13.4793C13.1726 13.4905 13.1675 13.5184 13.1896 13.534C13.5424 13.7799 14.6123 14.5073 15.1279 14.6484C15.1279 14.6484 16.081 14.9643 16.9089 13.5816C16.9089 13.5816 14.1386 13.4878 13.2174 13.4567C13.2046 13.4561 13.1859 13.4648 13.1785 13.4793ZM17.8903 10.4121C17.8903 10.4121 14.7561 12.0484 13.1359 13.1099C13.124 13.1176 13.1089 13.133 13.1169 13.1611C13.1212 13.1761 13.1357 13.1895 13.1552 13.1895C13.7352 13.1904 15.9316 13.1931 15.9868 13.183C15.9868 13.183 16.2707 13.1722 16.6217 13.0411C16.6217 13.0411 17.4028 12.7997 17.8085 11.9373C17.8085 11.9373 18.1703 11.2339 17.8903 10.4121ZM10.8606 13.1099C9.24057 12.0484 6.10636 10.4121 6.10636 10.4121C5.82624 11.2338 6.18802 11.9373 6.18802 11.9373C6.59376 12.7997 7.37479 13.0411 7.37479 13.0411C7.72584 13.1722 8.00967 13.183 8.00967 13.183C8.06496 13.193 10.2613 13.1904 10.8413 13.1894C10.8608 13.1894 10.8753 13.1761 10.8796 13.1611C10.8876 13.133 10.8725 13.1177 10.8606 13.1099ZM10.7792 13.4567C9.85807 13.4878 7.08763 13.5816 7.08763 13.5816C7.91551 14.9643 8.86864 14.6484 8.86864 14.6484C9.38418 14.5073 10.4541 13.7799 10.8069 13.534C10.8292 13.5184 10.8239 13.4905 10.818 13.4793C10.8106 13.4648 10.7919 13.4561 10.7792 13.4567ZM10.5387 6.00293C9.56136 6.23387 9.32029 7.10844 9.32029 7.10844C9.15034 7.56766 9.32616 8.24528 9.32616 8.24528C9.65063 9.64536 11.248 11.9476 11.5983 12.4396C11.6114 12.4579 11.6305 12.4649 11.6504 12.4598C11.6631 12.4564 11.6782 12.4467 11.6809 12.4197C12.2119 7.25999 11.1193 5.89258 11.1193 5.89258C10.8202 5.93341 10.5387 6.00293 10.5387 6.00293ZM7.83659 7.44041C7.83659 7.44041 6.79752 8.36932 6.86394 9.37303C6.8944 10.0955 7.47069 10.5458 7.47069 10.5458C8.39274 11.4006 10.5809 12.4962 11.1071 12.7502C11.1288 12.7606 11.1495 12.7541 11.1611 12.745C11.1779 12.7312 11.1749 12.7052 11.1677 12.6896C9.76334 9.70938 7.83659 7.44041 7.83659 7.44041Z" fill="white"/>
<circle cx="12" cy="12" r="11.5" stroke="white"/>
</svg>
