<svg width="24" height="24" viewBox="0 0 24 24" fill="none" xmlns="http://www.w3.org/2000/svg">
<circle cx="12" cy="12" r="11.5" stroke="white"/>
<path d="M16.8246 14.337C16.785 14.2757 16.7205 14.2347 16.6481 14.225C15.6961 14.1006 15.0251 13.228 15.1494 12.276C15.2373 11.6035 15.7082 11.0434 16.3556 10.8415C16.4871 10.7993 16.5596 10.6586 16.5174 10.5271C16.5109 10.5067 16.5017 10.4871 16.4901 10.469C16.0532 9.6805 15.2764 9.13823 14.3857 9C13.9368 9.02142 13.4944 9.11618 13.0762 9.2805C12.7758 9.40139 12.4586 9.47543 12.1357 9.49999C11.8128 9.47543 11.4956 9.40139 11.1952 9.2805C10.7769 9.11618 10.3346 9.02142 9.88571 9C8.95222 9 7.13574 10.3235 7.13574 12.75C7.13574 15.0559 8.81772 17.9999 10.1357 17.9999C10.6386 18.0044 11.1355 17.89 11.5857 17.6659C11.7553 17.5724 11.9427 17.5158 12.1357 17.4999C12.3287 17.5158 12.5161 17.5724 12.6857 17.6659C13.136 17.89 13.6328 18.0044 14.1357 17.9999C15.1807 17.9999 16.3602 16.2059 16.8542 14.5435C16.8748 14.4736 16.8641 14.3982 16.8246 14.337Z" fill="white"/>
<path d="M11.8857 8.99997C13.4038 8.99831 14.6341 7.76808 14.6357 6.25001C14.6357 6.11194 14.5238 6 14.3857 6C12.8676 6.00166 11.6374 7.23189 11.6357 8.74996C11.6357 8.88803 11.7477 8.99997 11.8857 8.99997Z" fill="white"/>
</svg>
