<svg width="24" height="24" viewBox="0 0 24 24" fill="none" xmlns="http://www.w3.org/2000/svg">
<circle cx="12" cy="12" r="11.5" stroke="white"/>
<g clip-path="url(#clip0_1159_13613)">
<path d="M6.89094 6.44189C6.74857 6.62967 6.66931 6.86066 6.66931 7.10785V16.8919C6.66931 17.1215 6.73793 17.3372 6.86186 17.5174L12.1959 11.9645L6.89094 6.44189Z" fill="white"/>
<path d="M12.6842 11.4561L14.4146 9.6547L8.33195 6.14979C8.06795 5.99763 7.76505 5.96155 7.48242 6.04084L12.6842 11.4561Z" fill="white"/>
<path d="M12.6842 12.4729L7.42993 17.9428C7.54322 17.9808 7.66045 17.9999 7.77778 17.9999C7.96812 17.9999 8.15856 17.95 8.33202 17.85L14.4584 14.3198L12.6842 12.4729Z" fill="white"/>
<path d="M16.8218 11.0418L15.0435 10.0171L13.1727 11.9645L15.0872 13.9576L16.8218 12.958C17.1689 12.7581 17.3762 12.3998 17.3762 11.9999C17.3762 11.5999 17.1689 11.2418 16.8218 11.0418Z" fill="white"/>
</g>
<defs>
<clipPath id="clip0_1159_13613">
<rect width="12" height="12" fill="white" transform="translate(6 6)"/>
</clipPath>
</defs>
</svg>
