<svg width="20" height="20" viewBox="0 0 20 20" fill="none" xmlns="http://www.w3.org/2000/svg">
<g clip-path="url(#clip0_1247_4552)">
<path d="M18.8132 14.9231C18.8132 16.0866 17.8668 17.033 16.7033 17.033C15.5398 17.033 14.5934 16.0866 14.5934 14.9231C14.5934 13.7596 15.5398 12.8132 16.7033 12.8132C17.8668 12.8132 18.8132 13.7596 18.8132 14.9231ZM15.8242 10.1319C15.8242 10.5203 16.1391 10.8352 16.5275 10.8352H19.2898C19.5711 10.8352 19.7387 10.5212 19.5819 10.2877C19.3937 10.0078 19.0664 9.5343 18.4677 8.65716C18.1398 8.17672 17.5969 7.89012 17.0154 7.89012H16.1758C15.9816 7.89012 15.8242 8.04757 15.8242 8.24177V10.1319ZM16.5275 11.5385C15.7507 11.5385 15.1209 10.9087 15.1209 10.1319V8.24177C15.1209 8.04757 14.9634 7.89012 14.7692 7.89012H14.7253C14.5311 7.89012 14.3736 8.04757 14.3736 8.24177V12.4522C14.3736 12.7459 14.7143 12.9143 14.9431 12.7302C16.7733 11.2573 19.5171 12.5675 19.5169 14.9199C19.5169 15.2254 20 15.3373 20 14.9231V11.8901C20 11.6959 19.8426 11.5385 19.6484 11.5385H16.5275ZM1.34801 9.95606C1.54221 9.95606 1.69966 9.79861 1.69966 9.60441C1.69966 9.41021 1.54221 9.25276 1.34801 9.25276H0.791218C0.59702 9.25276 0.439569 9.41021 0.439569 9.60441C0.439569 9.79861 0.59702 9.95606 0.791218 9.95606H1.34801ZM13.6703 4.37364V14.9231C13.6703 15.1173 13.5129 15.2747 13.3187 15.2747H9.31821C9.12239 15.2747 8.96753 15.1144 8.96749 14.9186C8.96714 13.3901 7.72045 12.1099 6.15386 12.1099C4.58551 12.1099 3.34067 13.3914 3.34027 14.9186C3.34023 15.1144 3.18537 15.2747 2.98955 15.2747H2.72529C2.53109 15.2747 2.37364 15.1173 2.37364 14.9231V12.1539H0.351657C0.149723 12.1539 -0.0124749 11.9836 0.000755836 11.7788C0.0128438 11.5919 0.176404 11.4506 0.363701 11.4506H2.37364V11.011C2.37364 10.8168 2.53109 10.6594 2.72529 10.6594H4.70331C4.90524 10.6594 5.06744 10.4891 5.05421 10.2843C5.04212 10.0974 4.87856 9.95606 4.69126 9.95606H2.72529C2.53109 9.95606 2.37364 9.79861 2.37364 9.60441V8.8132C2.37364 8.619 2.53109 8.46155 2.72529 8.46155H4.52748C4.72942 8.46155 4.89162 8.29131 4.87839 8.08652C4.8663 7.89962 4.70274 7.75825 4.51544 7.75825C4.15232 7.75825 1.97443 7.75825 1.67034 7.75825C1.46841 7.75825 1.30621 7.58801 1.31944 7.38322C1.33153 7.19632 1.49509 7.05496 1.68238 7.05496H2.37364V6.6154C2.37364 6.4212 2.53109 6.26375 2.72529 6.26375H4.52748C4.72942 6.26375 4.89162 6.09351 4.87839 5.88871C4.8663 5.70181 4.70274 5.56045 4.51544 5.56045C4.06678 5.56045 0.770031 5.56045 0.351657 5.56045C0.149723 5.56045 -0.0124749 5.39021 0.000755836 5.18542C0.0128438 4.99852 0.176404 4.85715 0.363701 4.85715H2.37364V4.37364C2.37364 3.5968 3.0034 2.96704 3.78023 2.96704H12.2638C13.0406 2.96704 13.6703 3.5968 13.6703 4.37364V4.37364ZM4.6154 11.8022C4.6154 11.608 4.45795 11.4506 4.26375 11.4506H3.25276C3.05856 11.4506 2.90111 11.608 2.90111 11.8022C2.90111 11.9964 3.05856 12.1539 3.25276 12.1539H4.26375C4.45795 12.1539 4.6154 11.9964 4.6154 11.8022ZM6.98902 7.40661C6.98902 7.21241 6.83157 7.05496 6.63738 7.05496H6.1099C5.91571 7.05496 5.75825 7.21241 5.75825 7.40661C5.75825 7.6008 5.91571 7.75825 6.1099 7.75825H6.63738C6.83157 7.75825 6.98902 7.6008 6.98902 7.40661ZM6.15386 12.8132C4.99034 12.8132 4.04397 13.7596 4.04397 14.9231C4.04397 16.0866 4.99034 17.033 6.15386 17.033C7.31738 17.033 8.26375 16.0866 8.26375 14.9231C8.26375 13.7596 7.31738 12.8132 6.15386 12.8132Z" fill="white"/>
</g>
<defs>
<clipPath id="clip0_1247_4552">
<rect width="20" height="20" fill="white"/>
</clipPath>
</defs>
</svg>
