<svg width="24" height="24" viewBox="0 0 24 24" fill="none" xmlns="http://www.w3.org/2000/svg">
<path d="M12 7.07987C10.3989 7.07987 10.2092 7.08437 9.57705 7.11662C9.19709 7.12074 8.82076 7.19102 8.46494 7.32433C8.20518 7.42145 7.97029 7.57515 7.77727 7.77427C7.57709 7.96642 7.42323 8.20156 7.32733 8.46193C7.1951 8.81806 7.12484 9.1942 7.11961 9.57404C7.09186 10.2062 7.08286 10.399 7.08286 11.997C7.08286 13.5951 7.08736 13.7878 7.11961 14.4199C7.12374 14.7999 7.19404 15.1762 7.32733 15.532C7.42551 15.7926 7.57902 16.0287 7.77727 16.2242C7.96986 16.4239 8.20488 16.5776 8.46494 16.6742C8.82106 16.8064 9.1972 16.8766 9.57705 16.8819C10.2092 16.9096 10.4019 16.9186 12 16.9186C13.598 16.9186 13.7908 16.9141 14.4229 16.8819C14.8029 16.8777 15.1792 16.8075 15.535 16.6742C15.7956 16.576 16.0317 16.4224 16.2272 16.2242C16.427 16.03 16.5807 15.7935 16.6772 15.532C16.8094 15.1759 16.8796 14.7998 16.8849 14.4199C16.9126 13.7878 16.9216 13.5951 16.9216 11.997C16.9216 10.399 16.9171 10.2062 16.8849 9.57404C16.8807 9.19409 16.8104 8.81777 16.6772 8.46193C16.58 8.20218 16.4263 7.96729 16.2272 7.77427C16.0342 7.57305 15.7973 7.41907 15.535 7.32433C15.1789 7.19209 14.8028 7.12185 14.4229 7.11662C13.7908 7.08887 13.598 7.07987 12 7.07987ZM12 6C13.6288 6 13.832 6.00901 14.4747 6.03675C14.973 6.04607 15.4661 6.13962 15.9332 6.31346C16.3335 6.46346 16.6958 6.69979 16.9944 7.00563C17.2992 7.305 17.5354 7.66707 17.6865 8.06675C17.8608 8.53372 17.9544 9.02693 17.9632 9.5253C17.991 10.1665 18 10.3697 18 12C18 13.6303 17.9955 13.832 17.9632 14.4747C17.9539 14.973 17.8604 15.4661 17.6865 15.9333C17.532 16.3312 17.2963 16.6926 16.9945 16.9945C16.6926 17.2963 16.3312 17.532 15.9332 17.6865C15.4663 17.8608 14.973 17.9544 14.4747 17.9632C13.8335 17.991 13.6303 18 12 18C10.3697 18 10.168 17.9955 9.5253 17.9632C9.02699 17.9539 8.53384 17.8604 8.06674 17.6865C7.6665 17.5365 7.30421 17.3002 7.00562 16.9944C6.70076 16.695 6.46459 16.3329 6.31346 15.9333C6.13916 15.4663 6.04558 14.973 6.03674 14.4747C6.009 13.8335 6 13.6303 6 12C6 10.3697 6.0045 10.168 6.03674 9.5253C6.04606 9.02698 6.13962 8.53385 6.31346 8.06675C6.46797 7.6688 6.70366 7.30739 7.00552 7.00553C7.30738 6.70368 7.66879 6.46797 8.06674 6.31346C8.53371 6.13916 9.02694 6.04559 9.5253 6.03675C10.1665 6.00901 10.3697 6 12 6Z" fill="white"/>
<path d="M12 8.97827C12.5984 8.97827 13.1835 9.15574 13.6811 9.48822C14.1787 9.82071 14.5665 10.2933 14.7955 10.8462C15.0245 11.3991 15.0845 12.0075 14.9677 12.5945C14.851 13.1814 14.5628 13.7206 14.1396 14.1438C13.7164 14.5669 13.1773 14.8551 12.5903 14.9719C12.0033 15.0886 11.3949 15.0287 10.842 14.7997C10.2891 14.5707 9.81656 14.1828 9.48407 13.6852C9.15158 13.1876 8.97412 12.6026 8.97412 12.0041C8.97402 11.6068 9.05222 11.2132 9.20425 10.8461C9.35628 10.4789 9.57916 10.1453 9.86015 9.86432C10.1412 9.58332 10.4748 9.36044 10.8419 9.20841C11.2091 9.05638 11.6026 8.97817 12 8.97827ZM12 13.9652C12.3878 13.9652 12.767 13.8502 13.0895 13.6347C13.412 13.4192 13.6633 13.1129 13.8117 12.7546C13.9601 12.3963 13.999 12.002 13.9233 11.6216C13.8477 11.2412 13.6609 10.8918 13.3866 10.6175C13.1124 10.3433 12.763 10.1565 12.3826 10.0808C12.0022 10.0052 11.6079 10.044 11.2495 10.1924C10.8912 10.3409 10.585 10.5922 10.3695 10.9147C10.154 11.2372 10.039 11.6163 10.039 12.0041C10.0392 12.5242 10.2459 13.0229 10.6136 13.3906C10.9813 13.7583 11.48 13.965 12 13.9652Z" fill="white"/>
<path d="M8.07214 8.80496C8.07214 8.95016 8.1152 9.09209 8.19587 9.21282C8.27654 9.33355 8.3912 9.42767 8.52535 9.48324C8.6595 9.5388 8.80711 9.55333 8.94953 9.525C9.09194 9.49667 9.22276 9.42677 9.32543 9.32409C9.4281 9.22142 9.49802 9.09059 9.52635 8.94818C9.55468 8.80576 9.54014 8.65815 9.48457 8.524C9.42901 8.38985 9.33491 8.27519 9.21418 8.19452C9.09345 8.11385 8.9515 8.0708 8.8063 8.0708C8.61165 8.071 8.42503 8.14842 8.28739 8.28606C8.14975 8.4237 8.07234 8.61031 8.07214 8.80496Z" fill="white"/>
<circle cx="12" cy="12" r="11.5" stroke="white"/>
</svg>
