<svg width="24" height="24" viewBox="0 0 24 24" fill="none" xmlns="http://www.w3.org/2000/svg">
<circle cx="12" cy="12" r="11.5" stroke="white"/>
<g clip-path="url(#clip0_1844_4604)">
<path d="M11.9947 6.86419C13.6052 6.86473 14.9468 8.20556 14.9487 9.82C14.9492 10.1981 14.9609 10.5463 14.9822 10.8671C14.9954 11.065 15.16 11.2117 15.3487 11.2117C15.3765 11.2117 15.4049 11.2085 15.4333 11.2018L15.9378 11.0836C15.9593 11.0785 15.9808 11.0761 16.0021 11.0761C16.1303 11.0761 16.2483 11.1637 16.277 11.2933C16.3177 11.4766 16.215 11.6617 16.0375 11.724L15.2716 12.0332C15.0783 12.1112 14.9744 12.3217 15.0289 12.5229C15.6433 14.7945 17.3595 14.5582 17.3595 14.8542C17.3595 15.2258 16.0659 15.2783 15.9491 15.3952C15.8322 15.5121 15.944 16.0793 15.6829 16.1891C15.6336 16.2098 15.5637 16.217 15.4784 16.217C15.2817 16.217 15.0036 16.1787 14.7104 16.1787C14.4561 16.1787 14.1905 16.2075 13.957 16.3154C13.3376 16.6016 12.7403 17.136 12 17.136C11.2597 17.136 10.6625 16.6016 10.043 16.3154C9.80947 16.2075 9.54395 16.1787 9.28962 16.1787C8.99647 16.1787 8.71826 16.217 8.52161 16.217C8.43636 16.217 8.36636 16.2098 8.31717 16.1891C8.05605 16.0793 8.16784 15.5121 8.05098 15.3952C7.93411 15.2783 6.64056 15.2258 6.64056 14.8542C6.64056 14.5582 8.35673 14.7944 8.97116 12.5229C9.0256 12.3217 8.92176 12.1112 8.72838 12.0331L7.96253 11.724C7.78494 11.6617 7.68227 11.4766 7.72296 11.2933C7.75173 11.1636 7.86972 11.0761 7.99786 11.0761C8.01913 11.0761 8.0407 11.0785 8.06217 11.0835L8.56671 11.2018C8.59515 11.2085 8.62346 11.2117 8.65126 11.2117C8.83999 11.2117 9.00462 11.065 9.01779 10.8671C9.03913 10.5463 9.05082 10.1981 9.05128 9.81998C9.05322 8.20556 10.3841 6.86476 11.9947 6.86419ZM11.9949 6.22363H11.9947H11.9944C11.5137 6.22379 11.0454 6.32038 10.6026 6.51076C10.1775 6.69347 9.79499 6.954 9.46559 7.28512C9.13663 7.6158 8.87774 7.99971 8.69612 8.42617C8.50729 8.86961 8.41125 9.3383 8.41066 9.81921C8.41038 10.0553 8.40549 10.2845 8.39606 10.5039L8.20835 10.4599C8.13948 10.4437 8.06866 10.4355 7.99791 10.4355C7.79362 10.4355 7.5921 10.5045 7.43048 10.6299C7.26186 10.7608 7.14361 10.9471 7.09756 11.1545C6.98798 11.6483 7.26065 12.1469 7.73318 12.3222L8.29526 12.5491C7.92307 13.6915 7.23677 13.9104 6.77462 14.0579C6.65199 14.097 6.54607 14.1308 6.44522 14.1808C6.04338 14.3803 6 14.7181 6 14.8542C6 15.1147 6.1233 15.3524 6.34721 15.5235C6.45869 15.6087 6.5968 15.679 6.76939 15.7385C7.00463 15.8195 7.27733 15.8709 7.49897 15.9121C7.50968 15.9942 7.52538 16.0824 7.55185 16.1713C7.66175 16.5405 7.89365 16.7059 8.06886 16.7796C8.2351 16.8495 8.40687 16.8575 8.52161 16.8575C8.63384 16.8575 8.75247 16.8488 8.87807 16.8395C9.01282 16.8295 9.15215 16.8192 9.28962 16.8192C9.50264 16.8192 9.66122 16.8446 9.77439 16.8969C9.92979 16.9686 10.0946 17.0654 10.2691 17.1679C10.7548 17.4532 11.3054 17.7765 12 17.7765C12.6946 17.7765 13.2452 17.4532 13.7309 17.1679C13.9054 17.0654 14.0702 16.9686 14.2256 16.8969C14.3388 16.8446 14.4974 16.8192 14.7104 16.8192C14.8479 16.8192 14.9872 16.8295 15.1219 16.8395C15.2475 16.8488 15.3662 16.8575 15.4784 16.8575C15.5931 16.8575 15.7649 16.8495 15.9311 16.7796C16.1063 16.7059 16.3383 16.5405 16.4482 16.1713C16.4746 16.0824 16.4904 15.9942 16.501 15.9121C16.7227 15.8708 16.9954 15.8195 17.2306 15.7385C17.4032 15.679 17.5413 15.6087 17.6528 15.5235C17.8767 15.3524 18 15.1147 18 14.8542C18 14.7181 17.9566 14.3803 17.5547 14.1808C17.4539 14.1308 17.348 14.097 17.2253 14.0579C16.7632 13.9104 16.0769 13.6915 15.7047 12.5491L16.2667 12.3222C16.7393 12.1469 17.012 11.6483 16.9024 11.1545C16.8563 10.9471 16.7381 10.7608 16.5695 10.6299C16.4078 10.5046 16.2064 10.4355 16.0021 10.4355C15.9314 10.4355 15.8606 10.4437 15.7917 10.4598L15.6039 10.5039C15.5945 10.2845 15.5896 10.0553 15.5893 9.81918C15.5887 9.33789 15.4919 8.86874 15.3016 8.42471C15.1189 7.99845 14.8586 7.61465 14.5279 7.28394C14.1973 6.95326 13.8137 6.69301 13.3878 6.51045C12.9441 6.32031 12.4755 6.22381 11.9949 6.22363Z" fill="white"/>
</g>
<defs>
<clipPath id="clip0_1844_4604">
<rect width="12" height="12" fill="white" transform="translate(6 6)"/>
</clipPath>
</defs>
</svg>
