<svg width="24" height="24" viewBox="0 0 24 24" fill="none" xmlns="http://www.w3.org/2000/svg">
<path fill-rule="evenodd" clip-rule="evenodd" d="M6.00375 11.7026C6.05282 10.1826 6.68761 8.74047 7.77541 7.67771C8.86322 6.61495 10.3198 6.0139 11.8405 6.00024C13.3612 5.98658 14.8283 6.56137 15.9351 7.60442C17.0418 8.64748 17.7024 10.078 17.7787 11.5969C17.7832 11.6846 17.7832 11.7671 17.7832 11.8549C17.7841 12.9198 17.4919 13.9644 16.9387 14.8744L18 18.0086L14.7383 16.9714C13.844 17.4625 12.8377 17.7133 11.8176 17.6993C10.7974 17.6853 9.79836 17.407 8.91795 16.8915C8.03754 16.376 7.30589 15.641 6.79445 14.7582C6.28301 13.8754 6.00929 12.8751 6 11.8549C6.00375 11.7994 6.00375 11.7476 6.00375 11.7026ZM11.895 16.7591C12.8636 16.7598 13.8114 16.4778 14.622 15.9476L16.5277 16.5559L15.9097 14.7304C16.5231 13.8953 16.853 12.8858 16.851 11.8496C16.851 11.6884 16.842 11.5316 16.8277 11.3749C16.6977 10.1502 16.1162 9.01779 15.1967 8.19849C14.2771 7.37918 13.0854 6.93167 11.8539 6.94319C10.6223 6.9547 9.4392 7.42443 8.53514 8.26079C7.63108 9.09715 7.0709 10.2402 6.96375 11.4671C6.95475 11.5961 6.94498 11.7206 6.94498 11.8496C6.94754 12.4971 7.07765 13.1377 7.32786 13.7349C7.57807 14.3321 7.94349 14.8741 8.40324 15.3301C8.86299 15.786 9.40805 16.1468 10.0073 16.392C10.6066 16.6372 11.2483 16.762 11.8957 16.7591H11.895Z" fill="white"/>
<path fill-rule="evenodd" clip-rule="evenodd" d="M8.97658 13.14C9.13708 13.0598 9.90584 12.6833 10.0513 12.633C10.1968 12.5828 10.3026 12.5528 10.4076 12.7133C10.5126 12.8738 10.8141 13.2203 10.9048 13.3208C10.9956 13.4213 11.0856 13.4363 11.2461 13.3613C11.7088 13.1774 12.1367 12.9159 12.5113 12.588C12.8551 12.2739 13.1496 11.9098 13.3851 11.508C13.4751 11.352 13.3948 11.2673 13.3146 11.1916C13.2343 11.1158 13.1586 11.0108 13.0783 10.9201C13.0582 10.8963 13.0397 10.8712 13.0228 10.845C12.9852 10.7854 12.9516 10.7233 12.9223 10.6591C12.9012 10.6166 12.891 10.5695 12.8927 10.522C12.8944 10.4746 12.9079 10.4284 12.9321 10.3876C12.9726 10.3073 13.2883 9.53854 13.4196 9.22729C13.5508 8.91604 13.6806 8.97156 13.7758 8.97156C13.8711 8.97156 13.9716 8.95654 14.0758 8.95654C14.1558 8.95876 14.2345 8.97727 14.3071 9.01093C14.3797 9.04458 14.4447 9.09269 14.4981 9.15231C14.6754 9.31862 14.8157 9.52034 14.91 9.74438C15.0044 9.96842 15.0505 10.2098 15.0456 10.4528C15.0418 10.633 15.0148 10.812 14.9653 10.9853C14.8416 11.3751 14.6513 11.7405 14.4028 12.0653C13.7473 13.0864 12.8179 13.9027 11.7208 14.421C10.1188 15.0435 10.1188 14.8328 9.83234 14.808C9.61324 14.766 9.40553 14.678 9.22288 14.5499C9.04022 14.4218 8.88674 14.2565 8.77257 14.0648C8.67188 13.8308 8.63889 13.5733 8.67734 13.3215C8.71559 13.2555 8.81533 13.215 8.97658 13.14Z" fill="white"/>
<circle cx="12" cy="12" r="11.5" stroke="white"/>
</svg>
