<svg width="24" height="24" viewBox="0 0 24 24" fill="none" xmlns="http://www.w3.org/2000/svg">
<path d="M8.00013 12.7584C7.9243 12.7584 7.84846 12.7409 7.77846 12.7001L2.62763 9.71925C2.42346 9.59675 2.34763 9.32841 2.47013 9.11841C2.59263 8.90841 2.86096 8.83841 3.07096 8.96091L8.00013 11.8134L12.9001 8.97841C13.1101 8.85591 13.3785 8.93175 13.501 9.13591C13.6235 9.34591 13.5476 9.61425 13.3435 9.73675L8.22763 12.7001C8.1518 12.7351 8.07596 12.7584 8.00013 12.7584Z" fill="white"/>
<path d="M8 18.0433C7.76083 18.0433 7.5625 17.8449 7.5625 17.6058V12.3149C7.5625 12.0758 7.76083 11.8774 8 11.8774C8.23917 11.8774 8.4375 12.0758 8.4375 12.3149V17.6058C8.4375 17.8449 8.23917 18.0433 8 18.0433Z" fill="white"/>
<path d="M8.00036 18.2709C7.48703 18.2709 6.97953 18.1601 6.57703 17.9384L3.46203 16.2059C2.6162 15.7392 1.95703 14.6134 1.95703 13.6451V10.3492C1.95703 9.38091 2.6162 8.26092 3.46203 7.78841L6.57703 6.06175C7.3762 5.61841 8.62453 5.61841 9.4237 6.06175L12.5387 7.79425C13.3845 8.26091 14.0437 9.38675 14.0437 10.3551V13.6509C14.0437 14.6192 13.3845 15.7392 12.5387 16.2117L9.4237 17.9384C9.0212 18.1601 8.5137 18.2709 8.00036 18.2709ZM8.00036 6.60425C7.63286 6.60425 7.2712 6.68008 7.00286 6.82591L3.88786 8.55841C3.32786 8.86758 2.83203 9.70758 2.83203 10.3492V13.6451C2.83203 14.2867 3.32786 15.1267 3.88786 15.4417L7.00286 17.1742C7.5337 17.4717 8.46703 17.4717 8.99786 17.1742L12.1129 15.4417C12.6729 15.1267 13.1687 14.2926 13.1687 13.6451V10.3492C13.1687 9.70758 12.6729 8.86758 12.1129 8.55258L8.99786 6.82008C8.72953 6.68008 8.36786 6.60425 8.00036 6.60425Z" fill="white"/>
<circle cx="12" cy="12" r="12" fill="#6A0000"/>
<path d="M12.0003 14.7709C11.767 14.7709 11.5337 14.7534 11.312 14.7126C10.0753 14.5317 8.94949 13.8201 8.23783 12.7642C7.74199 12.0176 7.47949 11.1484 7.47949 10.2501C7.47949 7.75925 9.50949 5.72925 12.0003 5.72925C14.4912 5.72925 16.5212 7.75925 16.5212 10.2501C16.5212 11.1484 16.2587 12.0176 15.7628 12.7642C15.0453 13.8259 13.9195 14.5318 12.6712 14.7184C12.467 14.7534 12.2337 14.7709 12.0003 14.7709ZM12.0003 6.60425C9.98783 6.60425 8.35449 8.23758 8.35449 10.2501C8.35449 10.9792 8.56449 11.6792 8.96116 12.2742C9.53866 13.1259 10.4428 13.6976 11.4462 13.8434C11.8195 13.9076 12.187 13.9076 12.5312 13.8434C13.552 13.6976 14.4562 13.1201 15.0337 12.2684C15.4303 11.6734 15.6403 10.9734 15.6403 10.2442C15.6462 8.23758 14.0128 6.60425 12.0003 6.60425Z" fill="white"/>
<path d="M8.77426 18.1774C8.6926 18.1774 8.61676 18.1657 8.5351 18.1482C8.15593 18.0607 7.86426 17.7691 7.77676 17.3899L7.5726 16.5324C7.56093 16.4799 7.5201 16.4391 7.46176 16.4216L6.49926 16.1941C6.1376 16.1066 5.85176 15.8382 5.7526 15.4824C5.65343 15.1266 5.7526 14.7416 6.0151 14.4791L8.2901 12.2041C8.38343 12.1107 8.51176 12.0641 8.6401 12.0757C8.76843 12.0874 8.8851 12.1574 8.96093 12.2682C9.53843 13.1199 10.4426 13.6974 11.4518 13.8432C11.8251 13.9074 12.1926 13.9074 12.5368 13.8432C13.5576 13.6974 14.4618 13.1199 15.0393 12.2682C15.1093 12.1574 15.2318 12.0874 15.3601 12.0757C15.4884 12.0641 15.6168 12.1107 15.7101 12.2041L17.9851 14.4791C18.2476 14.7416 18.3468 15.1266 18.2476 15.4824C18.1484 15.8382 17.8568 16.1124 17.5009 16.1941L16.5384 16.4216C16.4859 16.4332 16.4451 16.4741 16.4276 16.5324L16.2234 17.3899C16.1359 17.7691 15.8443 18.0607 15.4651 18.1482C15.0859 18.2416 14.6951 18.1074 14.4501 17.8099L12.0001 14.9924L9.5501 17.8157C9.35176 18.0491 9.07176 18.1774 8.77426 18.1774ZM8.5526 13.1841L6.63343 15.1032C6.58093 15.1557 6.58676 15.2141 6.59843 15.2491C6.60426 15.2782 6.63343 15.3366 6.70343 15.3482L7.66593 15.5757C8.0451 15.6632 8.33676 15.9549 8.42426 16.3341L8.62843 17.1916C8.64593 17.2674 8.70426 17.2907 8.73926 17.3024C8.77426 17.3082 8.8326 17.3141 8.8851 17.2557L11.1193 14.6832C10.1276 14.4907 9.2176 13.9599 8.5526 13.1841ZM12.8809 14.6774L15.1151 17.2441C15.1676 17.3082 15.2318 17.3082 15.2668 17.2966C15.3018 17.2907 15.3543 17.2616 15.3776 17.1857L15.5818 16.3282C15.6693 15.9491 15.9609 15.6574 16.3401 15.5699L17.3026 15.3424C17.3726 15.3249 17.4018 15.2724 17.4076 15.2432C17.4193 15.2141 17.4251 15.1499 17.3726 15.0974L15.4534 13.1782C14.7826 13.9541 13.8784 14.4849 12.8809 14.6774Z" fill="white"/>
<path d="M13.1025 12.5191C12.9508 12.5191 12.77 12.4782 12.5542 12.3499L12 12.0174L11.4458 12.3441C10.9383 12.6474 10.6058 12.4724 10.4833 12.3849C10.3608 12.2974 10.0983 12.0349 10.2325 11.4574L10.3725 10.8566L9.90583 10.4249C9.64917 10.1682 9.55583 9.85907 9.64333 9.57907C9.73083 9.29907 9.9875 9.10073 10.3492 9.04239L10.9733 8.9374L11.2708 8.28407C11.44 7.95157 11.7025 7.76489 12 7.76489C12.2975 7.76489 12.5658 7.95741 12.7292 8.28991L13.0733 8.97824L13.6508 9.04823C14.0067 9.10657 14.2633 9.30489 14.3567 9.58489C14.4442 9.86489 14.3508 10.1741 14.0942 10.4307L13.61 10.9149L13.7617 11.4574C13.8958 12.0349 13.6333 12.2974 13.5108 12.3849C13.4467 12.4374 13.3067 12.5191 13.1025 12.5191ZM10.6058 9.89407L11.0083 10.2966C11.195 10.4832 11.2883 10.7982 11.23 11.0549L11.1192 11.5216L11.5858 11.2474C11.8367 11.1016 12.175 11.1016 12.42 11.2474L12.8867 11.5216L12.7817 11.0549C12.7233 10.7924 12.8108 10.4832 12.9975 10.2966L13.4 9.89407L12.8925 9.80656C12.6475 9.76573 12.4025 9.5849 12.2917 9.36324L12 8.79156L11.7083 9.3749C11.6033 9.59073 11.3583 9.7774 11.1133 9.81824L10.6058 9.89407Z" fill="white"/>
</svg>
