<svg width="24" height="24" viewBox="0 0 24 24" fill="none" xmlns="http://www.w3.org/2000/svg">
<circle cx="12" cy="12" r="12" fill="#6A0000"/>
<path d="M12.0001 12.7584C11.9243 12.7584 11.8485 12.7409 11.7785 12.7001L6.62763 9.71925C6.42346 9.59675 6.34763 9.32841 6.47013 9.11841C6.59263 8.90841 6.86096 8.83841 7.07096 8.96091L12.0001 11.8134L16.9001 8.97841C17.1101 8.85591 17.3785 8.93175 17.501 9.13591C17.6235 9.34591 17.5476 9.61425 17.3435 9.73675L12.2276 12.7001C12.1518 12.7351 12.076 12.7584 12.0001 12.7584Z" fill="white"/>
<path d="M12 18.0433C11.7608 18.0433 11.5625 17.8449 11.5625 17.6058V12.3149C11.5625 12.0758 11.7608 11.8774 12 11.8774C12.2392 11.8774 12.4375 12.0758 12.4375 12.3149V17.6058C12.4375 17.8449 12.2392 18.0433 12 18.0433Z" fill="white"/>
<path d="M12.0004 18.2709C11.487 18.2709 10.9795 18.1601 10.577 17.9384L7.46203 16.2059C6.6162 15.7392 5.95703 14.6134 5.95703 13.6451V10.3492C5.95703 9.38091 6.6162 8.26092 7.46203 7.78841L10.577 6.06175C11.3762 5.61841 12.6245 5.61841 13.4237 6.06175L16.5387 7.79425C17.3845 8.26091 18.0437 9.38675 18.0437 10.3551V13.6509C18.0437 14.6192 17.3845 15.7392 16.5387 16.2117L13.4237 17.9384C13.0212 18.1601 12.5137 18.2709 12.0004 18.2709ZM12.0004 6.60425C11.6329 6.60425 11.2712 6.68008 11.0029 6.82591L7.88786 8.55841C7.32786 8.86758 6.83203 9.70758 6.83203 10.3492V13.6451C6.83203 14.2867 7.32786 15.1267 7.88786 15.4417L11.0029 17.1742C11.5337 17.4717 12.467 17.4717 12.9979 17.1742L16.1129 15.4417C16.6729 15.1267 17.1687 14.2926 17.1687 13.6451V10.3492C17.1687 9.70758 16.6729 8.86758 16.1129 8.55258L12.9979 6.82008C12.7295 6.68008 12.3679 6.60425 12.0004 6.60425Z" fill="white"/>
</svg>
