<svg width="12" height="12" viewBox="0 0 12 12" fill="none" xmlns="http://www.w3.org/2000/svg">
<path d="M11.8508 5.71253L10.5669 4.80733C10.3342 4.64334 10.0127 4.81033 10.0127 5.09467V5.64831H3.84768C3.65352 5.64831 3.49609 5.80572 3.49609 5.9999C3.49609 6.19408 3.65352 6.35146 3.84768 6.35146H10.0126V6.90508C10.0126 7.19129 10.3359 7.35517 10.5668 7.19242L11.8508 6.28722C12.0468 6.14908 12.0508 5.85381 11.8508 5.71253Z" fill="#777777"/>
<path d="M10.0892 8.2574C9.92114 8.16023 9.70603 8.21761 9.60879 8.3857C8.78295 9.81342 7.23919 10.7719 5.47507 10.7719C2.84384 10.7719 0.703148 8.63121 0.703148 5.99997C0.703148 3.36874 2.84384 1.22805 5.47507 1.22805C7.24036 1.22805 8.78341 2.18742 9.60877 3.6142C9.70599 3.78229 9.92114 3.83964 10.0891 3.7425C10.2572 3.64528 10.3146 3.43019 10.2174 3.26212C9.26761 1.62014 7.49365 0.524902 5.47507 0.524902C2.44898 0.524902 0 2.97363 0 5.99997C0 9.02606 2.44873 11.475 5.47507 11.475C7.49452 11.475 9.26803 10.379 10.2175 8.73778C10.3147 8.56971 10.2572 8.35464 10.0892 8.2574Z" fill="#777777"/>
</svg>
