<svg width="24" height="24" viewBox="0 0 24 24" fill="none" xmlns="http://www.w3.org/2000/svg">
<path d="M8.00013 12.7584C7.9243 12.7584 7.84846 12.7409 7.77846 12.7001L2.62763 9.71925C2.42346 9.59675 2.34763 9.32841 2.47013 9.11841C2.59263 8.90841 2.86096 8.83841 3.07096 8.96091L8.00013 11.8134L12.9001 8.97841C13.1101 8.85591 13.3785 8.93175 13.501 9.13591C13.6235 9.34591 13.5476 9.61425 13.3435 9.73675L8.22763 12.7001C8.1518 12.7351 8.07596 12.7584 8.00013 12.7584Z" fill="white"/>
<path d="M8 18.0433C7.76083 18.0433 7.5625 17.8449 7.5625 17.6058V12.3149C7.5625 12.0758 7.76083 11.8774 8 11.8774C8.23917 11.8774 8.4375 12.0758 8.4375 12.3149V17.6058C8.4375 17.8449 8.23917 18.0433 8 18.0433Z" fill="white"/>
<path d="M8.00036 18.2709C7.48703 18.2709 6.97953 18.1601 6.57703 17.9384L3.46203 16.2059C2.6162 15.7392 1.95703 14.6134 1.95703 13.6451V10.3492C1.95703 9.38091 2.6162 8.26092 3.46203 7.78841L6.57703 6.06175C7.3762 5.61841 8.62453 5.61841 9.4237 6.06175L12.5387 7.79425C13.3845 8.26091 14.0437 9.38675 14.0437 10.3551V13.6509C14.0437 14.6192 13.3845 15.7392 12.5387 16.2117L9.4237 17.9384C9.0212 18.1601 8.5137 18.2709 8.00036 18.2709ZM8.00036 6.60425C7.63286 6.60425 7.2712 6.68008 7.00286 6.82591L3.88786 8.55841C3.32786 8.86758 2.83203 9.70758 2.83203 10.3492V13.6451C2.83203 14.2867 3.32786 15.1267 3.88786 15.4417L7.00286 17.1742C7.5337 17.4717 8.46703 17.4717 8.99786 17.1742L12.1129 15.4417C12.6729 15.1267 13.1687 14.2926 13.1687 13.6451V10.3492C13.1687 9.70758 12.6729 8.86758 12.1129 8.55258L8.99786 6.82008C8.72953 6.68008 8.36786 6.60425 8.00036 6.60425Z" fill="white"/>
<circle cx="12" cy="12" r="12" fill="#6A0000"/>
<path d="M14.9166 17.1041H9.08326C6.60409 17.1041 5.79326 16.3633 5.73492 14.0533C5.73492 13.9366 5.77576 13.8199 5.85742 13.7383C5.93909 13.6566 6.04992 13.6041 6.17242 13.6041C7.05326 13.6041 7.77076 12.8808 7.77076 11.9999C7.77076 11.1191 7.05326 10.3958 6.17242 10.3958C6.05576 10.3958 5.94492 10.3491 5.85742 10.2616C5.76992 10.1741 5.72909 10.0633 5.73492 9.94658C5.79326 7.63658 6.60409 6.89575 9.08326 6.89575H14.9166C17.4891 6.89575 18.2708 7.67742 18.2708 10.2499V13.7499C18.2708 16.3224 17.4891 17.1041 14.9166 17.1041ZM6.62742 14.4383C6.72659 15.9199 7.22826 16.2291 9.08326 16.2291H14.9166C17.0049 16.2291 17.3958 15.8324 17.3958 13.7499V10.2499C17.3958 8.16742 17.0049 7.77075 14.9166 7.77075H9.08326C7.22826 7.77075 6.72659 8.08575 6.62742 9.56159C7.77659 9.78325 8.64576 10.7924 8.64576 11.9999C8.64576 13.2074 7.77659 14.2166 6.62742 14.4383Z" fill="white"/>
<path d="M10.25 9.81242C10.0108 9.81242 9.8125 9.61409 9.8125 9.37492V7.33325C9.8125 7.09409 10.0108 6.89575 10.25 6.89575C10.4892 6.89575 10.6875 7.09409 10.6875 7.33325V9.37492C10.6875 9.61409 10.4892 9.81242 10.25 9.81242Z" fill="white"/>
<path d="M10.25 17.1042C10.0108 17.1042 9.8125 16.9058 9.8125 16.6667V14.625C9.8125 14.3858 10.0108 14.1875 10.25 14.1875C10.4892 14.1875 10.6875 14.3858 10.6875 14.625V16.6667C10.6875 16.9058 10.4892 17.1042 10.25 17.1042Z" fill="white"/>
<path d="M12.6068 14.1292C12.4668 14.1292 12.3267 14.0825 12.2101 14.0009C12.0001 13.8492 11.8951 13.5925 11.9417 13.3359L12.0642 12.6417L11.5568 12.1458C11.3701 11.965 11.3059 11.6967 11.3817 11.4517C11.4634 11.2067 11.6734 11.0258 11.9301 10.9908L12.6301 10.8858L12.9451 10.25C13.0617 10.0167 13.2951 9.87085 13.5517 9.87085C13.8142 9.87085 14.0476 10.0167 14.1584 10.25L14.4734 10.8858L15.1734 10.9908C15.4301 11.0258 15.6401 11.2067 15.7217 11.4517C15.8034 11.6967 15.7334 11.965 15.5467 12.1458L15.0392 12.6417L15.1617 13.3359C15.2084 13.5925 15.1034 13.8492 14.8934 14.0009C14.6834 14.1525 14.4092 14.17 14.1817 14.0534L13.5576 13.7267L12.9276 14.0534C12.8284 14.1059 12.7176 14.1292 12.6068 14.1292ZM12.4493 11.7958L12.7467 12.0875C12.9101 12.245 12.9801 12.4667 12.9451 12.6883L12.8751 13.0967L13.2426 12.9042C13.4409 12.7992 13.6742 12.7992 13.8726 12.9042L14.2401 13.0967L14.1701 12.6883C14.1351 12.4609 14.2051 12.2392 14.3684 12.0875L14.6659 11.7958L14.2576 11.7375C14.0359 11.7025 13.8434 11.5625 13.7442 11.3642L13.5634 10.9908L13.3826 11.3642C13.2834 11.5625 13.0909 11.7025 12.8692 11.7375L12.4493 11.7958Z" fill="white"/>
</svg>
