<svg width="24" height="24" viewBox="0 0 24 24" fill="none" xmlns="http://www.w3.org/2000/svg">
<path d="M8.00013 12.7584C7.9243 12.7584 7.84846 12.7409 7.77846 12.7001L2.62763 9.71925C2.42346 9.59675 2.34763 9.32841 2.47013 9.11841C2.59263 8.90841 2.86096 8.83841 3.07096 8.96091L8.00013 11.8134L12.9001 8.97841C13.1101 8.85591 13.3785 8.93175 13.501 9.13591C13.6235 9.34591 13.5476 9.61425 13.3435 9.73675L8.22763 12.7001C8.1518 12.7351 8.07596 12.7584 8.00013 12.7584Z" fill="white"/>
<path d="M8 18.0433C7.76083 18.0433 7.5625 17.8449 7.5625 17.6058V12.3149C7.5625 12.0758 7.76083 11.8774 8 11.8774C8.23917 11.8774 8.4375 12.0758 8.4375 12.3149V17.6058C8.4375 17.8449 8.23917 18.0433 8 18.0433Z" fill="white"/>
<path d="M8.00036 18.2709C7.48703 18.2709 6.97953 18.1601 6.57703 17.9384L3.46203 16.2059C2.6162 15.7392 1.95703 14.6134 1.95703 13.6451V10.3492C1.95703 9.38091 2.6162 8.26092 3.46203 7.78841L6.57703 6.06175C7.3762 5.61841 8.62453 5.61841 9.4237 6.06175L12.5387 7.79425C13.3845 8.26091 14.0437 9.38675 14.0437 10.3551V13.6509C14.0437 14.6192 13.3845 15.7392 12.5387 16.2117L9.4237 17.9384C9.0212 18.1601 8.5137 18.2709 8.00036 18.2709ZM8.00036 6.60425C7.63286 6.60425 7.2712 6.68008 7.00286 6.82591L3.88786 8.55841C3.32786 8.86758 2.83203 9.70758 2.83203 10.3492V13.6451C2.83203 14.2867 3.32786 15.1267 3.88786 15.4417L7.00286 17.1742C7.5337 17.4717 8.46703 17.4717 8.99786 17.1742L12.1129 15.4417C12.6729 15.1267 13.1687 14.2926 13.1687 13.6451V10.3492C13.1687 9.70758 12.6729 8.86758 12.1129 8.55258L8.99786 6.82008C8.72953 6.68008 8.36786 6.60425 8.00036 6.60425Z" fill="white"/>
<circle cx="12" cy="12" r="12" fill="#6A0000"/>
<path d="M11.9997 13.2658C10.7572 13.2658 9.74219 12.2566 9.74219 11.0083C9.74219 9.75993 10.7572 8.75659 11.9997 8.75659C13.2422 8.75659 14.2572 9.76576 14.2572 11.0141C14.2572 12.2624 13.2422 13.2658 11.9997 13.2658ZM11.9997 9.63159C11.2414 9.63159 10.6172 10.2499 10.6172 11.0141C10.6172 11.7783 11.2355 12.3966 11.9997 12.3966C12.7639 12.3966 13.3822 11.7783 13.3822 11.0141C13.3822 10.2499 12.758 9.63159 11.9997 9.63159Z" fill="white"/>
<path d="M12 18.2767C11.1366 18.2767 10.2675 17.9501 9.59081 17.3026C7.86998 15.6459 5.96831 13.0034 6.68581 9.85925C7.33331 7.00675 9.82415 5.72925 12 5.72925C12 5.72925 12 5.72925 12.0058 5.72925C14.1816 5.72925 16.6725 7.00675 17.32 9.86508C18.0316 13.0092 16.13 15.6459 14.4091 17.3026C13.7325 17.9501 12.8633 18.2767 12 18.2767ZM12 6.60425C10.3025 6.60425 8.12081 7.50841 7.54331 10.0517C6.91331 12.7992 8.63998 15.1676 10.2033 16.6667C11.2125 17.6409 12.7933 17.6409 13.8025 16.6667C15.36 15.1676 17.0866 12.7992 16.4683 10.0517C15.885 7.50841 13.6975 6.60425 12 6.60425Z" fill="white"/>
</svg>
