<svg width="24" height="24" viewBox="0 0 24 24" fill="none" xmlns="http://www.w3.org/2000/svg">
<path d="M8.00013 12.7584C7.9243 12.7584 7.84846 12.7409 7.77846 12.7001L2.62763 9.71925C2.42346 9.59675 2.34763 9.32841 2.47013 9.11841C2.59263 8.90841 2.86096 8.83841 3.07096 8.96091L8.00013 11.8134L12.9001 8.97841C13.1101 8.85591 13.3785 8.93175 13.501 9.13591C13.6235 9.34591 13.5476 9.61425 13.3435 9.73675L8.22763 12.7001C8.1518 12.7351 8.07596 12.7584 8.00013 12.7584Z" fill="white"/>
<path d="M8 18.0433C7.76083 18.0433 7.5625 17.8449 7.5625 17.6058V12.3149C7.5625 12.0758 7.76083 11.8774 8 11.8774C8.23917 11.8774 8.4375 12.0758 8.4375 12.3149V17.6058C8.4375 17.8449 8.23917 18.0433 8 18.0433Z" fill="white"/>
<path d="M8.00036 18.2709C7.48703 18.2709 6.97953 18.1601 6.57703 17.9384L3.46203 16.2059C2.6162 15.7392 1.95703 14.6134 1.95703 13.6451V10.3492C1.95703 9.38091 2.6162 8.26092 3.46203 7.78841L6.57703 6.06175C7.3762 5.61841 8.62453 5.61841 9.4237 6.06175L12.5387 7.79425C13.3845 8.26091 14.0437 9.38675 14.0437 10.3551V13.6509C14.0437 14.6192 13.3845 15.7392 12.5387 16.2117L9.4237 17.9384C9.0212 18.1601 8.5137 18.2709 8.00036 18.2709ZM8.00036 6.60425C7.63286 6.60425 7.2712 6.68008 7.00286 6.82591L3.88786 8.55841C3.32786 8.86758 2.83203 9.70758 2.83203 10.3492V13.6451C2.83203 14.2867 3.32786 15.1267 3.88786 15.4417L7.00286 17.1742C7.5337 17.4717 8.46703 17.4717 8.99786 17.1742L12.1129 15.4417C12.6729 15.1267 13.1687 14.2926 13.1687 13.6451V10.3492C13.1687 9.70758 12.6729 8.86758 12.1129 8.55258L8.99786 6.82008C8.72953 6.68008 8.36786 6.60425 8.00036 6.60425Z" fill="white"/>
<circle cx="12" cy="12" r="12" fill="#6A0000"/>
<path d="M15.348 18.2708H8.65134C7.19884 18.2708 6.02051 17.0924 6.02051 15.6399V11.7141C6.02051 10.2616 7.19884 9.08325 8.65134 9.08325H15.348C16.8005 9.08325 17.9788 10.2616 17.9788 11.7141V12.5541C17.9788 12.7933 17.7805 12.9916 17.5413 12.9916H16.363C16.1588 12.9916 15.9722 13.0674 15.838 13.2074L15.8322 13.2133C15.6688 13.3708 15.593 13.5866 15.6105 13.8082C15.6455 14.1932 16.013 14.5024 16.433 14.5024H17.5413C17.7805 14.5024 17.9788 14.7007 17.9788 14.9399V15.6341C17.9788 17.0924 16.8005 18.2708 15.348 18.2708ZM8.65134 9.95825C7.68301 9.95825 6.89551 10.7458 6.89551 11.7141V15.6399C6.89551 16.6082 7.68301 17.3958 8.65134 17.3958H15.348C16.3163 17.3958 17.1038 16.6082 17.1038 15.6399V15.3832H16.433C15.5522 15.3832 14.8055 14.7299 14.7355 13.8899C14.6888 13.4116 14.8638 12.9391 15.2138 12.5949C15.5172 12.2858 15.9255 12.1166 16.363 12.1166H17.1038V11.7141C17.1038 10.7458 16.3163 9.95825 15.348 9.95825H8.65134Z" fill="white"/>
<path d="M6.45801 12.6768C6.21884 12.6768 6.02051 12.4784 6.02051 12.2393V9.57345C6.02051 8.70428 6.56884 7.91675 7.37967 7.60758L12.0113 5.85758C12.4897 5.67675 13.0205 5.74095 13.4347 6.03261C13.8547 6.32428 14.0997 6.79678 14.0997 7.30428V9.52094C14.0997 9.7601 13.9013 9.95844 13.6622 9.95844C13.423 9.95844 13.2247 9.7601 13.2247 9.52094V7.30428C13.2247 7.08261 13.1197 6.87843 12.933 6.7501C12.7463 6.62177 12.5247 6.5926 12.3147 6.67427L7.68301 8.42427C7.21051 8.6051 6.88967 9.06595 6.88967 9.57345V12.2393C6.89551 12.4843 6.69717 12.6768 6.45801 12.6768Z" fill="white"/>
<path d="M16.4334 15.3834C15.5526 15.3834 14.8059 14.73 14.7359 13.89C14.6893 13.4059 14.8643 12.9334 15.2143 12.5892C15.5118 12.2859 15.9201 12.1167 16.3576 12.1167H17.5709C18.1484 12.1342 18.5918 12.5892 18.5918 13.1492V14.3509C18.5918 14.9109 18.1484 15.3659 17.5884 15.3834H16.4334ZM17.5593 12.9917H16.3634C16.1593 12.9917 15.9726 13.0675 15.8384 13.2075C15.6693 13.3709 15.5876 13.5925 15.6109 13.8142C15.6459 14.1992 16.0134 14.5084 16.4334 14.5084H17.5768C17.6526 14.5084 17.7226 14.4384 17.7226 14.3509V13.1492C17.7226 13.0617 17.6526 12.9975 17.5593 12.9917Z" fill="white"/>
<path d="M13.1663 12.4375H9.08301C8.84384 12.4375 8.64551 12.2392 8.64551 12C8.64551 11.7608 8.84384 11.5625 9.08301 11.5625H13.1663C13.4055 11.5625 13.6038 11.7608 13.6038 12C13.6038 12.2392 13.4055 12.4375 13.1663 12.4375Z" fill="white"/>
</svg>
