<svg width="16" height="16" viewBox="0 0 16 16" fill="none" xmlns="http://www.w3.org/2000/svg">
<g clip-path="url(#clip0_1177_5850)">
<path d="M0.0417109 6.13748C0.14645 5.81349 0.433811 5.58339 0.773786 5.55275L5.39182 5.13342L7.21792 0.859266C7.35257 0.546026 7.65921 0.343262 7.99992 0.343262C8.34063 0.343262 8.64728 0.546026 8.78192 0.859999L10.608 5.13342L15.2268 5.55275C15.5662 5.58412 15.8528 5.81349 15.9581 6.13748C16.0635 6.46146 15.9662 6.81682 15.7095 7.04082L12.2188 10.1022L13.2481 14.6364C13.3234 14.9697 13.194 15.3143 12.9174 15.5143C12.7687 15.6217 12.5948 15.6764 12.4193 15.6764C12.2681 15.6764 12.1181 15.6356 11.9834 15.5551L7.99992 13.1743L4.01789 15.5551C3.7265 15.7304 3.35918 15.7144 3.08317 15.5143C2.80643 15.3137 2.67715 14.969 2.75247 14.6364L3.7818 10.1022L0.291107 7.04143C0.0343866 6.81682 -0.0636387 6.46207 0.0417109 6.13748Z" fill="#FFC107"/>
</g>
<defs>
<clipPath id="clip0_1177_5850">
<rect width="16" height="16" fill="white" transform="matrix(-1 0 0 1 16 0)"/>
</clipPath>
</defs>
</svg>
